<svg viewBox="0 0 160 40" fill="none" xmlns="http://www.w3.org/2000/svg"><g clip-path="url(#clip0_3251_120)"><path fill-rule="evenodd" clip-rule="evenodd" d="M15.3089 40H0V0H15.3089V3.14327H3.14327V36.8514H15.3036V39.9947L15.3089 40Z" fill="white"></path><path fill-rule="evenodd" clip-rule="evenodd" d="M34.423 40H19.1035V36.8567H31.2744V3.14327H19.1035V0H34.423V40Z" fill="white"></path><path d="M8.86914 8.39844H18.426C21.093 8.39844 23.2573 10.5627 23.2573 13.2298C23.2573 15.8968 21.093 18.0611 18.426 18.0611H8.86914V8.39844Z" fill="#19C9D1"></path><path d="M8.86914 20.1406H19.8706C23.0297 20.1406 25.5962 22.7071 25.5962 25.8662C25.5962 29.0254 23.0297 31.5919 19.8706 31.5919H8.86914V20.1406Z" fill="#19C9D1"></path><path fill-rule="evenodd" clip-rule="evenodd" d="M127.706 24.5339C129.833 24.5339 131.685 24.227 133.045 23.6131V20.6445C131.902 21.1102 130.119 21.4171 128.573 21.4171C125.451 21.4171 123.753 20.708 123.324 18.3691H133.918V15.7126C133.918 11.8814 131.447 9.2832 126.907 9.2832C121.969 9.2832 119.472 12.2201 119.472 16.8821C119.472 22.0362 122.647 24.5339 127.711 24.5339H127.706ZM123.324 15.792C123.324 13.3314 124.277 12.273 127.023 12.273C129.372 12.273 130.267 13.3261 130.267 14.9877V15.7814H123.324V15.792Z" fill="white"></path><path fill-rule="evenodd" clip-rule="evenodd" d="M153.339 24.5339C157.599 24.5339 159.826 23.0258 159.826 20.0889C159.826 17.5541 158.773 16.4429 155.286 15.3634C152.873 14.6278 151.799 14.4691 151.799 13.5748C151.799 12.744 152.947 12.5852 154.704 12.5852C155.942 12.5852 157.514 12.8657 158.636 13.3949V9.96583C157.525 9.58483 155.821 9.2832 154.032 9.2832C149.492 9.2832 147.576 10.8601 147.576 13.6436C147.576 16.1783 149.058 17.2208 151.741 18.1204C154.275 18.9511 155.598 19.1628 155.598 20.1524C155.598 21.0202 154.826 21.1684 152.794 21.1684C151.254 21.1684 149.27 20.8615 147.851 20.2741V23.7348C149.058 24.1899 151.153 24.5286 153.349 24.5286L153.339 24.5339Z" fill="white"></path><path fill-rule="evenodd" clip-rule="evenodd" d="M142.622 24.5323C143.955 24.5323 144.971 24.3471 145.892 23.982V21.1086C145.252 21.3309 144.691 21.4155 144.104 21.4155C142.532 21.4155 141.823 20.9234 141.823 19.32V12.8059H145.278L145.527 9.58856H141.828V5.20703L137.653 6.44529V9.58856H135.584V12.8059H137.653V19.6005C137.653 22.6485 139.23 24.5376 142.622 24.5376V24.5323Z" fill="white"></path><path fill-rule="evenodd" clip-rule="evenodd" d="M76.9051 24.5333C79.4398 24.5333 81.0697 23.946 82.218 22.9035L82.4297 24.2264H86.0492V14.9289C86.0492 10.976 83.5145 9.27734 79.1329 9.27734C76.8099 9.27734 74.799 9.67951 73.4391 10.2087V13.1456C74.9313 12.6482 76.6247 12.3677 78.2598 12.3677C81.2867 12.3677 82.0539 13.0503 82.0539 14.8389V15.2411H77.7359C73.7195 15.2411 71.6875 17.1249 71.6875 19.993C71.6875 23.0252 74.0899 24.5333 76.9051 24.5333ZM78.0481 21.7869C76.2225 21.7869 75.3917 21.0778 75.3917 19.8396C75.3917 18.4796 76.2013 17.8287 77.8365 17.8287H82.0592V20.1465C81.2602 21.099 79.9002 21.7869 78.0428 21.7869H78.0481Z" fill="white"></path><path fill-rule="evenodd" clip-rule="evenodd" d="M104.295 24.2316H108.47V19.4162L110.163 17.781L114.619 24.2369H119.027L112.793 15.5903L118.683 9.58948H113.931L108.47 14.8759V3.41406H104.295V24.2316Z" fill="white"></path><path fill-rule="evenodd" clip-rule="evenodd" d="M96.4209 24.5328C98.3683 24.5328 99.9717 24.2629 101.39 23.6385V20.5534C100.189 21.1408 98.7705 21.4107 97.347 21.4107C93.9815 21.4107 92.558 20.0613 92.558 16.9021C92.558 13.4731 94.2513 12.3936 97.3682 12.3936C98.908 12.3936 100.332 12.7005 101.358 13.2032V10.2028C99.9611 9.55194 98.6011 9.27148 96.5374 9.27148C91.5684 9.27148 88.3193 11.7427 88.3193 16.9021C88.3193 22.0615 91.1927 24.5328 96.4104 24.5328H96.4209Z" fill="white"></path><path fill-rule="evenodd" clip-rule="evenodd" d="M52.8805 24.5333C56.9869 24.5333 59.5798 22.062 59.5798 16.7809C59.5798 11.4998 56.9604 9.27727 52.7588 9.27727C51.1448 9.27727 49.6367 9.65827 48.4408 10.3885V3.41406H44.2656V24.2316H47.8799L48.1021 22.8717C49.3668 23.9829 50.8168 24.5385 52.8911 24.5385L52.8805 24.5333ZM51.7058 21.4852C50.4358 21.4852 49.2345 21.0196 48.4355 20.1517V13.4207C49.2081 12.7116 50.3723 12.3412 51.674 12.3412C54.2458 12.3412 55.357 13.5424 55.357 16.7862C55.357 20.03 54.3675 21.4852 51.7111 21.4852H51.7058Z" fill="white"></path><path fill-rule="evenodd" clip-rule="evenodd" d="M62.4795 24.2258H66.6546V14.0023C67.8559 13.3249 70.1736 12.6793 71.8723 12.4306V9.27148C69.9514 9.5149 67.8559 10.261 66.5329 11.0971L66.3424 9.5784H62.4848V24.2206L62.4795 24.2258Z" fill="white"></path><path d="M44.2656 35.8303V30.4434H48.0227V31.1524H45.1811V32.7823H47.7158V33.4861H45.1811V35.1265H48.0227V35.8303H44.2656Z" fill="white"></path><path d="M51.5414 35.8303V30.4434H52.4781L54.182 33.9306L55.8806 30.4434H56.8173V35.8303H55.9124V31.925L54.4572 34.9043H53.9068L52.441 31.925V35.8303H51.5361H51.5414Z" fill="white"></path><path d="M60.5479 35.8303V30.4434H63.1567C63.6911 30.4434 64.088 30.5704 64.342 30.8191C64.596 31.0678 64.7283 31.4223 64.7283 31.8827C64.7283 32.1737 64.6701 32.4172 64.5537 32.613C64.4373 32.8088 64.2785 32.9622 64.088 33.0628C64.3526 33.1368 64.559 33.2638 64.7124 33.4543C64.8659 33.6396 64.94 33.9147 64.94 34.2798C64.94 34.8037 64.7971 35.1953 64.5166 35.4493C64.2362 35.7033 63.8234 35.8356 63.2731 35.8356H60.5479V35.8303ZM61.458 32.7453H63.0297C63.3366 32.7453 63.5535 32.6765 63.6858 32.5336C63.8181 32.3907 63.8816 32.2002 63.8816 31.9621C63.8816 31.6816 63.8128 31.4752 63.6805 31.3377C63.5482 31.2001 63.2942 31.1313 62.9291 31.1313H61.458V32.7453ZM61.458 35.1636H63.0826C63.4054 35.1636 63.6435 35.0948 63.7917 34.9572C63.9398 34.8196 64.0192 34.5815 64.0192 34.2428C64.0192 33.9623 63.9451 33.756 63.797 33.6184C63.6488 33.4808 63.3789 33.412 62.9873 33.412H61.458V35.1583V35.1636Z" fill="white"></path><path d="M68.502 35.8303V30.4434H70.9785C71.5817 30.4434 72.0209 30.5968 72.2961 30.909C72.5713 31.2159 72.7089 31.6393 72.7089 32.1685C72.7089 32.5495 72.6136 32.8723 72.4231 33.1368C72.2326 33.4067 71.9627 33.5919 71.6029 33.6978C71.7034 33.7718 71.7828 33.8459 71.8357 33.9306C71.8939 34.0153 71.9469 34.1264 72.0051 34.264L72.6824 35.8303H71.7458L71.0843 34.3275C71.0208 34.1846 70.9467 34.0788 70.8621 34.0206C70.7774 33.9571 70.6292 33.9306 70.4228 33.9306H69.4121V35.8356H68.502V35.8303ZM69.4121 33.1898H70.7351C71.0631 33.1898 71.3224 33.1104 71.5129 32.9463C71.7034 32.7823 71.7987 32.523 71.7987 32.1685C71.7987 31.4964 71.4706 31.1577 70.8197 31.1577H69.4121V33.1898Z" fill="white"></path><path d="M75.7461 35.8303L77.8046 30.4434H78.8259L80.8685 35.8303H79.9318L79.3974 34.4439H77.2331L76.6986 35.8303H75.7514H75.7461ZM77.3707 33.7401H79.2439L78.3073 31.2742L77.3707 33.7401Z" fill="white"></path><path d="M86.4991 35.9104C85.6101 35.9104 84.9434 35.667 84.4883 35.1801C84.0332 34.6933 83.8057 34.0424 83.8057 33.2169C83.8057 32.6242 83.9009 32.1162 84.0967 31.6929C84.2872 31.2643 84.5835 30.9362 84.9804 30.7086C85.3773 30.4758 85.88 30.3594 86.4939 30.3594C86.8061 30.3594 87.0918 30.3858 87.3511 30.4282C87.6104 30.4758 87.8538 30.5393 88.0761 30.6187V31.4124C87.8538 31.3225 87.6157 31.2537 87.3617 31.206C87.1077 31.1584 86.8431 31.1373 86.5626 31.1373C85.8959 31.1373 85.4196 31.3172 85.1445 31.6717C84.8693 32.0263 84.7317 32.5449 84.7317 33.2169C84.7317 33.8466 84.8799 34.3229 85.1815 34.651C85.4831 34.979 85.9488 35.1378 86.5785 35.1378C86.8325 35.1378 87.0918 35.1166 87.3511 35.0743C87.6104 35.032 87.8538 34.9685 88.0814 34.8785V35.6828C87.8591 35.7569 87.6157 35.8098 87.3564 35.8522C87.0971 35.8892 86.8114 35.9104 86.4991 35.9104Z" fill="white"></path><path d="M91.6426 35.8303V30.4434H92.5528V35.8303H91.6426Z" fill="white"></path><path d="M96.2881 35.8303V30.4434H97.0924L99.9023 34.4068V30.4434H100.807V35.8303H100.003L97.2035 31.8721V35.8303H96.2934H96.2881Z" fill="white"></path><path d="M107.052 35.9104C106.163 35.9104 105.496 35.6722 105.046 35.1907C104.596 34.7092 104.374 34.0636 104.374 33.2434C104.374 32.6507 104.469 32.1427 104.665 31.7088C104.861 31.2748 105.157 30.9415 105.554 30.7086C105.951 30.4758 106.459 30.3594 107.073 30.3594C107.39 30.3594 107.681 30.3805 107.941 30.4229C108.2 30.4652 108.443 30.5234 108.671 30.6028V31.3913C108.216 31.2219 107.708 31.1425 107.147 31.1425C106.459 31.1425 105.983 31.3225 105.702 31.6876C105.422 32.0527 105.289 32.5713 105.289 33.2539C105.289 33.8731 105.432 34.344 105.723 34.6668C106.014 34.9896 106.464 35.1537 107.067 35.1537C107.549 35.1537 107.935 35.0955 108.232 34.9843V33.4815H106.888V32.8888H109.01V35.4817C108.835 35.5929 108.592 35.6934 108.269 35.7887C107.946 35.8786 107.538 35.9262 107.041 35.9262L107.052 35.9104Z" fill="white"></path><path d="M117.18 35.8303V30.4434H120.842V31.1524H118.09V32.7823H120.535V33.4861H118.09V35.8303H117.18Z" fill="white"></path><path d="M126.536 35.9097C125.795 35.9097 125.219 35.7298 124.811 35.3752C124.404 35.0207 124.197 34.5021 124.197 33.8301V30.4434H125.107V33.7983C125.107 34.2481 125.229 34.5868 125.478 34.809C125.727 35.0313 126.081 35.1424 126.536 35.1424C126.991 35.1424 127.335 35.0313 127.584 34.809C127.833 34.5868 127.954 34.2481 127.954 33.7983V30.4434H128.859V33.8301C128.859 34.5074 128.658 35.0207 128.251 35.3752C127.843 35.7298 127.272 35.9097 126.536 35.9097Z" fill="white"></path><path d="M133.95 35.8309V31.1583H132.225V30.4492H136.574V31.1583H134.86V35.8309H133.95Z" fill="white"></path><path d="M142.278 35.9097C141.538 35.9097 140.961 35.7298 140.553 35.3752C140.146 35.0207 139.939 34.5021 139.939 33.8301V30.4434H140.85V33.7983C140.85 34.2481 140.971 34.5868 141.22 34.809C141.469 35.0313 141.823 35.1424 142.278 35.1424C142.733 35.1424 143.077 35.0313 143.326 34.809C143.575 34.5868 143.697 34.2481 143.697 33.7983V30.4434H144.601V33.8301C144.601 34.5074 144.4 35.0207 143.993 35.3752C143.585 35.7298 143.014 35.9097 142.278 35.9097Z" fill="white"></path><path d="M148.29 35.8303V30.4434H150.767C151.37 30.4434 151.809 30.5968 152.084 30.909C152.359 31.2159 152.497 31.6393 152.497 32.1685C152.497 32.5495 152.402 32.8723 152.211 33.1368C152.021 33.4067 151.751 33.5919 151.391 33.6978C151.492 33.7718 151.571 33.8459 151.624 33.9306C151.682 34.0153 151.735 34.1264 151.793 34.264L152.47 35.8303H151.534L150.872 34.3275C150.809 34.1846 150.735 34.0788 150.65 34.0206C150.565 33.9571 150.417 33.9306 150.211 33.9306H149.2V35.8356H148.29V35.8303ZM149.2 33.1898H150.523C150.851 33.1898 151.111 33.1104 151.301 32.9463C151.492 32.7823 151.587 32.523 151.587 32.1685C151.587 31.4964 151.259 31.1577 150.608 31.1577H149.2V33.1898Z" fill="white"></path><path d="M156.068 35.8303V30.4434H159.825V31.1524H156.984V32.7823H159.519V33.4861H156.984V35.1265H159.825V35.8303H156.068Z" fill="white"></path></g><defs><clipPath id="clip0_3251_120"><rect width="159.825" height="40" fill="white"></rect></clipPath></defs></svg>