<svg width="343" height="101" viewBox="0 0 343 101" fill="none" xmlns="http://www.w3.org/2000/svg">
<path d="M60.2762 5.31573C58.8024 6.09649 57.9482 7.64139 57.9482 9.55175C57.9482 10.3325 58.0487 10.2494 55.6873 11.5618C55.2351 11.811 54.5484 12.193 54.1799 12.409C53.8115 12.6083 53.3425 12.8575 53.1416 12.9572C52.5889 13.1897 52.8066 13.5386 53.8617 14.1366C54.3642 14.419 54.7661 14.7513 54.7661 14.8842C54.7661 15.0004 54.4814 15.2828 54.1297 15.4822C53.778 15.6981 53.3425 15.9639 53.1751 16.0802C52.9908 16.1799 52.7229 16.3294 52.5889 16.3958C52.4549 16.4623 51.6175 16.9274 50.7466 17.4424C49.8757 17.9573 49.0383 18.4225 48.9043 18.4889C48.7703 18.5554 48.4019 18.7547 48.1004 18.9374C47.7989 19.1202 46.0404 20.1335 44.2148 21.18C42.3893 22.2266 40.6308 23.2399 40.3293 23.4226C40.0278 23.6054 39.6594 23.8047 39.5254 23.8712C39.3914 23.9376 38.3698 24.519 37.2644 25.1669C36.159 25.8147 35.1374 26.3962 35.0034 26.4626C34.8694 26.5291 34.5345 26.7284 34.2498 26.9111C33.9818 27.0939 33.6301 27.2932 33.4961 27.3596C33.3621 27.4261 32.7257 27.7749 32.0725 28.157C31.4361 28.5225 30.7829 28.8879 30.6489 28.9544C30.5149 29.0208 30.2805 29.1371 30.1465 29.2368C29.7278 29.5026 25.591 31.8947 25.5408 31.8947C25.5073 31.8947 24.9378 32.2103 24.2512 32.609C23.5813 33.0077 22.9113 33.3731 22.7773 33.4396C22.6434 33.506 22.3084 33.7054 22.0237 33.8881C21.7557 34.0708 21.404 34.2702 21.27 34.3366C21.136 34.4031 20.4996 34.7519 19.8464 35.134C19.21 35.4994 18.5568 35.8649 18.4229 35.9314C17.8702 36.2138 17.4012 36.5128 17.083 36.7952C16.7648 37.0776 16.748 37.2935 16.748 42.6093C16.748 45.6327 16.7983 50.8156 16.8653 54.1047L16.9658 60.1016L17.351 60.2843C18.0879 60.6166 19.1263 61.7129 19.5282 62.5768C20.5499 64.7695 19.5952 67.1284 17.1333 68.474C16.3461 68.9225 14.4033 68.8726 13.4152 68.4075C11.8911 67.6766 10.7187 65.9157 10.7187 64.3542C10.7187 62.8924 11.8074 61.0817 13.097 60.4006L13.6832 60.085L13.7836 55.3506C13.8506 52.7425 13.9009 47.3437 13.9009 43.3569C13.9009 38.8384 13.9679 35.9147 14.0684 35.6157C14.2023 35.2669 14.5875 34.918 15.4584 34.4031C16.1116 34.021 16.7815 33.6223 16.9155 33.5392C17.0495 33.4562 17.284 33.3399 17.418 33.2735C17.552 33.207 18.5401 32.6422 19.5952 32.011C20.6503 31.3797 21.672 30.7983 21.8562 30.7152C22.0404 30.6322 22.4256 30.4162 22.6936 30.2335C22.9783 30.0508 23.3133 29.8514 23.4473 29.785C23.5813 29.7185 24.6196 29.1205 25.7417 28.456C26.8806 27.7916 27.8353 27.2434 27.8688 27.2434C27.9022 27.2434 28.8904 26.6786 30.046 25.9975C31.2016 25.3164 32.1897 24.7516 32.24 24.7516C32.2735 24.7516 32.7927 24.4692 33.3621 24.1203C33.9483 23.7715 34.8694 23.2399 35.4221 22.9409C35.9748 22.6419 37.1137 21.994 37.9343 21.5123C38.7717 21.0305 40.2791 20.1833 41.2839 19.6019C43.8631 18.1401 47.0955 16.2962 47.397 16.0968C47.531 16.0138 47.7989 15.8809 47.9832 15.7978C48.988 15.3327 51.8352 13.4888 51.8352 13.306C51.8352 13.1233 50.7968 12.4256 49.9092 12.0103C49.7752 11.9439 48.9211 11.4621 48.0167 10.9305C46.0739 9.80093 45.7222 9.68465 45.1025 10.0003C44.1144 10.5152 43.0927 11.08 42.4228 11.5119C42.0209 11.7611 41.6691 11.9605 41.6356 11.9605C41.6022 11.9605 41.016 12.2761 40.3293 12.6748C39.6594 13.0735 38.9895 13.4389 38.8555 13.5054C38.7215 13.5718 38.3865 13.7712 38.1018 13.9539C37.8338 14.1366 37.4821 14.336 37.3481 14.4024C37.2142 14.4689 36.3768 14.934 35.5059 15.449C34.635 15.9639 33.7976 16.4291 33.6636 16.4955C33.5296 16.562 33.2616 16.7115 33.0774 16.8277C32.8932 16.944 32.2065 17.3261 31.5701 17.6916C30.9169 18.057 30.247 18.4391 30.0627 18.5554C29.8785 18.6717 29.6105 18.8045 29.4766 18.871C29.1751 19.0205 25.9762 20.8644 25.6245 21.097C25.4905 21.1967 25.2561 21.3129 25.1221 21.3794C24.9881 21.4458 24.3517 21.8113 23.6985 22.1767C23.0621 22.5588 22.4089 22.9077 22.2749 22.9741C22.1409 23.0406 21.806 23.2399 21.5212 23.406C21.2533 23.5888 20.6503 23.9376 20.1814 24.1868C18.6908 25.0008 18.5066 25.1004 18.0042 25.4161C17.7362 25.5988 17.3845 25.7981 17.2505 25.8646C17.1165 25.931 16.4466 26.2965 15.7767 26.6952C15.09 27.0939 14.5206 27.4095 14.4871 27.4095C14.4536 27.4095 13.6664 27.858 12.7285 28.4062C11.7906 28.9544 11.0035 29.4029 10.97 29.4029C10.8192 29.4029 8.75923 30.682 8.50801 30.9312C8.22329 31.2136 8.20654 32.3266 8.34053 52.1944L8.45776 73.1585L9.12769 73.607C9.49614 73.8562 10.0991 74.2217 10.4675 74.421C10.836 74.6037 11.2547 74.8363 11.3887 74.9194C11.5227 75.0024 12.2428 75.4011 12.9797 75.833C13.7167 76.2483 14.4368 76.6636 14.5708 76.7467C14.7048 76.8463 14.9895 76.9792 15.1905 77.0789C15.3915 77.162 15.8437 77.4111 16.1954 77.6271C16.5471 77.843 18.1214 78.7567 19.679 79.6537C21.2533 80.5508 22.7606 81.4146 23.0286 81.5807C23.3133 81.7468 23.6817 81.9628 23.8827 82.0458C24.0669 82.1289 24.7201 82.4944 25.3063 82.8432C25.8925 83.2087 26.4954 83.5409 26.6294 83.6074C26.7634 83.6738 27.1151 83.8731 27.3831 84.0393C27.6678 84.222 28.1535 84.5044 28.4717 84.6705C29.5101 85.2353 30.381 85.7337 30.9001 86.0659C31.1849 86.232 31.5533 86.448 31.7375 86.531C31.9385 86.6141 32.7927 87.0958 33.6301 87.6108C34.4842 88.1258 35.2211 88.5411 35.2546 88.5411C35.3384 88.5411 38.5205 90.3684 39.023 90.7006C39.1569 90.8003 39.4249 90.9332 39.6259 91.0162C39.8101 91.0993 40.48 91.4814 41.0997 91.8468C41.7026 92.2289 42.2386 92.5279 42.2888 92.5279C42.3223 92.5279 42.6908 92.7439 43.0927 93.0263C43.5114 93.2921 43.9301 93.5246 44.0139 93.5246C44.1144 93.5246 44.3153 93.6409 44.4661 93.7904C45.0523 94.3718 46.1744 94.2722 47.3132 93.5246C47.598 93.3419 47.9329 93.1425 48.0669 93.0761C48.2009 93.0097 48.8541 92.6442 49.5072 92.2455C50.1604 91.8468 50.7968 91.5312 50.8973 91.5312C50.9978 91.5312 51.0815 91.4648 51.0815 91.3817C51.0815 91.2986 51.2323 91.1657 51.4165 91.1159C51.6007 91.0495 52.7898 90.4016 54.0627 89.6707C58.8861 86.8633 60.2092 86.0991 60.4605 85.9828C60.5944 85.933 60.9461 85.7337 61.2141 85.5675C61.6998 85.2519 62.3027 84.9031 63.4751 84.2884C63.7933 84.1057 64.145 83.8731 64.279 83.7569C64.3962 83.6572 64.5637 83.5575 64.6475 83.5575C64.7312 83.5575 65.3676 83.2253 66.0376 82.81C66.7242 82.3947 67.3774 82.0624 67.4779 82.0624C67.5784 82.0624 67.6621 81.996 67.6621 81.9129C67.6621 81.8299 67.8128 81.697 68.0138 81.6472C68.1981 81.5807 68.9182 81.1986 69.6049 80.7999C70.2916 80.4013 70.8777 80.069 70.928 80.069C70.9615 80.069 71.7486 79.6205 72.653 79.0723C73.5742 78.5241 74.3613 78.0756 74.4116 78.0756C74.4786 78.0756 75.2657 77.6271 76.1701 77.0789C77.0913 76.5307 77.8784 76.0822 77.9287 76.0822C77.9957 76.0822 78.9 75.5506 79.9719 74.9194C81.0438 74.2715 81.9817 73.7565 82.0654 73.7565C82.1492 73.7565 82.3669 73.5904 82.5679 73.3911C82.9028 73.0256 82.9028 72.8927 82.9028 57.1945C82.9028 42.6924 82.8861 41.3634 82.6349 41.3634C82.4171 41.3634 80.6586 42.3103 79.5532 43.0246C79.4192 43.1243 79.1848 43.2406 79.0508 43.307C78.9168 43.3735 78.2469 43.7389 77.577 44.1376C76.8903 44.5363 76.3209 44.8519 76.2874 44.8519C76.2539 44.8519 75.8854 45.0679 75.4835 45.3503C75.0648 45.6161 74.6963 45.8486 74.646 45.8486C74.5958 45.8486 73.6244 46.3968 72.4856 47.0613C71.3467 47.7258 70.3083 48.3238 70.1743 48.3902C70.0403 48.4567 69.4709 48.7723 68.9182 49.0879C68.3655 49.4036 67.7626 49.7524 67.5784 49.8355C67.3941 49.9351 67.0257 50.1511 66.741 50.3338C66.473 50.5166 66.1213 50.7159 65.9873 50.7823C65.6858 50.9152 63.3411 52.2608 62.9727 52.4934C62.8387 52.593 62.6042 52.7093 62.4702 52.7758C62.3362 52.8422 61.6161 53.2409 60.8792 53.6728C59.3718 54.5366 58.5177 55.035 57.5295 55.5666C57.1611 55.7493 56.5582 56.0981 56.1897 56.3307C55.8212 56.5633 55.4025 56.8124 55.2686 56.8789C55.1346 56.9453 54.8666 57.0782 54.6824 57.1945C54.4982 57.3108 53.8115 57.6929 53.1751 58.0583C52.5219 58.4238 51.852 58.8059 51.6677 58.9221C51.4835 59.0384 51.2155 59.1713 51.0815 59.2378C50.9476 59.3042 50.3111 59.6697 49.658 60.0518C49.0215 60.4172 48.3684 60.7827 48.2344 60.8491C48.1004 60.9156 47.7654 61.1149 47.4807 61.2976C47.2127 61.4804 46.8275 61.6963 46.6433 61.7794C46.4423 61.8624 45.5882 62.3442 44.7508 62.8592C43.8966 63.3741 43.1597 63.7894 43.1095 63.7894C43.0425 63.7894 42.674 64.0054 42.2553 64.2878C41.8534 64.5536 41.4682 64.7861 41.4179 64.7861C41.3342 64.7861 39.3077 65.949 38.5205 66.4473C38.3865 66.5304 37.7836 66.8792 37.1807 67.2115C36.5777 67.5603 35.4891 68.1749 34.7522 68.6235C34.0153 69.0554 33.1109 69.5703 32.7424 69.7697C31.4361 70.484 29.0411 71.8296 28.254 72.2947C27.4166 72.793 26.5624 72.8927 26.1102 72.5439C25.4235 72.0289 25.39 71.7465 25.3398 65.1184C25.3063 61.5967 25.2393 58.5567 25.1891 58.3407C25.1556 58.1414 25.0048 57.9753 24.8541 57.9753C24.4354 57.9753 22.9616 56.4802 22.6099 55.6828C22.1409 54.6363 22.1577 53.1578 22.6769 52.0781C23.5478 50.2175 26.127 48.872 27.6678 49.4866C27.8855 49.5697 28.2707 49.686 28.5387 49.7524C29.2588 49.9019 30.6992 51.4302 31.0341 52.3937C31.7376 54.4037 31.0174 56.4636 29.2421 57.5932L28.4884 58.0583L28.4717 63.3243C28.4717 67.7098 28.5052 68.6069 28.7062 68.6069C28.8234 68.6069 29.0244 68.4906 29.1416 68.3577C29.2588 68.2248 29.4096 68.1085 29.4766 68.1085C29.5603 68.1085 30.1967 67.7763 30.8834 67.361C31.5868 66.9457 32.1897 66.6134 32.2232 66.6134C32.2567 66.6134 33.0272 66.1815 33.9483 65.6499C34.8527 65.1184 35.7068 64.6366 35.8408 64.5702C35.9748 64.5037 36.36 64.2878 36.6782 64.105C36.9964 63.9057 37.6831 63.5236 38.1855 63.2578C38.688 62.9754 39.5254 62.5103 40.0446 62.1947C40.5638 61.8791 41.0327 61.6299 41.083 61.6299C41.1332 61.6299 42.1213 61.0651 43.277 60.384C44.4326 59.7029 45.4207 59.1381 45.471 59.1381C45.5044 59.1381 46.2414 58.7228 47.0955 58.2078C47.9329 57.6929 48.7871 57.2111 48.988 57.1281C49.1723 57.045 49.4402 56.9121 49.5742 56.8124C50.0599 56.4968 53.2588 54.6529 53.3425 54.6529C53.376 54.6529 54.1632 54.2044 55.0676 53.6562C55.9887 53.108 56.7759 52.6595 56.8261 52.6595C56.8931 52.6595 57.8143 52.1279 58.9029 51.48C59.9915 50.8322 61.0299 50.2342 61.2141 50.1511C61.3983 50.068 61.6663 49.9351 61.8003 49.8355C62.4535 49.4202 64.3962 48.2906 64.7145 48.1577C65.0829 47.9916 65.2671 47.8919 67.5951 46.4965C68.3488 46.048 69.002 45.6825 69.069 45.6825C69.1192 45.6825 69.6384 45.4001 70.2078 45.0513C70.794 44.7024 71.6816 44.1874 72.1841 43.905C72.6865 43.6393 74.5623 42.5761 76.3544 41.5628C78.1296 40.5328 79.6202 39.7022 79.637 39.7022C79.6705 39.7022 80.3236 39.3368 81.094 38.8717C81.8645 38.4231 82.5679 38.0411 82.6684 38.0411C82.9363 38.0411 83.0703 38.6059 83.0703 39.7355C83.0703 40.267 83.1373 40.699 83.2043 40.699C83.288 40.699 84.4437 40.0511 85.7668 39.2703C87.0899 38.4896 88.3292 37.7753 88.5134 37.6922C88.6977 37.6092 88.9656 37.4763 89.0996 37.3766C90.004 36.7952 91.93 35.7154 92.0808 35.7154C92.1813 35.7154 92.2817 35.649 92.3152 35.5825C92.3655 35.4496 93.9565 34.4529 94.526 34.2037C94.727 34.1207 95.1122 33.9047 95.3801 33.722C95.6648 33.5393 96.0166 33.3399 96.184 33.2901C96.4353 33.207 96.4688 33.0243 96.4353 32.3432C96.385 31.5458 96.3515 31.4794 95.8491 31.3465C95.4304 31.2136 95.1624 31.28 94.4255 31.6289C93.4541 32.094 91.9635 32.908 90.406 33.805C89.87 34.1207 89.3843 34.3865 89.3508 34.3865C89.3173 34.3865 88.9656 34.5858 88.5637 34.835C87.5085 35.5161 87.2573 35.6656 86.3362 36.1307C85.884 36.3799 85.348 36.6623 85.1638 36.7619C84.9796 36.8782 84.4772 37.1606 84.0417 37.4098C83.6063 37.6756 83.1876 37.8749 83.0871 37.8749C82.9531 37.8749 82.9028 36.7619 82.9028 34.4197C82.9028 31.2634 82.8693 30.9312 82.6014 30.682C82.4339 30.5159 82.2329 30.3996 82.1827 30.3996C82.1157 30.3996 81.563 30.1006 80.9601 29.7185C80.3404 29.3531 79.6705 28.971 79.4862 28.8879C79.2853 28.8049 78.5148 28.373 77.7444 27.9244L76.3711 27.1437L76.7396 26.7948C77.1248 26.4626 80.8093 24.2532 80.9936 24.2532C81.0438 24.2532 81.429 24.0207 81.8477 23.7549C82.2497 23.4725 82.6181 23.2565 82.6516 23.2565C82.6851 23.2565 83.288 22.9243 83.958 22.509C85.3146 21.695 85.5658 21.6452 86.1352 21.994C87.542 22.8745 89.803 22.6917 91.0926 21.612C92.2147 20.6817 92.533 19.9508 92.533 18.356C92.533 17.2098 92.466 16.9274 92.064 16.2463C90.7744 14.0536 87.6425 13.5386 85.6495 15.1832C84.6781 15.9805 84.2092 16.9939 84.092 18.5221L83.9915 19.685L82.8191 20.3827C82.1827 20.7647 81.429 21.1967 81.1443 21.3462C80.8763 21.4957 80.5246 21.6784 80.3906 21.7615C79.9719 22.0272 77.6439 23.3562 77.376 23.4725C77.242 23.5389 76.7563 23.8213 76.2874 24.1037C75.8352 24.3695 75.2155 24.7018 74.9308 24.8346C74.3446 25.1004 73.8589 25.6154 74.1101 25.6985C74.5121 25.8314 75.9357 26.8447 76.0026 27.0274C76.0361 27.1437 75.9189 27.2932 75.7514 27.3596C75.4667 27.4759 73.256 28.7052 72.6865 29.0707C72.5525 29.1703 72.3181 29.2866 72.1841 29.3531C72.0501 29.4195 70.995 30.0175 69.8394 30.682C68.6837 31.3465 67.6286 31.9611 67.4946 32.0442C67.1597 32.2269 67.0089 32.5259 66.0041 35.0509C65.8031 35.5493 65.5686 36.1141 65.4849 36.2968C65.4179 36.4795 65.1834 37.0443 64.9824 37.5427C64.7982 38.0411 64.5637 38.6059 64.4967 38.7886C64.413 38.9713 64.212 39.4531 64.0445 39.8684C63.6928 40.7322 63.3579 41.1807 62.8889 41.38C62.7047 41.4631 62.286 41.6957 61.9678 41.8784C61.6496 42.0777 60.8122 42.5263 60.1255 42.8917C59.4388 43.2572 58.4172 43.7888 57.8645 44.0878C57.3118 44.3868 56.0725 45.0513 55.1011 45.5496C54.1297 46.0646 52.8568 46.7457 52.2539 47.0779C51.651 47.4101 50.7968 47.8753 50.3279 48.1078C49.8757 48.3404 49.0383 48.7723 48.4856 49.0713C46.861 49.9351 44.3488 51.2641 43.5784 51.6628C42.8415 52.0448 42.7913 52.1445 42.6405 53.623C42.5065 55.0184 41.6022 56.231 40.1618 56.9786C39.3244 57.4105 37.2644 57.4437 36.4605 57.045C35.4724 56.53 34.8192 55.932 34.3167 55.0848C33.898 54.3539 33.8311 54.0715 33.8311 52.9585C33.8311 51.6462 34.0655 50.9318 34.8024 50.068C35.8241 48.8388 37.6329 48.2407 39.2407 48.6228C39.7934 48.7391 40.4465 48.9883 40.6978 49.171C40.949 49.3537 41.2504 49.5032 41.3677 49.5032C41.5687 49.5032 43.1765 48.7391 44.7173 47.8919C45.2197 47.6261 46.2414 47.0779 46.9783 46.6792C47.7152 46.2971 48.5693 45.8154 48.9043 45.6327C49.2225 45.4499 50.0599 45.0014 50.7466 44.636C53.4095 43.2406 54.8666 42.4598 55.436 42.1442C55.7543 41.9615 56.9601 41.3302 58.1157 40.7322C60.7787 39.3534 61.4653 38.9215 61.5658 38.5726C61.6663 38.2902 62.1855 36.9613 62.4535 36.2968C62.5372 36.1141 62.7214 35.6323 62.8889 35.217C63.0397 34.8017 63.2741 34.2369 63.3914 33.9712C63.5086 33.6888 63.7096 33.1738 63.8603 32.8083C64.7647 30.4494 64.7145 30.5325 66.0041 29.7185C66.6907 29.3032 67.7794 28.672 68.4158 28.3231C69.069 27.9743 69.8729 27.5092 70.2078 27.2932C70.5595 27.0939 70.8777 26.9111 70.9447 26.9111C71.0285 26.9111 72.9378 25.8147 73.1722 25.632C73.2727 25.549 72.653 24.9177 72.4688 24.9177C72.3851 24.9177 71.7654 24.6021 71.1122 24.2034C70.459 23.8047 69.8059 23.4392 69.6719 23.3728C69.5379 23.3064 69.0522 23.024 68.5833 22.7416C68.1311 22.4758 67.5281 22.1269 67.2434 21.994C66.9754 21.8611 66.5232 21.612 66.2385 21.4292C65.9706 21.2465 65.6189 21.0471 65.4849 20.9807C65.3509 20.9142 64.4967 20.4325 63.5923 19.9009C62.6712 19.3694 61.9175 18.9374 61.884 18.9374C61.8505 18.9374 61.0801 18.5055 60.1757 17.974C59.2713 17.4424 58.4172 16.9606 58.2832 16.8942C58.1492 16.8277 57.8143 16.6284 57.5295 16.4457C57.2616 16.2629 56.9099 16.0636 56.7759 16.0138C55.8212 15.5819 55.1178 15.0669 55.2351 14.8675C55.3356 14.6516 56.5247 13.7878 56.6921 13.7878C56.7424 13.7878 57.2616 13.4888 57.8645 13.1233C58.8861 12.5087 59.69 12.2927 59.824 12.5751C59.958 12.9073 61.2141 13.2894 62.152 13.2894C64.1618 13.2894 65.7863 12.0601 66.3893 10.0999C66.6572 9.21951 66.6572 9.10323 66.3893 8.15635C66.0711 6.97691 65.1834 5.86392 64.145 5.33234C63.2239 4.86721 61.1639 4.8506 60.2762 5.31573ZM63.8938 7.35899C65.0829 8.53843 64.9154 10.2495 63.5253 11.1465C61.8003 12.2761 59.3216 10.4156 59.958 8.45537C60.092 8.0899 60.4437 7.57494 60.7452 7.29254C61.2309 6.87724 61.4318 6.8108 62.3195 6.8108C63.2574 6.8108 63.3914 6.86064 63.8938 7.35899ZM89.3508 16.13C90.6069 16.7945 91.1764 17.9407 90.7744 18.9707C89.8868 21.18 87.3076 21.3295 86.2357 19.2365C85.6495 18.0902 86.2357 16.6782 87.5588 16.0802C88.3627 15.6981 88.5469 15.7147 89.3508 16.13ZM59.3718 20.1667C60.5107 20.6817 61.5491 21.8611 61.8003 22.9575C62.3195 25.0838 61.4151 27.1271 59.5393 28.1238C58.5679 28.6388 56.4744 28.6388 55.4695 28.1072C55.0843 27.9078 54.6489 27.7417 54.5149 27.7417C54.2972 27.7417 53.2755 28.2401 52.2874 28.8215C52.1367 28.9212 51.4835 29.2866 50.8303 29.6521C50.1939 30.0175 49.5072 30.3996 49.323 30.5159C49.1388 30.6322 48.8708 30.7817 48.7368 30.8481C48.6028 30.9146 47.9329 31.28 47.263 31.6787C46.5931 32.0774 46.0069 32.393 45.9399 32.393C45.8729 32.393 45.7054 32.4927 45.5714 32.6256C45.4207 32.7419 44.9685 33.0409 44.5498 33.2568C44.1311 33.4894 41.8366 34.7851 39.4417 36.1307C37.0467 37.4929 34.6685 38.8218 34.166 39.0876C33.6636 39.37 32.9602 39.7687 32.6252 39.9846C32.2735 40.2006 31.9553 40.3667 31.905 40.3667C31.838 40.3667 31.5366 40.5661 31.2184 40.8152C30.7327 41.1807 30.6489 41.3302 30.7327 41.7123C30.8834 42.3768 30.4312 43.9217 29.845 44.7024C29.1584 45.6161 28.4382 46.1144 27.3161 46.4467C25.3063 47.0447 22.9448 45.9483 22.0907 44.0379C21.6385 43.0246 21.6552 41.0976 22.1074 40.2504C22.9616 38.6723 24.2512 37.8583 26.0432 37.7587C27.0816 37.6922 27.3328 37.742 28.1702 38.174L29.1416 38.6557L30.3977 37.9414C31.0844 37.5427 31.6706 37.2105 31.7208 37.2105C31.7543 37.2105 32.7424 36.6457 33.898 35.9646C35.0537 35.2835 36.0418 34.7187 36.0753 34.7187C36.1088 34.7187 36.695 34.4031 37.3816 34.0044C38.0516 33.6057 38.7215 33.2402 38.8555 33.1738C38.9895 33.1073 39.2239 32.9911 39.3579 32.8914C39.8269 32.5924 42.2218 31.2302 42.2888 31.2302C42.3391 31.2302 42.8415 30.9478 43.4109 30.599C43.9971 30.2501 44.8848 29.7351 45.3872 29.4527C46.2916 28.971 47.263 28.4228 51.0815 26.2467L53.0076 25.1503L53.1081 23.9044C53.2253 22.21 53.7947 21.2797 55.2183 20.3827C56.0222 19.8677 56.2734 19.8179 57.5295 19.7846C58.2665 19.768 58.7689 19.8843 59.3718 20.1667ZM75.3662 53.7559C76.9405 54.6031 78.0124 56.4802 77.8449 58.0417C77.7109 59.1713 76.9405 60.5335 76.0529 61.1647C74.5958 62.2113 73.0885 62.394 71.4472 61.7129L70.459 61.3143L69.6049 61.7794C67.3774 63.0087 63.6593 64.9689 63.0229 65.2679C62.7214 65.4008 62.4367 65.6333 62.3697 65.7662C62.1353 66.3643 61.6831 68.474 61.2979 70.8993C61.2141 71.381 61.0801 72.1286 60.9796 72.5605C60.7954 73.4077 60.36 75.7666 60.2092 76.8297C59.9915 78.3082 59.69 79.2717 59.3718 79.5707C59.1876 79.7368 58.6182 80.0856 58.1157 80.368C57.6133 80.6338 56.8596 81.0491 56.4409 81.2651C55.0173 82.0458 53.3425 82.9429 52.7396 83.2419C51.9022 83.6572 51.8185 83.8399 51.785 85.0194C51.7515 86.6972 50.8471 88.1258 49.3397 88.9231C48.3684 89.4215 46.2581 89.4215 45.2867 88.9065C44.3991 88.458 43.6287 87.6939 43.1765 86.83C42.6908 85.8666 42.6908 83.9064 43.1932 82.9429C43.8464 81.6638 45.0355 80.7667 46.4758 80.4511C47.1793 80.3016 49.0718 80.5508 49.457 80.8498C50.0599 81.3149 50.0767 81.3149 53.6775 79.4046C54.5986 78.9062 55.7208 78.3248 56.173 78.0922C56.6252 77.8597 57.0104 77.5939 57.0271 77.4942C57.1946 76.8796 57.965 73.0588 58.3669 70.9325C58.5177 70.1518 58.7354 69.0388 58.8694 68.4407C59.0201 67.8427 59.1206 67.2115 59.1206 67.0287C59.1206 66.846 59.2546 66.1151 59.4053 65.3842C59.757 63.8559 59.824 63.806 62.3865 62.4439C63.3076 61.9621 64.48 61.3309 64.9992 61.0651C65.5016 60.7827 66.54 60.2179 67.2937 59.8192L68.667 59.0717V58.1082C68.667 56.0981 69.6216 54.5366 71.3969 53.6562C72.3181 53.1911 72.5525 53.1412 73.4569 53.2077C74.1604 53.2575 74.7633 53.4402 75.3662 53.7559ZM53.0578 63.0751C54.1297 63.4073 55.3021 64.3708 55.8212 65.3509C56.2567 66.1815 56.3404 68.2746 55.9385 69.0388C55.4528 69.9856 54.7159 70.783 53.8617 71.2648C53.1248 71.6967 52.8401 71.7631 51.7515 71.7631C50.9811 71.7465 50.3279 71.6634 50.0767 71.5139C49.8422 71.381 49.524 71.2814 49.3397 71.2648C49.0885 71.2648 47.4305 72.1452 46.2246 72.9259C46.0906 73.0256 45.8227 73.1585 45.6217 73.2416C45.3035 73.3745 43.3774 74.5041 42.7075 74.9194C42.5735 75.019 42.3056 75.1519 42.1046 75.235C41.7864 75.3679 39.8604 76.4975 39.1904 76.9128C39.0564 77.0124 38.755 77.162 38.5373 77.245C38.219 77.3945 38.1688 77.5108 38.2358 77.9593C38.42 79.0723 37.8841 80.5342 36.9462 81.5309C36.0585 82.4944 35.2881 82.7768 33.6468 82.7768C32.307 82.7768 32.173 82.7435 31.3356 82.212C30.8164 81.8797 30.2302 81.2817 29.8618 80.7501C29.2923 79.9195 29.2756 79.8032 29.2588 78.4245C29.2588 77.162 29.3091 76.9128 29.6943 76.3148C30.5819 74.9194 31.4193 74.3047 32.8094 74.0223C33.8478 73.8064 35.3719 74.0389 36.1088 74.5207C36.494 74.7865 37.4151 74.72 37.5994 74.421C37.6496 74.3379 37.9008 74.1718 38.1521 74.0389C39.1234 73.5406 40.1451 72.9758 40.815 72.5439C41.2169 72.2947 41.5687 72.0953 41.6189 72.0953C41.6691 72.0953 41.9874 71.9292 42.3391 71.7133C42.674 71.4973 43.4779 71.0488 44.0976 70.6999C44.734 70.3511 45.7222 69.8029 46.2749 69.4541L47.3132 68.8228L47.263 67.8925C47.1625 66.3809 47.598 65.1848 48.6196 64.2047C49.9762 62.909 51.3663 62.5601 53.0578 63.0751Z" fill="url(#paint0_linear_17_2)"/>
<path d="M56.3237 22.4094C55.436 23.0572 55.1513 23.7217 55.4193 24.6187C55.7207 25.5988 56.5079 26.2467 57.4123 26.2467C58.8191 26.2467 59.623 25.4826 59.623 24.137C59.623 23.2233 59.3718 22.7748 58.5512 22.2765C57.7808 21.7947 57.1276 21.8446 56.3237 22.4094Z" fill="#FFFDFD"/>
<path d="M25.3063 40.2339C24.8541 40.4664 24.4521 40.8485 24.2344 41.2306C23.933 41.7788 23.9162 41.9117 24.1004 42.5429C24.2177 42.925 24.5359 43.4566 24.7871 43.7224C25.1891 44.1211 25.4068 44.1875 26.1604 44.1875C26.9141 44.1875 27.1486 44.1044 27.6845 43.6725C28.2707 43.1908 28.3042 43.1077 28.3042 42.2107C28.3042 41.0811 28.0195 40.616 27.0648 40.184C26.1939 39.7854 26.1772 39.802 25.3063 40.2339Z" fill="#FFFDFD"/>
<path d="M72.2511 55.7991C71.2294 56.4137 70.9782 57.1779 71.3467 58.4736C71.5979 59.2876 72.2343 59.7029 73.2727 59.7029C74.6795 59.7029 75.3662 58.9886 75.3662 57.4935C75.3662 56.8955 75.2657 56.5965 74.9978 56.2808C74.2273 55.4669 73.1387 55.2675 72.2511 55.7991Z" fill="#FFFDFD"/>
<path d="M46.1074 83.0758C44.734 83.9396 44.868 86.0825 46.3419 86.7802C47.062 87.1124 47.6147 87.1124 48.2846 86.7636C48.9546 86.4314 49.189 86.1323 49.4067 85.3516C49.6412 84.521 49.4737 83.9728 48.7703 83.2917C48.2679 82.81 48.0669 82.7269 47.4137 82.7269C46.928 82.7269 46.4423 82.8598 46.1074 83.0758Z" fill="#FFFDFD"/>
<path d="M50.7968 65.3509C49.0718 66.115 49.3062 68.7563 51.115 69.2547C53.4263 69.8859 54.9168 67.1616 53.1415 65.5835C52.6893 65.1682 51.4667 65.0519 50.7968 65.3509Z" fill="#FFFDFD"/>
<path d="M32.5415 76.4975C31.0509 77.5274 31.2854 79.554 32.9769 80.3016C33.6133 80.6006 33.6636 80.6006 34.4172 80.3182C35.4389 79.9195 35.8408 79.3381 35.8408 78.2583C35.8408 77.5274 35.7738 77.3447 35.2546 76.8297C34.7187 76.3147 34.568 76.2483 33.7808 76.2483C33.2616 76.2483 32.7424 76.348 32.5415 76.4975Z" fill="#FFFDFD"/>
<path d="M261.303 26.0474C261.102 26.0806 260.75 26.3464 260.533 26.6288C260.315 26.9278 257.083 33.2071 253.331 40.5827C247.687 51.7459 246.565 54.0715 246.699 54.3373C246.866 54.6363 247.084 54.653 250.115 54.653C253.247 54.653 253.348 54.6363 253.683 54.2709C254.101 53.8224 254.621 52.809 258.355 45.1011C259.963 41.812 261.337 39.1043 261.42 39.071C261.521 39.0378 261.889 39.6358 262.241 40.4C264.385 44.9516 268.89 53.9719 269.191 54.2875C269.543 54.653 269.593 54.653 272.976 54.6197L276.427 54.5699L276.477 54.1546C276.51 53.8722 274.367 49.5199 269.962 40.8651C266.344 33.7885 263.145 27.6089 262.844 27.1271C262.241 26.1969 261.889 25.9477 261.303 26.0474Z" fill="white"/>
<path d="M118.894 26.529C118.693 26.745 118.66 29.1537 118.61 40.3999C118.593 49.6859 118.626 54.1047 118.744 54.3206C118.911 54.6362 119.112 54.6529 121.993 54.6529C124.639 54.6529 125.091 54.6196 125.292 54.3705C125.476 54.1545 125.543 52.7259 125.61 47.2606L125.694 40.4165L133.063 47.2938C137.116 51.0813 140.734 54.4037 141.086 54.6695C141.873 55.2509 142.576 55.3007 142.928 54.7858C143.162 54.4535 143.196 52.8588 143.196 40.8318C143.196 28.6387 143.162 27.2433 142.928 26.9941C142.693 26.7782 142.208 26.745 139.545 26.7782L136.43 26.828L136.312 27.2433C136.245 27.4759 136.195 30.6321 136.178 34.2535C136.162 37.8915 136.128 40.865 136.078 40.865C136.028 40.865 132.645 37.7586 128.558 33.9711C124.488 30.167 120.887 26.8779 120.586 26.6619C119.933 26.1802 119.229 26.1303 118.894 26.529Z" fill="white"/>
<path d="M151.134 26.8281C150.933 27.3098 150.9 29.4527 150.9 40.6491C150.9 52.3937 150.933 53.9552 151.168 54.2874C151.419 54.6363 151.503 54.6529 154.501 54.6529C157.381 54.6529 157.599 54.6363 157.767 54.3373C157.867 54.1213 157.934 51.5963 157.934 47.2772C157.934 43.5728 158.001 40.5328 158.068 40.5328C158.135 40.5328 161.568 43.6725 165.688 47.5098C169.808 51.3305 173.376 54.6197 173.627 54.819C174.196 55.2509 175.118 55.2675 175.352 54.8356C175.603 54.3373 175.587 27.2101 175.319 26.9443C175.185 26.8114 174.213 26.745 172.086 26.745C169.959 26.745 168.988 26.8114 168.854 26.9443C168.703 27.0938 168.653 28.8879 168.653 34.0044C168.653 37.7753 168.603 40.8651 168.519 40.8651C168.452 40.8651 165.002 37.7088 160.865 33.8549C156.711 30.0175 153.111 26.7284 152.826 26.5457C152.558 26.3795 152.106 26.2466 151.855 26.2466C151.469 26.2466 151.335 26.3629 151.134 26.8281Z" fill="white"/>
<path d="M193.373 26.5789C188.801 27.5424 185.351 30.1505 183.374 34.1539C182.185 36.5461 181.817 38.3734 181.934 41.3635C182.034 43.8719 182.302 45.1344 183.157 46.9783C184.898 50.7658 188.332 53.5732 192.519 54.6696C194.411 55.1513 197.861 55.2842 199.905 54.9187C206.118 53.8556 210.573 49.6362 211.779 43.7058C212.147 41.9615 212.047 38.3567 211.612 36.7122C210.69 33.2735 208.312 30.1339 205.298 28.3896C203.891 27.559 201.395 26.6786 199.804 26.4294C198.113 26.147 195.064 26.2301 193.373 26.5789ZM199.051 32.8084C201.931 33.5559 204.092 35.8816 204.678 38.8385C204.946 40.2173 204.795 42.5097 204.36 43.7224C203.455 46.2308 201.194 48.191 198.649 48.6727C193.339 49.6694 189.085 46.1809 189.085 40.8319C189.085 39.2039 189.32 38.0577 189.94 36.7786C190.844 34.8516 192.636 33.3566 194.612 32.825C195.835 32.5094 197.828 32.4928 199.051 32.8084Z" fill="white"/>
<path d="M104.039 26.9444C103.754 27.2268 103.754 54.1712 104.039 54.4536C104.173 54.5865 105.144 54.653 107.271 54.653C109.398 54.653 110.37 54.5865 110.504 54.4536C110.788 54.1712 110.788 27.2268 110.504 26.9444C110.37 26.8115 109.398 26.7451 107.271 26.7451C105.144 26.7451 104.173 26.8115 104.039 26.9444Z" fill="white"/>
<path d="M215.33 26.8613C215.263 26.9111 215.212 27.1104 215.212 27.2766C215.212 27.6586 228.628 53.9718 229.231 54.7692C229.783 55.5333 230.57 55.5333 231.207 54.7858C231.441 54.5034 234.707 48.1909 238.459 40.7654C244.321 29.1371 245.225 27.2433 245.041 27.0108C244.856 26.7782 244.354 26.745 241.658 26.745C238.626 26.745 238.492 26.7616 238.09 27.1104C237.822 27.343 236.348 30.2002 234.255 34.5525C232.379 38.4397 230.721 41.8285 230.587 42.1109L230.319 42.6093L229.817 41.5295C227.84 37.2437 222.732 27.2599 222.397 27.0274C222.062 26.7948 221.51 26.745 218.713 26.745C216.921 26.745 215.38 26.7948 215.33 26.8613Z" fill="white"/>
<path d="M279.056 26.9444C278.922 27.0773 278.855 27.9909 278.855 29.9345C278.855 32.5094 278.872 32.7253 279.173 32.8914C279.374 32.9911 280.915 33.0576 283.025 33.0576C286.341 33.0576 286.559 33.0742 286.727 33.3732C286.827 33.5891 286.894 37.2105 286.894 43.9715C286.894 51.7459 286.944 54.3041 287.095 54.4536C287.38 54.736 293.275 54.736 293.56 54.4536C293.71 54.3041 293.761 51.7293 293.761 43.8552C293.761 35.9812 293.811 33.4064 293.962 33.2569C294.112 33.1074 295.168 33.0576 297.663 33.0576C299.74 33.0576 301.281 32.9911 301.482 32.8914C301.783 32.7253 301.8 32.5094 301.8 29.9345C301.8 27.9909 301.733 27.0773 301.599 26.9444C301.314 26.662 279.341 26.662 279.056 26.9444Z" fill="white"/>
<path d="M307.327 27.177C307.226 27.4428 307.159 32.5924 307.159 40.699C307.159 48.8056 307.226 53.9553 307.327 54.221L307.494 54.653H316.672C323.589 54.653 325.9 54.6031 326.051 54.4536C326.302 54.2044 326.336 49.0548 326.084 48.6727C325.95 48.4567 325.029 48.4069 320.105 48.3405L314.277 48.2574L314.227 46.1809C314.193 44.3702 314.227 44.0878 314.478 43.9051C314.696 43.739 315.985 43.6891 319.636 43.6891C323.204 43.6891 324.56 43.6393 324.711 43.4898C325.013 43.1908 324.996 38.2072 324.678 37.7753C324.443 37.4763 324.142 37.4597 319.352 37.3766L314.277 37.2936V35.2171V33.1406L319.955 33.0908C324.962 33.0576 325.683 33.0243 325.95 32.7752C326.218 32.5426 326.252 32.2104 326.252 29.8847C326.252 27.7252 326.202 27.2268 325.984 27.0108C325.75 26.7783 324.678 26.7451 316.605 26.7451H307.494L307.327 27.177Z" fill="white"/>
<path d="M36.762 51.4303C36.0083 52.1944 35.8911 52.6595 36.2595 53.5898C36.7452 54.8689 37.9176 55.3839 39.0899 54.8357C40.0781 54.3872 40.3628 53.9386 40.3628 52.8755C40.3628 52.1279 40.2958 51.9452 39.7934 51.4303C39.2742 50.8821 39.1569 50.8322 38.286 50.8322C37.4151 50.8322 37.2979 50.8821 36.762 51.4303Z" fill="white"/>
<path d="M26.3782 51.8288C25.0886 52.0448 24.4187 53.1412 24.7704 54.4369C24.9881 55.2343 25.5743 55.7658 26.3782 55.9154C27.0816 56.0316 28.1032 55.716 28.4884 55.2509C29.1249 54.4867 29.0244 52.892 28.3042 52.2441C27.919 51.8953 27.0481 51.7126 26.3782 51.8288Z" fill="white"/>
<path d="M100.773 59.5866C100.706 59.6364 100.656 60.0517 100.656 60.4836V61.2976L103.469 61.3308L106.266 61.3807L106.317 69.3211L106.35 77.2616L107.489 77.2118L108.611 77.1619L108.661 69.2215L108.695 61.2976H111.458H114.222V60.384V59.4703H107.556C103.888 59.4703 100.823 59.5201 100.773 59.5866Z" fill="#EFEEFF"/>
<path d="M119.698 59.5866C119.631 59.6364 119.581 63.6399 119.581 68.4739V77.245L125.493 77.2118L131.388 77.1619L131.439 76.2981L131.489 75.4177L126.749 75.3845L122.01 75.3346V72.2614V69.1883L126.414 69.1384L130.802 69.1052V68.1915V67.2779H126.364H121.926V64.2878V61.2976L126.582 61.2644L131.221 61.2146V60.384V59.5534L125.51 59.5035C122.378 59.4869 119.765 59.5202 119.698 59.5866Z" fill="#EFEEFF"/>
<path d="M142.576 59.8025C140.985 60.2178 140.131 60.6664 139.059 61.6797C137.468 63.1748 136.781 65.1516 136.798 68.2746C136.815 73.1917 138.841 76.0655 142.945 76.9958C144.502 77.3613 148.086 77.328 149.728 76.946L150.984 76.6636L151.034 75.6336L151.084 74.6203L150.029 74.9525C148.672 75.3845 145.306 75.5506 144.016 75.2516C141.956 74.7864 140.432 73.5904 139.695 71.8627C138.892 70.0354 138.825 66.9124 139.528 65.0353C140.03 63.6897 141.387 62.3275 142.777 61.7794C143.681 61.4305 144.033 61.3807 146.378 61.3973C148.572 61.3973 149.141 61.4471 150.029 61.7461L151.067 62.095V61.1315C151.067 60.1846 151.051 60.1514 150.531 59.9853C148.656 59.3873 144.519 59.2876 142.576 59.8025Z" fill="#EFEEFF"/>
<path d="M157.683 59.6697C157.633 59.7859 157.616 63.7728 157.633 68.5238L157.683 77.1619H158.771H159.86L159.944 73.1751L160.028 69.1882H165.219H170.411L170.462 73.2249L170.495 77.2616L171.634 77.2118L172.756 77.1619V68.3577V59.5534L171.634 59.5035L170.495 59.4537V63.3741V67.2779H165.219H159.944L159.91 63.4073L159.86 59.5534L158.805 59.5035C158.068 59.4703 157.733 59.5202 157.683 59.6697Z" fill="#EFEEFF"/>
<path d="M179.824 59.5866C179.757 59.6364 179.707 63.6399 179.707 68.4739V77.245H180.795H181.884L181.917 70.0521L181.968 62.8758L187.143 69.6866C189.99 73.4243 192.469 76.6636 192.653 76.8629C192.937 77.1785 193.172 77.245 194.06 77.245H195.115V68.3577V59.4537L194.076 59.5035L193.021 59.5534L192.937 66.5968L192.854 73.6402L187.444 66.547L182.018 59.4703H180.979C180.393 59.4703 179.874 59.5202 179.824 59.5866Z" fill="#EFEEFF"/>
<path d="M207.341 59.7361C203.355 60.7826 201.479 63.5402 201.479 68.3576C201.479 73.1917 203.472 76.0987 207.408 76.9958C208.882 77.328 211.829 77.3446 213.286 76.9958C216.217 76.3313 218.16 74.4043 218.914 71.4308C219.265 70.052 219.215 66.2978 218.83 65.0353C217.926 62.0783 216.184 60.3839 213.353 59.7195C211.963 59.4038 208.597 59.4038 207.341 59.7361ZM213.504 61.8624C215.765 62.8923 216.72 64.8359 216.72 68.4075C216.72 72.0953 215.413 74.3213 212.817 75.102C211.896 75.3844 211.344 75.4509 209.887 75.401C208.346 75.3346 207.96 75.2681 207.14 74.8695C204.695 73.6734 203.522 70.7165 203.991 66.9124C204.477 62.9588 206.503 61.2478 210.607 61.3474C212.215 61.3806 212.583 61.4471 213.504 61.8624Z" fill="#EFEEFF"/>
<path d="M225.529 59.7361C225.395 60.0684 225.395 76.647 225.529 76.9792C225.613 77.2118 226.3 77.245 231.391 77.245H237.152V76.3313V75.4177L232.513 75.3845L227.857 75.3346L227.807 67.3942L227.773 59.4703H226.702C225.881 59.4703 225.613 59.5368 225.529 59.7361Z" fill="#EFEEFF"/>
<path d="M247.871 59.7361C245.041 60.4836 243.466 61.8956 242.478 64.5535C242.16 65.4007 242.11 65.8825 242.11 68.1915C242.093 71.1152 242.227 71.8794 243.064 73.4575C244.388 75.9991 246.983 77.2616 250.886 77.2616C254.956 77.2616 257.468 75.9659 258.791 73.1751C260.097 70.3843 260.047 66.0984 258.674 63.3575C257.736 61.4471 256.262 60.3507 253.817 59.7195C252.527 59.3873 249.144 59.4039 247.871 59.7361ZM254.152 61.9621C255.023 62.394 255.491 62.7595 255.944 63.3575C256.932 64.6864 257.166 65.6499 257.166 68.4407C257.15 70.5504 257.099 70.9657 256.764 71.8129C256.178 73.2914 255.475 74.0887 254.168 74.7532C253.029 75.3346 252.996 75.3346 250.819 75.3346C248.859 75.3346 248.524 75.2848 247.737 74.9359C246.515 74.3877 245.325 73.0588 244.856 71.7299C244.153 69.6866 244.237 66.3642 245.041 64.5037C245.426 63.5901 246.598 62.3442 247.352 62.0119C248.792 61.3973 249.311 61.2976 251.137 61.3475C252.879 61.3807 253.063 61.4139 254.152 61.9621Z" fill="#EFEEFF"/>
<path d="M271.017 59.8025C268.019 60.5833 266.177 62.4106 265.44 65.2844C265.138 66.4473 265.138 69.8859 265.44 71.0986C265.976 73.2747 267.517 75.3346 269.292 76.2317C271.352 77.2782 275.422 77.5938 278.085 76.9127C278.822 76.73 279.441 76.5805 279.475 76.5805C279.491 76.5805 279.525 74.9359 279.525 72.9259V69.2713H278.353H277.18V72.2448V75.2183L276.075 75.3346C274.4 75.5173 272.374 75.3512 271.302 74.9359C268.655 73.9392 267.282 71.1983 267.517 67.4606C267.701 64.1881 269.175 62.2943 272.072 61.5468C273.512 61.1813 276.309 61.2145 277.934 61.6298C278.654 61.8126 279.307 61.9621 279.391 61.9621C279.458 61.9621 279.525 61.5634 279.525 61.065C279.525 60.1846 279.508 60.1514 278.989 59.9853C277.096 59.3872 272.976 59.2876 271.017 59.8025Z" fill="#EFEEFF"/>
<path d="M286.392 68.3577V77.2616L287.53 77.2118L288.653 77.1619V68.3577V59.5534L287.53 59.5035L286.392 59.4537V68.3577Z" fill="#EFEEFF"/>
<path d="M296.022 59.6697C295.971 59.786 295.955 63.7728 295.971 68.5238L296.022 77.1619L301.934 77.2118L307.829 77.245V76.3313V75.4177L303.106 75.3845L298.366 75.3346V72.2614V69.1883L302.805 69.1052L307.243 69.0221V68.1915V67.3609L302.754 67.3111L298.283 67.2779L298.316 64.321L298.366 61.3807L303.022 61.3309L307.678 61.2976L307.628 60.4172L307.578 59.5534L301.833 59.5035C297.328 59.4703 296.072 59.5035 296.022 59.6697Z" fill="#EFEEFF"/>
<path d="M317.878 59.5867C316.706 59.786 315.332 60.3674 314.629 60.9821C312.77 62.61 312.669 66.1816 314.445 67.876C315.516 68.9059 316.32 69.1219 319.653 69.2548C322.752 69.3877 323.254 69.5206 323.957 70.4674C324.376 71.0156 324.527 72.4941 324.259 73.3081C323.974 74.122 323.087 74.853 321.948 75.1852C320.658 75.5507 317.191 75.4344 315.299 74.936C314.579 74.7533 313.925 74.637 313.842 74.6868C313.607 74.8197 313.657 76.348 313.909 76.5474C314.713 77.1786 320.524 77.4776 322.668 76.9959C325.498 76.3646 326.922 74.4543 326.721 71.6136C326.62 70.2681 326.168 69.3544 325.214 68.5405C324.192 67.66 323.237 67.4441 320.038 67.2946C317.727 67.1949 317.175 67.1284 316.689 66.846C315.835 66.3643 315.5 65.5835 315.567 64.2878C315.634 62.9755 316.069 62.311 317.191 61.7462C317.895 61.414 318.196 61.3808 320.641 61.3808C322.902 61.3808 323.522 61.4472 324.627 61.7628C325.331 61.9622 325.951 62.1283 326.001 62.1283C326.051 62.1283 326.084 61.6798 326.084 61.1482C326.084 60.002 326.168 60.0684 324.008 59.7196C322.618 59.487 318.916 59.4206 317.878 59.5867Z" fill="#EFEEFF"/>
<path d="M14.621 62.3109C13.3314 62.6764 12.7955 64.3874 13.6162 65.5668C14.5038 66.8792 16.7145 66.6466 17.3342 65.1848C17.6524 64.4206 17.6524 64.105 17.3175 63.4239C16.8485 62.4438 15.7599 61.9953 14.621 62.3109Z" fill="white"/>
<defs>
<linearGradient id="paint0_linear_17_2" x1="5" y1="79.5" x2="85.5" y2="18" gradientUnits="userSpaceOnUse">
<stop offset="0.005" stop-color="white"/>
<stop offset="1" stop-color="#EFEEFF"/>
</linearGradient>
</defs>
</svg>
