<svg width="1280" height="69" viewBox="0 0 1280 69" fill="none" xmlns="http://www.w3.org/2000/svg">
<mask id="mask0_20_86" style="mask-type:luminance" maskUnits="userSpaceOnUse" x="0" y="0" width="1280" height="68">
<path d="M1280 0H0V67.0833H1280V0Z" fill="white"/>
</mask>
<g mask="url(#mask0_20_86)">
<path d="M0 26.8335C0 17.4408 0 12.7445 1.68492 9.15703C3.16703 6.0014 5.53195 3.43579 8.44073 1.82791C11.7476 0 16.0765 0 24.7342 0H1255.26C1263.92 0 1268.25 0 1271.56 1.82791C1274.47 3.43579 1276.83 6.0014 1278.31 9.15703C1280 12.7445 1280 17.4408 1280 26.8332V67.0833H0V26.8335Z" fill="#25334D"/>
<mask id="mask1_20_86" style="mask-type:luminance" maskUnits="userSpaceOnUse" x="1106" y="11" width="150" height="41">
<path d="M1255.27 11.7396H1106.86V51.9897H1255.27V11.7396Z" fill="white"/>
</mask>
<g mask="url(#mask1_20_86)">
<path d="M1125.42 35.8453C1126.08 35.8453 1126.61 35.2612 1126.61 34.5658V20.5737L1126.53 18.5153L1127.31 19.5306L1129.1 21.603C1129.31 21.8534 1129.6 21.9784 1129.89 21.9784C1130.48 21.9784 1130.97 21.5195 1130.97 20.8658C1130.97 20.5181 1130.84 20.2677 1130.63 20.0313L1126.33 15.5388C1126.03 15.205 1125.73 15.0938 1125.42 15.0938C1125.1 15.0938 1124.82 15.205 1124.51 15.5388L1120.21 20.0313C1119.99 20.2677 1119.86 20.5181 1119.86 20.8658C1119.86 21.5195 1120.34 21.9784 1120.93 21.9784C1121.22 21.9784 1121.53 21.8534 1121.73 21.603L1123.53 19.5306L1124.32 18.5014L1124.22 20.5737V34.5658C1124.22 35.2612 1124.76 35.8453 1125.42 35.8453ZM1118.03 46.9584H1132.79C1135.57 46.9584 1137.01 45.4005 1137.01 42.4242V28.7521C1137.01 25.7756 1135.57 24.2177 1132.79 24.2177H1129.33V26.9857H1132.62C1133.79 26.9857 1134.46 27.6533 1134.46 28.9884V42.1739C1134.46 43.509 1133.79 44.1766 1132.62 44.1766H1118.2C1117.02 44.1766 1116.37 43.509 1116.37 42.1739V28.9884C1116.37 27.6533 1117.02 26.9857 1118.2 26.9857H1121.53V24.2177H1118.03C1115.26 24.2177 1113.82 25.7616 1113.82 28.7521V42.4242C1113.82 45.4005 1115.26 46.9584 1118.03 46.9584Z" fill="#B7B7B7"/>
<path d="M1179.52 43.6044C1180.33 43.6044 1180.99 42.887 1180.99 42.073V33.4374H1188.88C1189.67 33.4374 1190.34 32.7339 1190.34 31.8647C1190.34 31.0095 1189.67 30.2921 1188.88 30.2921H1180.99V21.6563C1180.99 20.8287 1180.33 20.1251 1179.52 20.1251C1178.71 20.1251 1178.04 20.8287 1178.04 21.6563V30.2921H1170.16C1169.39 30.2921 1168.7 31.0095 1168.7 31.8647C1168.7 32.7339 1169.39 33.4374 1170.16 33.4374H1178.04V42.073C1178.04 42.887 1178.71 43.6044 1179.52 43.6044Z" fill="#B7B7B7"/>
<path d="M1227.02 40.3085H1229.2V42.4081C1229.2 45.3837 1230.65 46.9412 1233.42 46.9412H1246.41C1249.18 46.9412 1250.63 45.3837 1250.63 42.4081V28.2111C1250.63 25.2355 1249.18 23.6782 1246.41 23.6782H1244.23V21.5925C1244.23 18.6168 1242.78 17.0594 1240.02 17.0594H1227.02C1224.24 17.0594 1222.8 18.6168 1222.8 21.5925V35.7754C1222.8 38.7651 1224.24 40.3085 1227.02 40.3085ZM1227.19 37.5414C1226.01 37.5414 1225.35 36.8738 1225.35 35.5251V21.8428C1225.35 20.494 1226.01 19.8404 1227.19 19.8404H1239.85C1241.02 19.8404 1241.68 20.494 1241.68 21.8428V23.6782H1233.42C1230.65 23.6782 1229.2 25.2355 1229.2 28.2111V37.5414H1227.19ZM1233.58 44.16C1232.4 44.16 1231.76 43.4927 1231.76 42.1577V28.4614C1231.76 27.1265 1232.4 26.4591 1233.58 26.4591H1246.25C1247.42 26.4591 1248.08 27.1265 1248.08 28.4614V42.1577C1248.08 43.4927 1247.42 44.16 1246.25 44.16H1233.58Z" fill="#B7B7B7"/>
</g>
<mask id="mask2_20_86" style="mask-type:luminance" maskUnits="userSpaceOnUse" x="148" y="11" width="152" height="41">
<path d="M299.903 11.7396H148.406V51.9897H299.903V11.7396Z" fill="white"/>
</mask>
<g mask="url(#mask2_20_86)">
<path d="M155.719 46.1436H177.675C180.46 46.1436 181.91 44.5846 181.91 41.6053V24.6634C181.91 21.6844 180.46 20.1251 177.675 20.1251H155.719C152.947 20.1251 151.498 21.6704 151.498 24.6634V41.6053C151.498 44.5846 152.947 46.1436 155.719 46.1436ZM155.886 43.3734C154.705 43.3734 154.051 42.7052 154.051 41.3548V24.914C154.051 23.5635 154.705 22.8955 155.886 22.8955H161.738V43.3734H155.886ZM177.508 22.8955C178.689 22.8955 179.343 23.5635 179.343 24.914V41.3548C179.343 42.7052 178.689 43.3734 177.508 43.3734H164.163V22.8955H177.508ZM159.222 27.9905C159.684 27.9905 160.069 27.5591 160.069 27.0858C160.069 26.6123 159.684 26.1948 159.222 26.1948H156.592C156.13 26.1948 155.745 26.6123 155.745 27.0858C155.745 27.5591 156.13 27.9905 156.592 27.9905H159.222ZM159.222 31.7353C159.684 31.7353 160.069 31.3176 160.069 30.8305C160.069 30.3572 159.684 29.9396 159.222 29.9396H156.592C156.13 29.9396 155.745 30.3572 155.745 30.8305C155.745 31.3176 156.13 31.7353 156.592 31.7353H159.222ZM159.222 35.4663C159.684 35.4663 160.069 35.0624 160.069 34.5753C160.069 34.102 159.684 33.6981 159.222 33.6981H156.592C156.13 33.6981 155.745 34.102 155.745 34.5753C155.745 35.0624 156.13 35.4663 156.592 35.4663H159.222Z" fill="#B7B7B7"/>
<path d="M230.955 43.7616L221.557 33.7909C221.231 33.437 221.062 33.0439 221.062 32.5853C221.062 32.1269 221.231 31.7075 221.569 31.3668L230.966 21.4092C231.233 21.121 231.571 20.9637 231.956 20.9637C232.765 20.9637 233.393 21.6451 233.393 22.5098C233.393 22.929 233.236 23.3352 232.958 23.6367L224.505 32.5724L232.958 41.5342C233.236 41.8356 233.393 42.2287 233.393 42.661C233.393 43.5257 232.765 44.2071 231.956 44.2071C231.571 44.2071 231.233 44.0499 230.955 43.7616Z" fill="#B7B7B7"/>
<path d="M277.378 44.2071C277.778 44.2071 278.104 44.0499 278.382 43.7616L287.777 33.804C288.103 33.437 288.272 33.0571 288.272 32.5853C288.272 32.1269 288.115 31.7207 287.777 31.38L278.382 21.4092C278.104 21.121 277.778 20.9637 277.378 20.9637C276.569 20.9637 275.941 21.6451 275.941 22.5098C275.941 22.929 276.11 23.3352 276.377 23.6367L284.844 32.5985L276.377 41.5342C276.098 41.8488 275.941 42.2287 275.941 42.661C275.941 43.5257 276.569 44.2071 277.378 44.2071Z" fill="#5A5A5A"/>
</g>
<mask id="mask3_20_86" style="mask-type:luminance" maskUnits="userSpaceOnUse" x="30" y="23" width="82" height="21">
<path d="M111.304 23.4792H30.9178V43.6042H111.304V23.4792Z" fill="white"/>
</mask>
<g mask="url(#mask3_20_86)">
<path d="M40.1932 43.6043C45.3158 43.6043 49.4685 39.0991 49.4685 33.5418C49.4685 27.9844 45.3158 23.4792 40.1932 23.4792C35.0705 23.4792 30.9178 27.9844 30.9178 33.5418C30.9178 39.0991 35.0705 43.6043 40.1932 43.6043Z" fill="#ED6A5E"/>
<path d="M40.1932 42.7658C44.889 42.7658 48.6956 38.6361 48.6956 33.5418C48.6956 28.4476 44.889 24.3179 40.1932 24.3179C35.4974 24.3179 31.6908 28.4476 31.6908 33.5418C31.6908 38.6361 35.4974 42.7658 40.1932 42.7658Z" stroke="black" stroke-opacity="0.1" stroke-width="0.777778"/>
<path d="M71.1112 43.6043C76.2338 43.6043 80.3865 39.0991 80.3865 33.5418C80.3865 27.9844 76.2338 23.4792 71.1112 23.4792C65.9885 23.4792 61.8358 27.9844 61.8358 33.5418C61.8358 39.0991 65.9885 43.6043 71.1112 43.6043Z" fill="#F4BD50"/>
<path d="M71.1112 42.7658C75.8069 42.7658 79.6136 38.6361 79.6136 33.5418C79.6136 28.4476 75.8069 24.3179 71.1112 24.3179C66.4154 24.3179 62.6087 28.4476 62.6087 33.5418C62.6087 38.6361 66.4154 42.7658 71.1112 42.7658Z" stroke="black" stroke-opacity="0.1" stroke-width="0.777778"/>
<path d="M102.029 43.6043C107.152 43.6043 111.304 39.0991 111.304 33.5418C111.304 27.9844 107.152 23.4792 102.029 23.4792C96.9063 23.4792 92.7536 27.9844 92.7536 33.5418C92.7536 39.0991 96.9063 43.6043 102.029 43.6043Z" fill="#61C454"/>
<path d="M102.029 42.7658C106.725 42.7658 110.531 38.6361 110.531 33.5418C110.531 28.4476 106.725 24.3179 102.029 24.3179C97.3332 24.3179 93.5265 28.4476 93.5265 33.5418C93.5265 38.6361 97.3332 42.7658 102.029 42.7658Z" stroke="black" stroke-opacity="0.1" stroke-width="0.777778"/>
</g>
<path d="M439.034 46.9584C439.265 46.9584 439.608 46.8743 439.928 46.6781C447.296 42.2929 449.854 40.2615 449.854 35.1617V24.5843C449.854 22.903 449.254 22.3006 447.974 21.6981C446.555 21.0397 441.783 19.2184 440.39 18.7001C439.968 18.5459 439.469 18.4479 439.034 18.4479C438.599 18.4479 438.1 18.574 437.679 18.7001C436.283 19.1344 431.513 21.0537 430.092 21.6981C428.814 22.2866 428.212 22.903 428.212 24.5843V35.1617C428.212 40.2615 430.784 42.2649 438.126 46.6781C438.458 46.8743 438.803 46.9584 439.034 46.9584ZM439.724 21.2779C441.399 22.0065 445.046 23.4214 446.964 24.164C447.322 24.3182 447.412 24.5282 447.412 25.0325V34.6434C447.412 38.7484 445.531 39.8553 439.763 43.666C439.404 43.904 439.225 43.9881 439.046 43.9881V21.1238C439.225 21.1238 439.418 21.1658 439.724 21.2779Z" fill="#B7B7B7"/>
<mask id="mask4_20_86" style="mask-type:luminance" maskUnits="userSpaceOnUse" x="465" y="10" width="350" height="48">
<path d="M814.686 10.0624H465.314V57.0208H814.686V10.0624Z" fill="white"/>
</mask>
<g mask="url(#mask4_20_86)">
<path d="M465.314 26.1624C465.314 20.5268 465.314 17.7091 466.325 15.5566C467.214 13.6632 468.633 12.1238 470.378 11.1591C472.362 10.0624 474.96 10.0624 480.155 10.0624H799.845C805.04 10.0624 807.638 10.0624 809.622 11.1591C811.367 12.1238 812.786 13.6632 813.675 15.5566C814.686 17.7091 814.686 20.5268 814.686 26.1624V40.9206C814.686 46.5562 814.686 49.374 813.675 51.5266C812.786 53.4198 811.367 54.9593 809.622 55.924C807.638 57.0207 805.04 57.0207 799.845 57.0207H480.155C474.96 57.0207 472.362 57.0207 470.378 55.924C468.633 54.9593 467.214 53.4198 466.325 51.5266C465.314 49.374 465.314 46.5562 465.314 40.9206V26.1624Z" fill="#3C5175"/>
<mask id="mask5_20_86" style="mask-type:luminance" maskUnits="userSpaceOnUse" x="786" y="21" width="21" height="25">
<path d="M806.184 21.802H786.087V45.2812H806.184V21.802Z" fill="white"/>
</mask>
<g mask="url(#mask5_20_86)">
<path d="M795.872 33.0927C796.136 33.0927 796.343 33.0043 796.506 32.8176L800.221 28.7591C800.419 28.543 800.511 28.3071 800.511 28.032C800.511 27.7668 800.411 27.5113 800.221 27.3146L796.506 23.2169C796.343 23.0204 796.136 22.9221 795.872 22.9221C795.383 22.9221 794.993 23.3644 794.993 23.9047C794.993 24.1702 795.085 24.3864 795.238 24.5729L797.404 26.8724C796.977 26.8036 796.544 26.7643 796.108 26.7643C791.624 26.7643 788.037 30.6557 788.037 35.5297C788.037 40.4037 791.652 44.3246 796.136 44.3246C800.628 44.3246 804.234 40.4037 804.234 35.5297C804.234 34.9402 803.852 34.5176 803.309 34.5176C802.785 34.5176 802.431 34.9402 802.431 35.5297C802.431 39.3228 799.632 42.3691 796.136 42.3691C792.648 42.3691 789.84 39.3228 789.84 35.5297C789.84 31.7071 792.62 28.6806 796.108 28.6806C796.697 28.6806 797.241 28.7298 797.72 28.8182L795.248 31.4714C795.085 31.6482 794.993 31.8645 794.993 32.1297C794.993 32.6701 795.383 33.0927 795.872 33.0927Z" fill="#E3E3E3"/>
</g>
<path d="M492.919 21.9216C489.723 21.9216 487.121 24.7429 487.121 28.2108V31.9842H485.963C484.685 31.9842 483.643 33.1124 483.643 34.4999V44.5623C483.643 45.9496 484.685 47.0779 485.963 47.0779H499.876C501.154 47.0779 502.195 45.9496 502.195 44.5623V34.4999C502.195 33.1124 501.154 31.9842 499.876 31.9842H498.717V28.2108C498.717 24.7429 496.115 21.9216 492.919 21.9216ZM499.876 34.4999L499.878 44.5623H485.963V34.4999H499.876ZM489.441 31.9842V28.2108C489.441 26.1304 491.001 24.4373 492.919 24.4373C494.837 24.4373 496.398 26.1304 496.398 28.2108V31.9842H489.441Z" fill="white"/>
</g>
</g>
<path d="M527.006 43L523.682 32.0909H525.443L527.801 40.4432H527.915L530.244 32.0909H532.034L534.335 40.4148H534.449L536.807 32.0909H538.568L535.244 43H533.597L531.21 34.6193H531.04L528.653 43H527.006ZM543.256 43L539.932 32.0909H541.693L544.051 40.4432H544.165L546.494 32.0909H548.284L550.585 40.4148H550.699L553.057 32.0909H554.818L551.494 43H549.847L547.46 34.6193H547.29L544.903 43H543.256ZM559.506 43L556.182 32.0909H557.943L560.301 40.4432H560.415L562.744 32.0909H564.534L566.835 40.4148H566.949L569.307 32.0909H571.068L567.744 43H566.097L563.71 34.6193H563.54L561.153 43H559.506ZM573.021 43.1136C572.671 43.1136 572.37 42.9882 572.119 42.7372C571.868 42.4863 571.743 42.1856 571.743 41.8352C571.743 41.4848 571.868 41.1842 572.119 40.9332C572.37 40.6823 572.671 40.5568 573.021 40.5568C573.372 40.5568 573.672 40.6823 573.923 40.9332C574.174 41.1842 574.3 41.4848 574.3 41.8352C574.3 42.0672 574.241 42.2803 574.122 42.4744C574.009 42.6686 573.855 42.8248 573.661 42.9432C573.471 43.0568 573.258 43.1136 573.021 43.1136ZM580.518 43.2557C579.826 43.2557 579.199 43.1255 578.636 42.8651C578.072 42.5999 577.625 42.2188 577.293 41.7216C576.962 41.2197 576.796 40.6136 576.796 39.9034C576.796 39.2784 576.919 38.7718 577.165 38.3835C577.412 37.9905 577.741 37.6828 578.153 37.4602C578.565 37.2377 579.019 37.072 579.516 36.9631C580.018 36.8494 580.522 36.7595 581.029 36.6932C581.692 36.608 582.229 36.544 582.641 36.5014C583.058 36.4541 583.361 36.3759 583.55 36.267C583.745 36.1581 583.842 35.9687 583.842 35.6989V35.642C583.842 34.9413 583.65 34.3968 583.266 34.0085C582.888 33.6203 582.312 33.4261 581.54 33.4261C580.74 33.4261 580.113 33.6013 579.658 33.9517C579.204 34.3021 578.884 34.6761 578.7 35.0739L577.109 34.5057C577.393 33.8428 577.772 33.3267 578.245 32.9574C578.723 32.5833 579.244 32.3229 579.808 32.1761C580.376 32.0246 580.934 31.9489 581.484 31.9489C581.834 31.9489 582.237 31.9915 582.691 32.0767C583.15 32.1572 583.593 32.3253 584.019 32.581C584.45 32.8366 584.808 33.2225 585.092 33.7386C585.376 34.2547 585.518 34.946 585.518 35.8125V43H583.842V41.5227H583.756C583.643 41.7595 583.453 42.0128 583.188 42.2827C582.923 42.5526 582.57 42.7822 582.13 42.9716C581.69 43.161 581.152 43.2557 580.518 43.2557ZM580.773 41.75C581.436 41.75 581.995 41.6198 582.45 41.3594C582.909 41.099 583.254 40.7628 583.487 40.3509C583.723 39.9389 583.842 39.5057 583.842 39.0511V37.517C583.771 37.6023 583.614 37.6804 583.373 37.7514C583.136 37.8177 582.862 37.8769 582.549 37.929C582.241 37.9763 581.941 38.0189 581.647 38.0568C581.358 38.09 581.124 38.1184 580.944 38.142C580.508 38.1989 580.101 38.2912 579.722 38.419C579.348 38.5421 579.045 38.7292 578.813 38.9801C578.586 39.2263 578.472 39.5625 578.472 39.9886C578.472 40.571 578.688 41.0114 579.119 41.3097C579.554 41.6032 580.106 41.75 580.773 41.75ZM590.253 36.4375V43H588.577V28.4545H590.253V33.7955H590.395C590.651 33.232 591.034 32.7846 591.546 32.4531C592.062 32.117 592.748 31.9489 593.605 31.9489C594.349 31.9489 595 32.098 595.559 32.3963C596.117 32.6899 596.551 33.142 596.858 33.7528C597.171 34.3589 597.327 35.1307 597.327 36.0682V43H595.651V36.1818C595.651 35.3153 595.426 34.6454 594.976 34.1719C594.531 33.6937 593.913 33.4545 593.123 33.4545C592.573 33.4545 592.081 33.5705 591.645 33.8026C591.214 34.0346 590.873 34.3731 590.623 34.8182C590.376 35.2633 590.253 35.803 590.253 36.4375ZM600.393 43V32.0909H602.013V33.7955H602.155C602.382 33.2131 602.749 32.7609 603.256 32.4389C603.762 32.1122 604.371 31.9489 605.081 31.9489C605.801 31.9489 606.4 32.1122 606.878 32.4389C607.361 32.7609 607.737 33.2131 608.007 33.7955H608.121C608.4 33.232 608.819 32.7846 609.378 32.4531C609.937 32.117 610.607 31.9489 611.388 31.9489C612.363 31.9489 613.161 32.2543 613.781 32.8651C614.402 33.4711 614.712 34.4157 614.712 35.6989V43H613.036V35.6989C613.036 34.8939 612.815 34.3187 612.375 33.973C611.935 33.6274 611.416 33.4545 610.82 33.4545C610.053 33.4545 609.458 33.6866 609.037 34.1506C608.616 34.6098 608.405 35.1922 608.405 35.8977V43H606.7V35.5284C606.7 34.9081 606.499 34.4086 606.097 34.0298C605.694 33.6463 605.176 33.4545 604.541 33.4545C604.106 33.4545 603.698 33.5705 603.32 33.8026C602.946 34.0346 602.643 34.3565 602.411 34.7685C602.183 35.1757 602.07 35.6468 602.07 36.1818V43H600.393ZM620.987 43.2557C620.295 43.2557 619.668 43.1255 619.104 42.8651C618.541 42.5999 618.094 42.2188 617.762 41.7216C617.431 41.2197 617.265 40.6136 617.265 39.9034C617.265 39.2784 617.388 38.7718 617.634 38.3835C617.88 37.9905 618.21 37.6828 618.621 37.4602C619.033 37.2377 619.488 37.072 619.985 36.9631C620.487 36.8494 620.991 36.7595 621.498 36.6932C622.161 36.608 622.698 36.544 623.11 36.5014C623.527 36.4541 623.83 36.3759 624.019 36.267C624.213 36.1581 624.31 35.9687 624.31 35.6989V35.642C624.31 34.9413 624.119 34.3968 623.735 34.0085C623.356 33.6203 622.781 33.4261 622.009 33.4261C621.209 33.4261 620.582 33.6013 620.127 33.9517C619.673 34.3021 619.353 34.6761 619.168 35.0739L617.577 34.5057C617.862 33.8428 618.24 33.3267 618.714 32.9574C619.192 32.5833 619.713 32.3229 620.276 32.1761C620.844 32.0246 621.403 31.9489 621.952 31.9489C622.303 31.9489 622.705 31.9915 623.16 32.0767C623.619 32.1572 624.062 32.3253 624.488 32.581C624.919 32.8366 625.276 33.2225 625.56 33.7386C625.844 34.2547 625.987 34.946 625.987 35.8125V43H624.31V41.5227H624.225C624.112 41.7595 623.922 42.0128 623.657 42.2827C623.392 42.5526 623.039 42.7822 622.599 42.9716C622.158 43.161 621.621 43.2557 620.987 43.2557ZM621.242 41.75C621.905 41.75 622.464 41.6198 622.918 41.3594C623.378 41.099 623.723 40.7628 623.955 40.3509C624.192 39.9389 624.31 39.5057 624.31 39.0511V37.517C624.239 37.6023 624.083 37.6804 623.842 37.7514C623.605 37.8177 623.33 37.8769 623.018 37.929C622.71 37.9763 622.409 38.0189 622.116 38.0568C621.827 38.09 621.593 38.1184 621.413 38.142C620.977 38.1989 620.57 38.2912 620.191 38.419C619.817 38.5421 619.514 38.7292 619.282 38.9801C619.055 39.2263 618.941 39.5625 618.941 39.9886C618.941 40.571 619.156 41.0114 619.587 41.3097C620.023 41.6032 620.575 41.75 621.242 41.75ZM633.165 43.2273C632.256 43.2273 631.453 42.9976 630.757 42.5384C630.061 42.0743 629.517 41.4209 629.124 40.5781C628.731 39.7306 628.534 38.7292 628.534 37.5739C628.534 36.428 628.731 35.4337 629.124 34.5909C629.517 33.7481 630.064 33.0971 630.765 32.6378C631.465 32.1785 632.275 31.9489 633.194 31.9489C633.904 31.9489 634.465 32.0672 634.877 32.304C635.293 32.536 635.611 32.8011 635.828 33.0994C636.051 33.393 636.224 33.6345 636.347 33.8239H636.489V28.4545H638.165V43H636.546V41.3239H636.347C636.224 41.5227 636.049 41.7737 635.821 42.0767C635.594 42.375 635.27 42.6425 634.848 42.8793C634.427 43.1113 633.866 43.2273 633.165 43.2273ZM633.392 41.7216C634.065 41.7216 634.633 41.5464 635.097 41.196C635.561 40.8409 635.914 40.3509 636.155 39.7259C636.397 39.0961 636.517 38.3693 636.517 37.5455C636.517 36.7311 636.399 36.0185 636.162 35.4077C635.926 34.7921 635.575 34.3139 635.111 33.973C634.647 33.6274 634.074 33.4545 633.392 33.4545C632.682 33.4545 632.09 33.6368 631.617 34.0014C631.148 34.3613 630.795 34.8513 630.559 35.4716C630.327 36.0871 630.211 36.7784 630.211 37.5455C630.211 38.322 630.329 39.0275 630.566 39.6619C630.807 40.2917 631.162 40.7936 631.631 41.1676C632.105 41.5369 632.692 41.7216 633.392 41.7216ZM642.547 47.0909C642.263 47.0909 642.01 47.0672 641.787 47.0199C641.565 46.9773 641.411 46.9347 641.326 46.892L641.752 45.4148C642.159 45.5189 642.519 45.5568 642.831 45.5284C643.144 45.5 643.421 45.3603 643.662 45.1094C643.908 44.8632 644.133 44.4631 644.337 43.9091L644.65 43.0568L640.615 32.0909H642.434L645.445 40.7841H645.559L648.57 32.0909H650.388L645.757 44.5909C645.549 45.1544 645.291 45.6207 644.983 45.9901C644.676 46.3641 644.318 46.6411 643.911 46.821C643.508 47.0009 643.054 47.0909 642.547 47.0909ZM655.479 43.2557C654.787 43.2557 654.16 43.1255 653.597 42.8651C653.033 42.5999 652.586 42.2188 652.254 41.7216C651.923 41.2197 651.757 40.6136 651.757 39.9034C651.757 39.2784 651.88 38.7718 652.126 38.3835C652.373 37.9905 652.702 37.6828 653.114 37.4602C653.526 37.2377 653.98 37.072 654.477 36.9631C654.979 36.8494 655.483 36.7595 655.99 36.6932C656.653 36.608 657.19 36.544 657.602 36.5014C658.019 36.4541 658.322 36.3759 658.511 36.267C658.705 36.1581 658.803 35.9687 658.803 35.6989V35.642C658.803 34.9413 658.611 34.3968 658.227 34.0085C657.848 33.6203 657.273 33.4261 656.501 33.4261C655.701 33.4261 655.074 33.6013 654.619 33.9517C654.165 34.3021 653.845 34.6761 653.661 35.0739L652.07 34.5057C652.354 33.8428 652.732 33.3267 653.206 32.9574C653.684 32.5833 654.205 32.3229 654.768 32.1761C655.337 32.0246 655.895 31.9489 656.445 31.9489C656.795 31.9489 657.197 31.9915 657.652 32.0767C658.111 32.1572 658.554 32.3253 658.98 32.581C659.411 32.8366 659.768 33.2225 660.053 33.7386C660.337 34.2547 660.479 34.946 660.479 35.8125V43H658.803V41.5227H658.717C658.604 41.7595 658.414 42.0128 658.149 42.2827C657.884 42.5526 657.531 42.7822 657.091 42.9716C656.651 43.161 656.113 43.2557 655.479 43.2557ZM655.734 41.75C656.397 41.75 656.956 41.6198 657.411 41.3594C657.87 41.099 658.215 40.7628 658.447 40.3509C658.684 39.9389 658.803 39.5057 658.803 39.0511V37.517C658.732 37.6023 658.575 37.6804 658.334 37.7514C658.097 37.8177 657.822 37.8769 657.51 37.929C657.202 37.9763 656.902 38.0189 656.608 38.0568C656.319 38.09 656.085 38.1184 655.905 38.142C655.469 38.1989 655.062 38.2912 654.683 38.419C654.309 38.5421 654.006 38.7292 653.774 38.9801C653.547 39.2263 653.433 39.5625 653.433 39.9886C653.433 40.571 653.649 41.0114 654.08 41.3097C654.515 41.6032 655.067 41.75 655.734 41.75ZM670.981 47.0909V41.3239H670.839C670.716 41.5227 670.541 41.7737 670.314 42.0767C670.086 42.375 669.762 42.6425 669.341 42.8793C668.919 43.1113 668.358 43.2273 667.657 43.2273C666.748 43.2273 665.946 42.9976 665.25 42.5384C664.554 42.0743 664.009 41.4209 663.616 40.5781C663.223 39.7306 663.027 38.7292 663.027 37.5739C663.027 36.428 663.223 35.4337 663.616 34.5909C664.009 33.7481 664.556 33.0971 665.257 32.6378C665.958 32.1785 666.767 31.9489 667.686 31.9489C668.396 31.9489 668.957 32.0672 669.369 32.304C669.786 32.536 670.103 32.8011 670.321 33.0994C670.543 33.393 670.716 33.6345 670.839 33.8239H671.038V32.0909H672.657V47.0909H670.981ZM667.885 41.7216C668.557 41.7216 669.125 41.5464 669.589 41.196C670.053 40.8409 670.406 40.3509 670.647 39.7259C670.889 39.0961 671.01 38.3693 671.01 37.5455C671.01 36.7311 670.891 36.0185 670.654 35.4077C670.418 34.7921 670.067 34.3139 669.603 33.973C669.139 33.6274 668.566 33.4545 667.885 33.4545C667.174 33.4545 666.583 33.6368 666.109 34.0014C665.64 34.3613 665.288 34.8513 665.051 35.4716C664.819 36.0871 664.703 36.7784 664.703 37.5455C664.703 38.322 664.821 39.0275 665.058 39.6619C665.299 40.2917 665.654 40.7936 666.123 41.1676C666.597 41.5369 667.184 41.7216 667.885 41.7216ZM680.157 43.2273C679.172 43.2273 678.308 42.9929 677.565 42.5241C676.826 42.0554 676.249 41.3996 675.832 40.5568C675.42 39.714 675.214 38.7292 675.214 37.6023C675.214 36.4659 675.42 35.474 675.832 34.6264C676.249 33.7789 676.826 33.1207 677.565 32.652C678.308 32.1832 679.172 31.9489 680.157 31.9489C681.142 31.9489 682.004 32.1832 682.743 32.652C683.486 33.1207 684.064 33.7789 684.475 34.6264C684.892 35.474 685.1 36.4659 685.1 37.6023C685.1 38.7292 684.892 39.714 684.475 40.5568C684.064 41.3996 683.486 42.0554 682.743 42.5241C682.004 42.9929 681.142 43.2273 680.157 43.2273ZM680.157 41.7216C680.905 41.7216 681.521 41.5298 682.004 41.1463C682.487 40.7628 682.844 40.2585 683.076 39.6335C683.308 39.0085 683.424 38.3314 683.424 37.6023C683.424 36.8731 683.308 36.1937 683.076 35.5639C682.844 34.9342 682.487 34.4252 682.004 34.0369C681.521 33.6487 680.905 33.4545 680.157 33.4545C679.409 33.4545 678.794 33.6487 678.311 34.0369C677.828 34.4252 677.47 34.9342 677.238 35.5639C677.006 36.1937 676.89 36.8731 676.89 37.6023C676.89 38.3314 677.006 39.0085 677.238 39.6335C677.47 40.2585 677.828 40.7628 678.311 41.1463C678.794 41.5298 679.409 41.7216 680.157 41.7216ZM692.091 43.2273C691.106 43.2273 690.242 42.9929 689.499 42.5241C688.76 42.0554 688.182 41.3996 687.766 40.5568C687.354 39.714 687.148 38.7292 687.148 37.6023C687.148 36.4659 687.354 35.474 687.766 34.6264C688.182 33.7789 688.76 33.1207 689.499 32.652C690.242 32.1832 691.106 31.9489 692.091 31.9489C693.076 31.9489 693.938 32.1832 694.676 32.652C695.42 33.1207 695.997 33.7789 696.409 34.6264C696.826 35.474 697.034 36.4659 697.034 37.6023C697.034 38.7292 696.826 39.714 696.409 40.5568C695.997 41.3996 695.42 42.0554 694.676 42.5241C693.938 42.9929 693.076 43.2273 692.091 43.2273ZM692.091 41.7216C692.839 41.7216 693.455 41.5298 693.938 41.1463C694.42 40.7628 694.778 40.2585 695.01 39.6335C695.242 39.0085 695.358 38.3314 695.358 37.6023C695.358 36.8731 695.242 36.1937 695.01 35.5639C694.778 34.9342 694.42 34.4252 693.938 34.0369C693.455 33.6487 692.839 33.4545 692.091 33.4545C691.343 33.4545 690.727 33.6487 690.244 34.0369C689.761 34.4252 689.404 34.9342 689.172 35.5639C688.94 36.1937 688.824 36.8731 688.824 37.6023C688.824 38.3314 688.94 39.0085 689.172 39.6335C689.404 40.2585 689.761 40.7628 690.244 41.1463C690.727 41.5298 691.343 41.7216 692.091 41.7216ZM699.82 43V28.4545H701.496V33.8239H701.638C701.761 33.6345 701.932 33.393 702.15 33.0994C702.372 32.8011 702.689 32.536 703.101 32.304C703.518 32.0672 704.081 31.9489 704.792 31.9489C705.71 31.9489 706.52 32.1785 707.221 32.6378C707.921 33.0971 708.468 33.7481 708.861 34.5909C709.254 35.4337 709.451 36.428 709.451 37.5739C709.451 38.7292 709.254 39.7306 708.861 40.5781C708.468 41.4209 707.924 42.0743 707.228 42.5384C706.532 42.9976 705.729 43.2273 704.82 43.2273C704.119 43.2273 703.558 43.1113 703.137 42.8793C702.715 42.6425 702.391 42.375 702.164 42.0767C701.936 41.7737 701.761 41.5227 701.638 41.3239H701.439V43H699.82ZM701.468 37.5455C701.468 38.3693 701.588 39.0961 701.83 39.7259C702.071 40.3509 702.424 40.8409 702.888 41.196C703.352 41.5464 703.92 41.7216 704.593 41.7216C705.293 41.7216 705.878 41.5369 706.347 41.1676C706.82 40.7936 707.176 40.2917 707.412 39.6619C707.654 39.0275 707.775 38.322 707.775 37.5455C707.775 36.7784 707.656 36.0871 707.419 35.4716C707.187 34.8513 706.835 34.3613 706.361 34.0014C705.892 33.6368 705.303 33.4545 704.593 33.4545C703.911 33.4545 703.338 33.6274 702.874 33.973C702.41 34.3139 702.06 34.7921 701.823 35.4077C701.586 36.0185 701.468 36.7311 701.468 37.5455ZM713.236 43.1136C712.886 43.1136 712.585 42.9882 712.334 42.7372C712.083 42.4863 711.958 42.1856 711.958 41.8352C711.958 41.4848 712.083 41.1842 712.334 40.9332C712.585 40.6823 712.886 40.5568 713.236 40.5568C713.587 40.5568 713.887 40.6823 714.138 40.9332C714.389 41.1842 714.515 41.4848 714.515 41.8352C714.515 42.0672 714.455 42.2803 714.337 42.4744C714.223 42.6686 714.069 42.8248 713.875 42.9432C713.686 43.0568 713.473 43.1136 713.236 43.1136ZM721.954 43.2273C720.931 43.2273 720.051 42.9858 719.312 42.5028C718.574 42.0199 718.005 41.3546 717.608 40.5071C717.21 39.6596 717.011 38.6913 717.011 37.6023C717.011 36.4943 717.215 35.5166 717.622 34.669C718.034 33.8168 718.607 33.1515 719.341 32.6733C720.079 32.1903 720.941 31.9489 721.926 31.9489C722.693 31.9489 723.384 32.0909 724 32.375C724.615 32.6591 725.119 33.0568 725.512 33.5682C725.905 34.0795 726.149 34.6761 726.244 35.358H724.568C724.44 34.8608 724.156 34.4205 723.716 34.0369C723.28 33.6487 722.693 33.4545 721.954 33.4545C721.301 33.4545 720.728 33.625 720.235 33.9659C719.748 34.3021 719.367 34.7779 719.092 35.3935C718.822 36.0043 718.687 36.7216 718.687 37.5455C718.687 38.3883 718.82 39.1222 719.085 39.7472C719.355 40.3722 719.734 40.8575 720.221 41.2031C720.714 41.5488 721.291 41.7216 721.954 41.7216C722.39 41.7216 722.785 41.6458 723.14 41.4943C723.495 41.3428 723.796 41.125 724.042 40.8409C724.288 40.5568 724.464 40.2159 724.568 39.8182H726.244C726.149 40.4621 725.915 41.0421 725.541 41.5582C725.172 42.0696 724.681 42.4768 724.071 42.7798C723.465 43.0781 722.759 43.2273 721.954 43.2273ZM733.126 43.2273C732.141 43.2273 731.277 42.9929 730.534 42.5241C729.795 42.0554 729.217 41.3996 728.801 40.5568C728.389 39.714 728.183 38.7292 728.183 37.6023C728.183 36.4659 728.389 35.474 728.801 34.6264C729.217 33.7789 729.795 33.1207 730.534 32.652C731.277 32.1832 732.141 31.9489 733.126 31.9489C734.111 31.9489 734.973 32.1832 735.711 32.652C736.455 33.1207 737.032 33.7789 737.444 34.6264C737.861 35.474 738.069 36.4659 738.069 37.6023C738.069 38.7292 737.861 39.714 737.444 40.5568C737.032 41.3996 736.455 42.0554 735.711 42.5241C734.973 42.9929 734.111 43.2273 733.126 43.2273ZM733.126 41.7216C733.874 41.7216 734.49 41.5298 734.973 41.1463C735.456 40.7628 735.813 40.2585 736.045 39.6335C736.277 39.0085 736.393 38.3314 736.393 37.6023C736.393 36.8731 736.277 36.1937 736.045 35.5639C735.813 34.9342 735.456 34.4252 734.973 34.0369C734.49 33.6487 733.874 33.4545 733.126 33.4545C732.378 33.4545 731.762 33.6487 731.279 34.0369C730.797 34.4252 730.439 34.9342 730.207 35.5639C729.975 36.1937 729.859 36.8731 729.859 37.6023C729.859 38.3314 729.975 39.0085 730.207 39.6335C730.439 40.2585 730.797 40.7628 731.279 41.1463C731.762 41.5298 732.378 41.7216 733.126 41.7216ZM740.628 43V32.0909H742.247V33.7955H742.389C742.616 33.2131 742.983 32.7609 743.49 32.4389C743.997 32.1122 744.605 31.9489 745.315 31.9489C746.035 31.9489 746.634 32.1122 747.112 32.4389C747.595 32.7609 747.972 33.2131 748.241 33.7955H748.355C748.634 33.232 749.054 32.7846 749.612 32.4531C750.171 32.117 750.841 31.9489 751.622 31.9489C752.598 31.9489 753.395 32.2543 754.016 32.8651C754.636 33.4711 754.946 34.4157 754.946 35.6989V43H753.27V35.6989C753.27 34.8939 753.05 34.3187 752.609 33.973C752.169 33.6274 751.651 33.4545 751.054 33.4545C750.287 33.4545 749.693 33.6866 749.271 34.1506C748.85 34.6098 748.639 35.1922 748.639 35.8977V43H746.935V35.5284C746.935 34.9081 746.733 34.4086 746.331 34.0298C745.929 33.6463 745.41 33.4545 744.776 33.4545C744.34 33.4545 743.933 33.5705 743.554 33.8026C743.18 34.0346 742.877 34.3565 742.645 34.7685C742.418 35.1757 742.304 35.6468 742.304 36.1818V43H740.628Z" fill="white"/>
</svg>
