<svg width="176" height="75" viewBox="0 0 176 75" fill="none" xmlns="http://www.w3.org/2000/svg">
<path d="M28.4218 0.256878C27.56 0.997322 29.2835 3.74754 39.5018 18.6622C45.1649 26.9129 45.6573 28.0764 44.9186 32.3075L44.18 36.9618L33.3462 23.6338C23.2511 11.152 20.5426 8.40177 19.6809 9.24799C19.4346 9.45954 24.9746 16.5467 31.992 24.9031C44.4262 39.8178 44.7955 40.3467 44.7955 45.9529V51.6649L31.1302 35.6924C23.6204 26.9129 16.9724 19.72 16.48 19.72C15.8644 19.72 21.8969 27.4418 30.0222 36.856C42.7026 51.7707 44.7955 54.6267 44.7955 58.1173C44.7955 60.5502 45.288 61.9253 46.0266 61.5022C46.7653 61.0791 47.2578 53.992 47.2578 43.7315V26.5955L38.1475 13.1618C33.2231 5.75732 28.7911 -0.0604553 28.4218 0.256878Z" fill="#E2E9FF"/>
<path d="M140.699 10.4115C137.129 15.8061 133.436 21.3066 132.451 22.5759C131.466 23.951 131.22 25.0088 131.958 25.0088C132.574 25.0088 136.144 20.5661 139.837 15.1715C148.701 2.37234 149.686 0.679898 148.455 0.679898C147.84 0.679898 144.392 5.12257 140.699 10.4115Z" fill="#E2E9FF"/>
<path d="M150.302 15.7003C143.531 24.0568 142.915 25.0088 144.146 25.0088C144.762 25.0088 148.086 21.4123 151.656 17.0755C155.226 12.7386 157.565 9.14212 156.95 9.14212C156.211 9.14212 153.256 12.1039 150.302 15.7003Z" fill="#E2E9FF"/>
<path d="M158.427 20.9892C156.211 23.5279 155.472 25.0088 156.457 25.0088C157.812 24.903 162.12 19.7199 160.766 19.7199C160.151 19.7199 159.043 20.3546 158.427 20.9892Z" fill="#E2E9FF"/>
<path d="M0.721755 45.8471C0.598644 56.5307 0.967977 66.2622 1.70664 67.8489C2.44531 69.4356 4.66131 71.2338 7.00042 72.08C12.2942 73.984 33.7155 75.0418 41.7178 73.8782C46.8884 73.1378 45.288 72.9262 32.4844 72.9262C4.16887 72.6089 2.69153 71.3396 1.58353 44.5778L0.967977 26.5956L0.721755 45.8471Z" fill="#E2E9FF"/>
<path d="M5.39996 45.4239C5.39996 66.0506 5.89241 67.5315 13.7715 69.4355C19.0653 70.7048 45.1649 70.7048 49.72 69.4355C51.4435 69.0123 52.0591 68.5892 51.3204 68.4835C49.3506 68.3777 49.2275 64.7812 50.9511 61.9252C51.6897 60.7617 51.8129 59.9155 51.1973 59.9155C50.4586 59.9155 49.72 60.8675 49.3506 61.9252C48.4889 64.887 39.8711 66.6852 30.0222 65.9448C25.5902 65.6275 21.1582 65.0986 20.0502 64.6755C16.2337 63.4061 15.2489 59.0692 15.2489 42.991V27.1243H10.3244H5.39996V45.4239Z" fill="#E2E9FF"/>
<path d="M73.2342 28.2879C65.3551 29.4515 62.6466 31.2497 60.6769 36.4328C58.8302 41.4043 58.8302 57.3768 60.6769 62.3483C62.8929 68.1661 67.448 69.7528 82.7138 70.2817C89.608 70.4932 98.3489 70.3875 102.042 69.9643C108.198 69.3297 108.813 69.0123 108.813 66.6852C108.813 65.3101 108.198 64.1466 107.459 64.1466C106.474 64.1466 106.474 63.7235 107.582 62.5599C108.321 61.7137 108.813 60.2328 108.444 59.175C107.952 57.5883 107.828 57.5883 107.705 59.4923C107.459 64.1466 103.396 65.6275 91.2084 65.7332C71.6338 65.7332 70.1564 64.6755 70.1564 49.8666C70.2795 37.9137 71.0182 35.1635 74.9578 33.6826C78.2818 32.3075 97.4871 31.9901 102.535 33.1537C104.135 33.471 106.105 35.1635 106.967 37.0675L108.567 40.2408L108.444 35.6923C108.321 33.0479 108.936 30.8266 109.921 30.4035C112.507 29.0283 107.09 28.1821 92.8089 27.6532C85.6684 27.4417 76.9275 27.6532 73.2342 28.2879Z" fill="#E2E9FF"/>
<path d="M131.589 27.8648C119.524 29.2399 117.062 32.4132 116.446 47.8568C115.831 61.1848 117.554 65.9448 123.34 68.3777C130.727 71.551 168.645 70.599 170.984 67.2141C171.477 66.6852 170.492 66.6852 168.645 67.3199L165.444 68.3777V58.8577V49.3377H159.043C155.472 49.3377 151.287 49.0204 149.809 48.703C147.47 48.1741 146.978 48.4915 146.978 50.2897C146.978 52.2995 147.593 52.511 155.596 52.511H164.213V56.7421C164.213 59.4924 163.352 61.7137 161.874 62.983C158.92 65.5217 149.194 66.6852 139.591 65.7332C128.757 64.6755 127.28 62.6657 127.28 48.8088C127.28 33.7884 128.019 33.0479 143.9 32.6248C158.181 32.0959 161.382 32.7306 163.228 36.1155C164.213 38.0195 165.568 38.7599 167.784 38.6541C170.738 38.4426 170.738 38.4426 168.276 38.0195C165.814 37.5964 165.444 36.8559 165.444 33.0479V28.4995L159.043 27.759C152.272 27.1244 137.991 27.1244 131.589 27.8648ZM163.844 32.6248C163.475 33.3652 163.228 32.8364 163.228 31.3555C163.228 29.8746 163.475 29.3457 163.844 29.9804C164.09 30.7208 164.09 31.9901 163.844 32.6248ZM163.844 67.5315C163.475 68.2719 163.228 67.743 163.228 66.2621C163.228 64.7812 163.475 64.2524 163.844 64.887C164.09 65.6275 164.09 66.8968 163.844 67.5315Z" fill="#E2E9FF"/>
<path d="M51.0742 43.7315C51.0742 54.4151 51.4435 58.752 52.3053 57.2711C53.1671 55.7902 53.2902 56.9538 52.9209 61.5022C52.5515 65.5218 52.7977 67.1084 53.4133 65.7333C54.0289 64.5698 54.5213 64.2524 54.5213 64.8871C54.7675 67.5316 55.0137 67.8489 59.1995 70.2818C65.1089 73.7724 81.4826 75.4649 94.6555 73.8782L104.504 72.7147L95.8866 73.1378C84.6835 73.5609 69.2946 72.08 64.7395 70.0702C58.7071 67.4258 56.6142 62.0311 56.7373 49.3378C56.7373 43.2027 57.3529 36.9618 58.0915 35.2693C60.0613 31.3555 58.8302 31.6729 56.2449 35.7982C55.1369 37.7022 53.7826 42.8853 53.2902 47.2222C52.5515 54.2035 52.4284 53.6747 52.5515 42.4622C52.6746 35.4809 53.2902 29.4515 54.0289 29.0284C54.7675 28.6053 54.2751 28.1822 53.1671 28.1822C51.1973 28.1822 50.9511 29.5573 51.0742 43.7315Z" fill="#E2E9FF"/>
<path d="M113.245 35.7982C112.137 37.0675 111.276 39.0773 111.276 40.1351C111.276 41.1928 110.783 41.7217 110.044 41.4044C107.828 40.2408 108.813 56.1075 111.522 66.2622C112.999 72.1857 136.021 76.2053 154.364 73.7724L162.367 72.7146L153.38 73.1377C140.699 73.7724 124.941 71.9742 121.124 69.6471C115.461 66.0506 113.738 61.5022 113.738 49.6551C113.738 43.7315 114.23 37.7022 114.969 36.2213C116.446 32.8364 115.708 32.7306 113.245 35.7982Z" fill="#E2E9FF"/>
<path d="M89.1156 35.6924C96.256 36.2213 99.9493 37.0675 100.934 38.2311C103.027 40.5582 104.135 49.7608 103.273 56.6364C102.658 61.5022 102.781 62.2426 104.012 60.5502C105.612 58.3288 106.105 42.9911 104.751 38.6542C103.643 35.1635 101.057 34.5288 88.5 34.6346L78.6511 34.8462L89.1156 35.6924Z" fill="#E2E9FF"/>
<path d="M134.051 35.5866C132.697 36.1155 132.081 36.5386 132.574 36.5386C133.189 36.6444 132.697 37.7022 131.712 38.9715C130.604 40.2408 129.742 41.8275 129.742 42.4622C129.742 42.991 131.096 41.7217 132.82 39.5004C135.405 36.2213 136.76 35.5866 140.207 35.5866C142.546 35.5866 144.516 36.0097 144.516 36.6444C144.516 37.1733 141.192 41.5102 137.129 46.2702C133.066 50.9244 129.742 55.367 129.742 56.0017C129.742 56.6364 133.928 52.2995 139.099 46.2702C146.978 37.0675 148.824 35.4808 151.164 36.0097C152.518 36.327 154.488 36.6444 155.349 36.6444C156.211 36.6444 157.442 37.8079 158.058 39.2888C159.166 41.8275 159.658 41.9333 167.537 41.7217L175.909 41.5102L168.892 41.1928C162.613 40.7697 161.628 40.4524 161.012 38.231C160.643 36.8559 159.166 35.4808 157.688 35.1635C153.626 34.2115 136.883 34.5288 134.051 35.5866Z" fill="#E2E9FF"/>
<path d="M82.4675 41.0871C80.8671 45.6355 80.8671 47.0106 82.5906 46.4817C83.5755 46.1644 84.068 45.2124 83.5755 44.2604C83.2062 43.4142 83.5755 42.0391 84.3142 41.2986C85.4222 40.1351 85.4222 39.8177 84.3142 39.8177C83.5755 39.8177 82.7138 40.4524 82.4675 41.0871Z" fill="#E2E9FF"/>
<path d="M90.2236 42.5679C88.5 46.5875 89.8542 46.9048 92.1934 43.0968C93.3014 41.1928 93.5476 39.8177 92.8089 39.8177C92.0702 39.8177 90.9622 41.087 90.2236 42.5679Z" fill="#E2E9FF"/>
<path d="M97.9795 44.0489C97.1178 45.2124 96.9946 46.1644 97.7333 46.1644C98.3489 46.1644 99.4569 45.2124 100.196 44.0489C100.934 42.8853 101.057 41.9333 100.565 41.9333C99.9493 41.9333 98.8413 42.8853 97.9795 44.0489Z" fill="#E2E9FF"/>
<path d="M73.4804 46.1644C73.8498 50.2898 75.0809 50.2898 75.8196 46.1644C76.1889 44.0489 75.8196 42.9911 74.8347 42.9911C73.8498 42.9911 73.3573 44.1546 73.4804 46.1644Z" fill="#E2E9FF"/>
<path d="M141.561 50.6071C139.714 55.896 141.068 56.7422 150.671 56.7422C159.289 56.7422 159.289 56.7422 159.412 59.5982C159.412 62.2426 159.535 62.3484 160.52 60.4444C163.105 55.1555 162.367 54.6266 152.641 54.6266H143.408L143.038 51.136L142.546 47.7511L141.561 50.6071Z" fill="#E2E9FF"/>
<path d="M83.4524 58.752C79.5129 60.8675 77.1738 63.0889 78.7742 63.0889C79.2667 63.0889 80.9902 62.0311 82.5907 60.7618C84.1911 59.4924 87.0227 58.5404 89.1155 58.5404C91.2084 58.5404 94.04 59.4924 95.6404 60.7618C98.5951 63.0889 101.427 63.8293 101.427 62.2426C101.427 60.2329 96.5022 57.5884 91.9471 57.1653C88.6231 56.7422 86.1609 57.2711 83.4524 58.752Z" fill="#E2E9FF"/>
</svg>
