<svg width="31" height="36" viewBox="0 0 31 36" fill="none" xmlns="http://www.w3.org/2000/svg">
<path d="M18.036 2.83603C18.652 4.40003 19.51 6.60803 19.928 7.75803L20.742 9.82803L19.466 12.082L18.212 14.336L16.65 10.173C15.814 7.87303 15.044 6.01003 14.978 6.01003C14.912 6.01003 13.988 8.31003 12.932 11.116C12.3477 12.6673 11.8282 14.0464 11.3612 15.286C8.50496 22.8683 7.61576 25.2288 5.91397 29.815C5.18541 31.8174 4.59815 33.4035 4.16013 34.5865C3.95844 35.1312 3.78839 35.5905 3.65077 35.9655H1.90474C-0.284916 36.0342 0.167638 34.4577 0.30209 33.9894L0.303974 33.9828C0.317663 33.9434 0.347853 33.8338 0.396118 33.6586C0.658139 32.7075 1.45285 29.8227 3.03197 25.744C4.90197 20.914 6.37597 16.82 6.30997 16.636C6.19997 16.337 1.13997 7.41303 0.303974 6.05603L-0.00402832 5.55003H4.79197L6.57397 8.77003L8.33397 11.99L8.81797 10.794C8.99722 10.376 9.40979 9.3075 9.89861 8.04149C10.1897 7.28749 10.5079 6.46344 10.82 5.66503C11.1041 4.93035 11.3881 4.19832 11.6463 3.53303C12.1479 2.24053 12.5518 1.1999 12.668 0.881031L13.02 0.0300293H16.936L18.036 2.83603ZM29.762 5.98703C29.7329 6.03774 29.6407 6.20138 29.4969 6.45649C28.9887 7.35846 27.8362 9.40391 26.55 11.645C24.922 14.52 23.58 16.912 23.58 16.958C23.58 17.027 25.164 21.144 27.1 26.112C28.6988 30.2337 29.4272 32.3747 29.7144 33.2188C29.775 33.3968 29.8159 33.5172 29.8412 33.5862C30.5094 35.4072 29.7637 35.9885 28.5317 35.9655H26.3492L23.668 28.803C22.326 25.215 21.138 22.133 21.028 21.949C20.874 21.719 20.346 22.478 19.026 24.801L17.2 27.998V35.9655H12.8V27.86L11.832 26.181C10.9111 24.5852 10.5399 24.0103 10.536 23.433C10.5331 23.0035 10.7335 22.5726 11.062 21.719C11.436 20.73 11.832 19.672 11.942 19.373C12.14 18.844 12.272 19.005 13.504 21.259C14.252 22.616 14.934 23.697 15.044 23.674C15.132 23.628 15.792 22.593 16.496 21.374C17.178 20.132 18.806 17.28 20.126 15.003C21.424 12.726 22.48 10.794 22.48 10.725C22.48 10.679 23.118 9.48303 23.91 8.08003L25.362 5.55003H27.672C29.872 5.55003 29.96 5.57303 29.762 5.98703Z" fill="white"/>
<path d="M18.036 2.83603C18.652 4.40003 19.51 6.60803 19.928 7.75803L20.742 9.82803L19.466 12.082L18.212 14.336L16.65 10.173C15.814 7.87303 15.044 6.01003 14.978 6.01003C14.912 6.01003 13.988 8.31003 12.932 11.116C12.3477 12.6673 11.8282 14.0464 11.3612 15.286C8.50496 22.8683 7.61576 25.2288 5.91397 29.815C5.18541 31.8174 4.59815 33.4035 4.16013 34.5865C3.95844 35.1312 3.78839 35.5905 3.65077 35.9655H1.90474C-0.284916 36.0342 0.167638 34.4577 0.30209 33.9894L0.303974 33.9828C0.317663 33.9434 0.347853 33.8338 0.396118 33.6586C0.658139 32.7075 1.45285 29.8227 3.03197 25.744C4.90197 20.914 6.37597 16.82 6.30997 16.636C6.19997 16.337 1.13997 7.41303 0.303974 6.05603L-0.00402832 5.55003H4.79197L6.57397 8.77003L8.33397 11.99L8.81797 10.794C8.99722 10.376 9.40979 9.3075 9.89861 8.04149C10.1897 7.28749 10.5079 6.46344 10.82 5.66503C11.1041 4.93035 11.3881 4.19832 11.6463 3.53303C12.1479 2.24053 12.5518 1.1999 12.668 0.881031L13.02 0.0300293H16.936L18.036 2.83603ZM29.762 5.98703C29.7329 6.03774 29.6407 6.20138 29.4969 6.45649C28.9887 7.35846 27.8362 9.40391 26.55 11.645C24.922 14.52 23.58 16.912 23.58 16.958C23.58 17.027 25.164 21.144 27.1 26.112C28.6988 30.2337 29.4272 32.3747 29.7144 33.2188C29.775 33.3968 29.8159 33.5172 29.8412 33.5862C30.5094 35.4072 29.7637 35.9885 28.5317 35.9655H26.3492L23.668 28.803C22.326 25.215 21.138 22.133 21.028 21.949C20.874 21.719 20.346 22.478 19.026 24.801L17.2 27.998V35.9655H12.8V27.86L11.832 26.181C10.9111 24.5852 10.5399 24.0103 10.536 23.433C10.5331 23.0035 10.7335 22.5726 11.062 21.719C11.436 20.73 11.832 19.672 11.942 19.373C12.14 18.844 12.272 19.005 13.504 21.259C14.252 22.616 14.934 23.697 15.044 23.674C15.132 23.628 15.792 22.593 16.496 21.374C17.178 20.132 18.806 17.28 20.126 15.003C21.424 12.726 22.48 10.794 22.48 10.725C22.48 10.679 23.118 9.48303 23.91 8.08003L25.362 5.55003H27.672C29.872 5.55003 29.96 5.57303 29.762 5.98703Z" stroke="#FFFBFB"/>
</svg>
