<svg width="70" height="70" viewBox="0 0 70 70" fill="none" xmlns="http://www.w3.org/2000/svg">
<g clip-path="url(#clip0_5_442)">
<mask id="mask0_5_442" style="mask-type:luminance" maskUnits="userSpaceOnUse" x="0" y="0" width="70" height="70">
<path d="M60 0H10C4.47715 0 0 4.47715 0 10V60C0 65.5229 4.47715 70 10 70H60C65.5229 70 70 65.5229 70 60V10C70 4.47715 65.5229 0 60 0Z" fill="white"/>
</mask>
<g mask="url(#mask0_5_442)">
<path d="M60 0H10C4.47715 0 0 4.47715 0 10V60C0 65.5229 4.47715 70 10 70H60C65.5229 70 70 65.5229 70 60V10C70 4.47715 65.5229 0 60 0Z" fill="black"/>
<path d="M94.8573 -15.5184C94.8573 -15.5184 68.4787 -2.95596 73.1606 28.1212C78.4135 62.967 47.9525 77.9223 27.1408 69.308C6.32914 60.6639 7.7851 28.6895 -31.7828 27.7024C-72.2071 26.7154 -80.7145 -13.5443 -80.7145 -13.5443" fill="black"/>
<path d="M94.8573 -15.5184C94.8573 -15.5184 68.4787 -2.95596 73.1606 28.1212C78.4135 62.967 47.9525 77.9223 27.1408 69.308C6.32914 60.6639 7.7851 28.6895 -31.7828 27.7024C-72.2071 26.7154 -80.7145 -13.5443 -80.7145 -13.5443" stroke="white" stroke-opacity="0.2" stroke-width="2" stroke-miterlimit="10"/>
<path d="M64.3677 -24.8806C64.3677 -24.8806 52.9484 1.68003 57.0308 28.0911C61.1418 54.5021 42.671 57.6128 35.3341 54.5021C20.0894 48.1013 17.1489 13.8237 -7.4597 11.6103C-25.959 9.93534 -50.853 23.1857 -64.0423 -6.8744" fill="black"/>
<path d="M64.3677 -24.8806C64.3677 -24.8806 52.9484 1.68003 57.0308 28.0911C61.1418 54.5021 42.671 57.6128 35.3341 54.5021C20.0894 48.1013 17.1489 13.8237 -7.4597 11.6103C-25.959 9.93534 -50.853 23.1857 -64.0423 -6.8744" stroke="white" stroke-opacity="0.2" stroke-width="2" stroke-miterlimit="10"/>
<path d="M52.0634 -13.0358C52.0634 -13.0358 56.1743 14.0931 37.9891 9.24755C17.1489 3.68419 17.4629 -9.35682 -8.91566 2.96633C-18.308 7.36319 -56.1059 8.64934 -48.4835 -15.5184" fill="black"/>
<path d="M52.0634 -13.0358C52.0634 -13.0358 56.1743 14.0931 37.9891 9.24755C17.1489 3.68419 17.4629 -9.35682 -8.91566 2.96633C-18.308 7.36319 -56.1059 8.64934 -48.4835 -15.5184" stroke="#FBF6F6" stroke-opacity="0.2" stroke-width="2" stroke-miterlimit="10"/>
<path d="M38.8741 45.1403C43.2415 45.1403 46.782 39.6766 46.782 32.9368C46.782 26.197 43.2415 20.7333 38.8741 20.7333C34.5067 20.7333 30.9663 26.197 30.9663 32.9368C30.9663 39.6766 34.5067 45.1403 38.8741 45.1403Z" fill="black" stroke="white" stroke-opacity="0.2" stroke-width="2" stroke-miterlimit="10"/>
</g>
<path d="M7 35C7 27.5469 9.68554 21.1836 15.0567 15.9101C20.4277 10.6367 26.9088 8 34.5 8C42.0911 8 48.5722 10.6367 53.9434 15.9101C59.3144 21.1836 62 27.5469 62 35C62 42.4531 59.3145 48.8164 53.9434 54.0898C48.5723 59.3632 42.0912 62 34.5 62C26.9088 62 20.4277 59.3633 15.0567 54.0898C9.68554 48.8164 7 42.453 7 35ZM10.0078 35C10.0078 41.6094 12.4069 47.2695 17.2051 51.9805C22.0032 56.6914 27.7682 59.0469 34.5 59.0469C41.2318 59.0469 46.9968 56.6914 51.7949 51.9805C56.5931 47.2695 58.9922 41.6094 58.9922 35C58.9922 28.3906 56.5932 22.7305 51.7949 18.0195C46.9968 13.3086 41.2317 10.9531 34.5 10.9531C27.7682 10.9531 22.0033 13.3086 17.2051 18.0195C12.4069 22.7305 10.0078 28.3906 10.0078 35ZM17.7422 40.8007C17.599 40.6601 17.599 40.5195 17.7422 40.3789C18.0286 40.0976 18.3868 39.9922 18.8164 40.0625C19.2461 40.1328 19.4967 40.2031 19.5683 40.2734C20.0696 40.4843 20.6247 40.9589 21.2334 41.6973C21.842 42.4355 22.3254 42.9453 22.6836 43.2265C24.4023 44.6328 26.1568 44.7382 27.9472 43.5429C28.0904 43.0507 28.3232 42.6289 28.6454 42.2773C28.9676 41.9257 29.2721 41.6797 29.5585 41.539C29.845 41.3983 30.3463 41.1874 31.0625 40.9062C28.6991 40.6952 26.7835 40.2909 25.3154 39.6932C23.8473 39.0956 22.6835 38.3398 21.8241 37.4257C20.6783 36.1601 19.98 34.5077 19.7294 32.4687C19.4787 30.4296 19.6399 28.5663 20.2128 26.8788C20.6425 25.8241 21.2512 24.875 22.0389 24.0312C21.466 22.2734 21.5734 20.2695 22.3612 18.0195C24.6529 18.1601 26.7297 18.9335 28.5917 20.3398C32.1724 19.4257 35.8963 19.3906 39.7635 20.2343C40.2648 19.8827 41.0347 19.4433 42.073 18.9159C43.1114 18.3886 44.4184 18.0897 45.9939 18.0194C46.2804 18.7929 46.4774 19.7069 46.5848 20.7616C46.6922 21.8163 46.6385 22.8007 46.4237 23.7147C48.0708 25.4022 48.9301 27.6522 49.0017 30.4647C49.0017 32.7147 48.6079 34.578 47.8202 36.0546C47.0324 37.5311 45.6359 38.7616 43.6307 39.7459C42.27 40.3788 40.4797 40.7654 38.2596 40.9061C39.2623 41.3982 39.9963 41.908 40.4618 42.4354C40.9273 42.9627 41.2317 43.7889 41.375 44.9139V48.2362L41.4823 51.453C41.6972 51.8046 41.9479 52.1034 42.2343 52.3495C42.5208 52.5956 42.7714 52.7714 42.9863 52.8769C43.2011 52.9823 43.2727 53.1406 43.2011 53.3515C43.1295 53.5625 42.843 53.6679 42.3418 53.6679C41.1243 53.6679 40.1575 53.246 39.4414 52.4022C39.2265 52.0507 39.1191 51.6289 39.1191 51.1366V46.0741C39.1191 45.5116 38.9759 45.1073 38.6894 44.8612C38.403 44.6151 38.1165 44.4569 37.83 44.3866V51.0311C37.83 52.2264 37.9733 52.9998 38.2597 53.3514C38.5462 53.703 38.7252 54.0546 38.7969 54.4061C38.8685 54.4764 38.8148 54.5291 38.6357 54.5643C38.4568 54.5994 38.1524 54.5467 37.7226 54.4061C36.7916 54.1952 36.1471 53.7205 35.789 52.9822C35.431 52.244 35.2519 51.4529 35.2519 50.6092V44.0703H33.8554V50.6093C33.8554 51.4531 33.6763 52.2617 33.3183 53.0351C32.817 54.0195 31.886 54.5468 30.5254 54.6171C30.3105 54.5468 30.2031 54.4765 30.2031 54.4063C30.2747 54.3359 30.4896 53.9844 30.8476 53.3516C30.9192 53.2109 31.0088 52.9297 31.1162 52.5078C31.2237 52.0859 31.2774 51.5938 31.2774 51.0313V44.3867C30.9909 44.457 30.7223 44.6152 30.4717 44.8613C30.221 45.1075 30.0957 45.5117 30.0957 46.0742V51.1367C30.0957 51.6289 29.9883 52.0508 29.7734 52.4024C29.1289 53.2461 28.1621 53.668 26.8731 53.668C26.3718 53.668 26.0853 53.5626 26.0137 53.3516C25.942 53.211 25.96 53.0879 26.0674 52.9825C26.1749 52.877 26.336 52.7539 26.5509 52.6133C26.7657 52.4727 26.9089 52.3671 26.9806 52.2969C27.267 52.0859 27.4818 51.8047 27.6251 51.4531C27.8399 51.1719 27.8936 50.4336 27.7862 49.2383C27.6788 48.043 27.6608 47.2695 27.7325 46.918C25.8704 47.5508 23.9727 47.2343 22.039 45.9688C21.4661 45.4063 20.8932 44.5976 20.3203 43.543C19.8906 42.7695 19.0312 41.8554 17.7422 40.8007Z" fill="#FFFBFB"/>
</g>
<defs>
<clipPath id="clip0_5_442">
<rect width="70" height="70" fill="white"/>
</clipPath>
</defs>
</svg>
