<svg width="70" height="70" viewBox="0 0 70 70" fill="none" xmlns="http://www.w3.org/2000/svg">
<g clip-path="url(#clip0_4_326)">
<mask id="mask0_4_326" style="mask-type:luminance" maskUnits="userSpaceOnUse" x="0" y="0" width="70" height="70">
<path d="M60 0H10C4.47715 0 0 4.47715 0 10V60C0 65.5229 4.47715 70 10 70H60C65.5229 70 70 65.5229 70 60V10C70 4.47715 65.5229 0 60 0Z" fill="white"/>
</mask>
<g mask="url(#mask0_4_326)">
<path d="M60 0H10C4.47715 0 0 4.47715 0 10V60C0 65.5229 4.47715 70 10 70H60C65.5229 70 70 65.5229 70 60V10C70 4.47715 65.5229 0 60 0Z" fill="#53143D"/>
<path d="M94.8573 -15.5184C94.8573 -15.5184 68.4787 -2.95596 73.1606 28.1212C78.4135 62.967 47.9525 77.9223 27.1408 69.308C6.32912 60.6639 7.78508 28.6895 -31.7828 27.7024C-72.2071 26.7154 -80.7145 -13.5443 -80.7145 -13.5443" fill="#53143D"/>
<path d="M94.8573 -15.5184C94.8573 -15.5184 68.4787 -2.95596 73.1606 28.1212C78.4135 62.967 47.9525 77.9223 27.1408 69.308C6.32912 60.6639 7.78508 28.6895 -31.7828 27.7024C-72.2071 26.7154 -80.7145 -13.5443 -80.7145 -13.5443" stroke="white" stroke-opacity="0.2" stroke-width="2" stroke-miterlimit="10"/>
<path d="M64.3677 -24.8806C64.3677 -24.8806 52.9484 1.68003 57.0308 28.0911C61.1418 54.5021 42.671 57.6128 35.3341 54.5021C20.0894 48.1013 17.1489 13.8237 -7.4597 11.6103C-25.959 9.93534 -50.853 23.1857 -64.0423 -6.8744" fill="#53143D"/>
<path d="M64.3677 -24.8806C64.3677 -24.8806 52.9484 1.68003 57.0308 28.0911C61.1418 54.5021 42.671 57.6128 35.3341 54.5021C20.0894 48.1013 17.1489 13.8237 -7.4597 11.6103C-25.959 9.93534 -50.853 23.1857 -64.0423 -6.8744" stroke="white" stroke-opacity="0.2" stroke-width="2" stroke-miterlimit="10"/>
<path d="M52.0634 -13.0358C52.0634 -13.0358 56.1743 14.0931 37.9891 9.24755C17.1489 3.68419 17.4629 -9.35682 -8.91565 2.96633C-18.308 7.36319 -56.1059 8.64934 -48.4835 -15.5184" fill="#53143D"/>
<path d="M52.0634 -13.0358C52.0634 -13.0358 56.1743 14.0931 37.9891 9.24755C17.1489 3.68419 17.4629 -9.35682 -8.91565 2.96633C-18.308 7.36319 -56.1059 8.64934 -48.4835 -15.5184" stroke="#FBF6F6" stroke-opacity="0.2" stroke-width="2" stroke-miterlimit="10"/>
<path d="M38.8741 45.1403C43.2415 45.1403 46.782 39.6766 46.782 32.9368C46.782 26.197 43.2415 20.7333 38.8741 20.7333C34.5067 20.7333 30.9663 26.197 30.9663 32.9368C30.9663 39.6766 34.5067 45.1403 38.8741 45.1403Z" fill="#53143D" stroke="white" stroke-opacity="0.2" stroke-width="2" stroke-miterlimit="10"/>
</g>
<path d="M18.5504 44.724L16.9417 43.8974L34.8628 16.2728L36.4715 17.0994L18.5504 44.724Z" fill="#E535AB"/>
<path d="M16.5733 41.6905H52.4155V43.3437H16.5733V41.6905Z" fill="#E535AB"/>
<path d="M35.2104 51.8315L17.2826 42.6193L18.2114 41.1876L36.1391 50.3998L35.2104 51.8315ZM50.7842 27.8221L32.8564 18.6099L33.7852 17.1782L51.7129 26.3904L50.7842 27.8221Z" fill="#E535AB"/>
<path d="M18.2163 27.8158L17.2875 26.3841L35.2153 17.1719L36.1441 18.6036L18.2163 27.8158Z" fill="#E535AB"/>
<path d="M50.4536 44.7243L32.5325 17.0997L34.1412 16.2731L52.0623 43.8977L50.4536 44.7243ZM17.9945 25.2878H19.8521V43.7122H17.9945V25.2878Z" fill="#E535AB"/>
<path d="M49.1479 25.2878H51.0055V43.7122H49.1479V25.2878Z" fill="#E535AB"/>
<path d="M34.8941 51.1318L34.0828 49.8811L49.6752 41.869L50.4865 43.1196L34.8941 51.1318Z" fill="#E535AB"/>
<path d="M53.4673 44.25C52.3931 45.9132 49.9984 46.4808 48.1296 45.5248C46.2609 44.5687 45.623 42.4374 46.6973 40.7743C47.7715 39.1111 50.1662 38.5434 52.035 39.4995C53.9149 40.4655 54.5528 42.5868 53.4673 44.25ZM22.2915 28.2257C21.2173 29.8889 18.8226 30.4566 16.9538 29.5005C15.0851 28.5444 14.4472 26.4132 15.5215 24.75C16.5957 23.0868 18.9904 22.5192 20.8592 23.4752C22.7279 24.4413 23.3658 26.5626 22.2915 28.2257ZM15.5327 44.25C14.4584 42.5868 15.0962 40.4655 16.965 39.4995C18.8338 38.5434 21.2173 39.1111 22.3027 40.7743C23.377 42.4374 22.7391 44.5587 20.8704 45.5248C18.9904 46.4808 16.6069 45.9132 15.5327 44.25ZM46.7085 28.2257C45.6342 26.5626 46.2721 24.4413 48.1408 23.4752C50.0096 22.5192 52.3931 23.0868 53.4785 24.75C54.5528 26.4132 53.9149 28.5345 52.0462 29.5005C50.1774 30.4566 47.7827 29.8889 46.7085 28.2257ZM34.5 54C32.3403 54 30.5946 52.4464 30.5946 50.5243C30.5946 48.6021 32.3403 47.0485 34.5 47.0485C36.6597 47.0485 38.4054 48.6021 38.4054 50.5243C38.4054 52.4364 36.6597 54 34.5 54ZM34.5 21.9515C32.3403 21.9515 30.5946 20.3979 30.5946 18.4757C30.5946 16.5536 32.3403 15 34.5 15C36.6597 15 38.4054 16.5536 38.4054 18.4757C38.4054 20.3979 36.6597 21.9515 34.5 21.9515Z" fill="#E535AB"/>
</g>
<defs>
<clipPath id="clip0_4_326">
<rect width="70" height="70" fill="white"/>
</clipPath>
</defs>
</svg>
