<svg width="70" height="70" viewBox="0 0 70 70" fill="none" xmlns="http://www.w3.org/2000/svg">
<g clip-path="url(#clip0_2_78)">
<mask id="mask0_2_78" style="mask-type:luminance" maskUnits="userSpaceOnUse" x="0" y="0" width="70" height="70">
<path d="M60 0H10C4.47715 0 0 4.47715 0 10V60C0 65.5229 4.47715 70 10 70H60C65.5229 70 70 65.5229 70 60V10C70 4.47715 65.5229 0 60 0Z" fill="white"/>
</mask>
<g mask="url(#mask0_2_78)">
<path d="M60 0H10C4.47718 0 3.05176e-05 4.47715 3.05176e-05 10V60C3.05176e-05 65.5229 4.47718 70 10 70H60C65.5229 70 70 65.5229 70 60V10C70 4.47715 65.5229 0 60 0Z" fill="#460001"/>
<path d="M94.8573 -15.5184C94.8573 -15.5184 68.4787 -2.95596 73.1606 28.1212C78.4135 62.967 47.9525 77.9223 27.1408 69.308C6.32914 60.6639 7.7851 28.6895 -31.7828 27.7024C-72.2071 26.7154 -80.7145 -13.5443 -80.7145 -13.5443" stroke="white" stroke-opacity="0.2" stroke-width="2" stroke-miterlimit="10"/>
<path d="M64.3677 -24.8806C64.3677 -24.8806 52.9484 1.68003 57.0308 28.0911C61.1418 54.5021 42.671 57.6128 35.3341 54.5021C20.0894 48.1013 17.1489 13.8237 -7.4597 11.6103C-25.959 9.93534 -50.853 23.1857 -64.0423 -6.8744" stroke="white" stroke-opacity="0.2" stroke-width="2" stroke-miterlimit="10"/>
<path d="M52.0634 -13.0358C52.0634 -13.0358 56.1743 14.0931 37.9891 9.24755C17.1489 3.68419 17.4629 -9.35682 -8.91566 2.96633C-18.308 7.36319 -56.1059 8.64934 -48.4835 -15.5184" stroke="#FBF6F6" stroke-opacity="0.2" stroke-width="2" stroke-miterlimit="10"/>
<path d="M38.8741 45.1403C43.2415 45.1403 46.782 39.6766 46.782 32.9368C46.782 26.197 43.2415 20.7333 38.8741 20.7333C34.5067 20.7333 30.9663 26.197 30.9663 32.9368C30.9663 39.6766 34.5067 45.1403 38.8741 45.1403Z" stroke="white" stroke-opacity="0.2" stroke-width="2" stroke-miterlimit="10"/>
</g>
<path fill-rule="evenodd" clip-rule="evenodd" d="M39.4332 10.0119C39.0731 10.0119 38.7366 10.089 38.4297 10.1898C39.0879 10.6346 39.4479 11.2128 39.6309 11.874C39.6427 11.963 39.6693 12.0282 39.6811 12.1202C39.6929 12.2121 39.7106 12.2743 39.7106 12.3574C39.7637 13.499 39.4155 13.6413 39.1675 14.3144C38.7927 15.1833 38.896 16.1173 39.3446 16.8645C39.3857 16.9646 39.4372 17.06 39.4981 17.1492C39.0082 13.8696 41.7324 13.3745 42.2342 12.3514C42.2725 11.4559 41.5376 10.8599 40.9562 10.4448C40.4013 10.1067 39.8936 10 39.4332 10V10.0119ZM43.5358 10.7532C43.4827 11.0497 43.524 10.9726 43.5063 11.1298L43.4768 11.4678L43.3882 11.7791C43.3587 11.8829 43.3233 11.9867 43.2849 12.0905L43.1432 12.387C43.1049 12.4404 43.0783 12.4908 43.0399 12.5412L42.9632 12.6598L42.7684 12.9178C42.6917 12.9949 42.6267 13.0868 42.5323 13.155C42.4378 13.2232 42.3788 13.3092 42.2873 13.3745C42.0158 13.582 41.7058 13.7362 41.4225 13.9319C41.334 13.9972 41.2454 14.0505 41.1657 14.1276C41.0784 14.1897 40.9964 14.2592 40.9207 14.3352C40.8322 14.4123 40.7673 14.4894 40.6846 14.5813C40.602 14.6732 40.5429 14.7503 40.4898 14.8393L40.3127 15.1121L40.1711 15.4086L40.0678 15.7051L39.9792 16.0313C39.9674 16.0847 39.9674 16.1499 39.9497 16.2003C39.932 16.2507 39.9379 16.3041 39.9202 16.3545L39.9084 16.6807C39.9084 16.7578 39.9084 16.8349 39.9202 16.9179C39.9202 17.0217 39.932 17.1255 39.9585 17.2441C39.9851 17.3627 39.9969 17.4517 40.0235 17.5554L40.1268 17.8668C40.1563 17.932 40.1917 17.9973 40.2153 18.0447L37.2461 16.8883L35.7497 16.5028L34.9351 16.3071C34.1582 16.1515 33.3741 16.0347 32.5857 15.9572C32.5561 15.9572 32.5473 15.9453 32.5207 15.9453L30.2097 15.8267L28.5185 15.8919C27.7304 15.9453 26.9424 16.0461 26.1573 16.1766L25.5758 16.2804L24.4129 16.5384L23.8315 16.6926L23.2766 16.9387L22.8516 17.1344C22.822 17.1462 22.7984 17.1462 22.7866 17.164L22.4265 17.342C22.3882 17.3538 22.3616 17.3716 22.338 17.3805L21.9366 17.5881C21.848 17.6266 21.7595 17.677 21.6798 17.7185C21.6414 17.7482 21.5913 17.7689 21.5617 17.7838L21.2253 17.9795C21.1184 18.0388 21.0149 18.1041 20.9154 18.1752L20.6586 18.3531L20.3752 18.5607L20.1568 18.7386C20.1273 18.7504 20.1037 18.7771 20.0801 18.792L19.8853 18.961C19.8735 18.9906 19.8469 18.9995 19.8322 19.0144L19.596 19.2338L19.3393 19.4799L19.1208 19.7171C19.0913 19.7468 19.0559 19.7705 19.0323 19.7942C18.963 19.8755 18.8901 19.9536 18.8139 20.0285C18.8021 20.0581 18.7755 20.067 18.7608 20.0937L18.4656 20.4051L17.769 21.0782C17.5329 21.2857 17.2909 21.4814 17.0459 21.6475L16.2726 22.1397C16.0158 22.2821 15.7414 22.4125 15.458 22.5252C15.1837 22.6424 14.904 22.7463 14.6198 22.8366C14.0767 22.9552 13.5218 23.1746 13.0437 23.2131C12.9404 23.2131 12.8253 23.2428 12.719 23.2517L12.3943 23.3288L12.0844 23.4474C11.9788 23.4895 11.8753 23.537 11.7745 23.5897C11.686 23.655 11.5797 23.7083 11.4912 23.7676C11.4026 23.8269 11.3141 23.91 11.2344 23.9871C11.1547 24.0642 11.0573 24.1413 10.9776 24.2243L10.7592 24.4823C10.6943 24.5861 10.6175 24.678 10.5644 24.7788C10.4968 24.8738 10.4367 24.974 10.3844 25.0783L10.2427 25.4163L10.1246 25.7544L10.0597 26.0657C10.0213 26.2199 10.0213 26.3771 10.0066 26.4512C9.9918 26.5253 10.0066 26.6232 10.0066 26.7151C10.0041 26.7717 10.008 26.8284 10.0184 26.8841C10.0302 26.9731 10.0479 27.0531 10.0715 27.1302L10.16 27.3675C10.1984 27.4564 10.2486 27.5365 10.3017 27.6136L10.4699 27.8508L10.6884 28.0584C10.764 28.1344 10.846 28.2038 10.9333 28.2659C11.2432 28.5387 11.317 28.6277 11.7214 28.8353C11.7863 28.8738 11.8513 28.9005 11.928 28.939C11.9664 28.9776 11.9664 28.9894 11.9811 29.0161C11.9929 29.1199 12.0195 29.2237 12.0461 29.3275C12.0707 29.4343 12.1053 29.5385 12.1494 29.6388L12.2527 29.8761C12.2645 29.9057 12.2822 29.9294 12.291 29.9413L12.4445 30.226L12.6393 30.4988L12.8577 30.7449C12.9345 30.822 13.0112 30.8872 13.1027 30.9643L13.3595 31.16C13.448 31.2252 13.5366 31.2786 13.6428 31.329C13.7383 31.3843 13.838 31.4319 13.9409 31.4714C14.0177 31.5099 14.1092 31.5366 14.1977 31.5603C14.2863 31.584 14.3659 31.6137 14.4161 31.6255C14.3778 32.3253 14.363 32.9896 14.4693 33.2209C14.5873 33.4788 15.154 32.6871 15.7207 31.7827C15.644 32.6782 15.5908 33.7279 15.7207 34.0363C15.8506 34.3447 16.6357 33.3484 17.3086 32.2334C26.4583 30.1073 34.8111 36.4619 35.6877 45.4347C35.5195 44.0351 33.8046 43.2552 33.0166 43.448C32.6329 44.4087 31.9717 45.6423 30.9122 46.4043C31.0007 45.5444 30.9623 44.6667 30.7823 43.8097C30.4935 45.0035 29.9475 46.119 29.1826 47.0774C27.9577 47.1664 26.7328 46.5734 26.0835 45.6779C26.0303 45.6393 26.0185 45.5592 25.9802 45.5088L25.8769 45.236C25.8385 45.1471 25.8119 45.0581 25.8001 44.9632C25.7883 44.8683 25.7883 44.7853 25.7883 44.6786V44.4829C25.8001 44.3939 25.8267 44.3049 25.8533 44.2101L25.9418 43.9373C25.9949 43.8483 26.0303 43.7593 26.0953 43.6645C26.3137 43.0714 26.3137 42.5377 25.9182 42.2411C25.8414 42.1878 25.7647 42.1522 25.6732 42.1107C25.6201 42.0988 25.5551 42.0721 25.505 42.0573L25.4017 42.0187L25.1301 41.9535C25.0419 41.9279 24.9505 41.9149 24.8586 41.915C24.7649 41.8996 24.6702 41.8907 24.5752 41.8883C24.5103 41.8883 24.4454 41.9001 24.3804 41.9001C24.2846 41.8993 24.1892 41.9123 24.0971 41.9387L23.8256 41.9891L23.554 42.078L23.2972 42.1967L23.0523 42.3271C20.0417 44.299 21.8421 48.91 23.8905 50.2503C23.1172 50.3926 22.3262 50.5616 22.1107 50.7306C22.642 51.0924 23.2205 51.383 23.8285 51.6261L25.9182 52.2192C26.9896 52.4564 28.0728 52.5305 29.1708 52.4653C31.9598 52.2601 34.5955 51.1046 36.6419 49.1899C38.6884 47.2752 40.023 44.716 40.4249 41.9357L40.5016 42.2737L40.6197 43.0002L40.6728 43.3501L40.7023 43.7356L40.7318 44.1626V44.3702C40.7318 44.4354 40.7437 44.5125 40.7437 44.5777C40.7437 44.643 40.7318 44.7319 40.7318 44.815V44.9929C40.7318 45.0818 40.72 45.1619 40.72 45.2509C40.72 45.3013 40.72 45.3546 40.7082 45.4199L40.6964 45.7045C40.6846 45.7431 40.6846 45.7816 40.6846 45.8231L40.6463 46.1197C40.6463 46.1582 40.6463 46.1968 40.6344 46.2383L40.5843 46.6149V46.6445L40.5075 47.0063L40.4308 47.3918L40.3275 47.795L40.2242 48.1983L40.0943 48.6134L39.811 49.3666L39.6575 49.7432L39.4804 50.105C39.4686 50.1435 39.4509 50.1702 39.442 50.1939C38.5772 51.9316 37.3376 53.426 35.7881 54.5884C35.6848 54.6537 35.5815 54.7308 35.4781 54.8078C35.4486 54.8375 35.4132 54.8464 35.3896 54.8731L35.1063 55.0688L35.1446 55.1459H35.1564L35.6995 55.0688H35.7113L36.7148 54.8909C36.8034 54.879 36.9096 54.8523 36.9982 54.8256L37.1753 54.7871L37.4468 54.7367L37.6829 54.6714C38.9727 54.3601 40.2212 53.9301 41.4255 53.426C39.3742 56.243 36.6233 58.5085 33.4091 60C34.8937 59.8962 36.3784 59.6501 37.8069 59.235C43.0075 57.693 47.3846 54.1792 50.0055 49.4437C49.4741 52.4461 48.2888 55.2934 46.5345 57.782C47.786 56.9517 48.9341 55.9939 49.9819 54.9057C52.8708 51.8753 54.767 48.029 55.4156 43.8839C55.8584 45.9299 55.9823 48.0471 55.7905 50.1346C65.1084 37.0757 56.5638 23.5364 52.9865 19.9721C52.9747 19.9425 52.957 19.9336 52.957 19.9069C52.9275 20.0611 52.9187 20.2182 52.9069 20.3724C52.8685 20.669 52.8301 20.9566 52.777 21.2413C52.7239 21.5259 52.6353 21.8106 52.5586 22.1012C52.4818 22.3918 52.3638 22.6586 52.2487 22.9314C52.1336 23.2042 52.0037 23.4652 51.865 23.7232C51.7227 23.9768 51.5681 24.2232 51.4016 24.4615C51.2333 24.7076 51.0533 24.9419 50.8703 25.1613C50.6777 25.387 50.4748 25.6037 50.2623 25.8107C50.1324 25.9293 50.0173 26.0301 49.8875 26.1369L49.5923 26.3949C49.3618 26.5786 49.1203 26.7479 48.8692 26.9019C48.6227 27.0616 48.3686 27.2091 48.1077 27.3437C47.8361 27.4742 47.5646 27.5898 47.2931 27.7055C47.0182 27.81 46.7385 27.901 46.4548 27.9783C46.1715 28.0554 45.8734 28.1206 45.59 28.174C45.3067 28.2274 44.9997 28.2511 44.7134 28.2778C44.5068 28.2896 44.3002 28.3074 44.1231 28.3074C43.828 28.3074 43.5328 28.2778 43.2465 28.2541C42.9602 28.2303 42.6562 28.1888 42.367 28.1236C42.0741 28.0704 41.7851 27.997 41.5022 27.9042H41.4904C41.7737 27.8745 42.0571 27.8508 42.3463 27.8004C42.6356 27.75 42.9278 27.6818 43.2111 27.6047C43.4945 27.5276 43.7778 27.4357 44.0494 27.3319C44.3209 27.2281 44.6042 27.0946 44.864 26.9701C45.1285 26.8405 45.3866 26.698 45.6373 26.5431C45.8822 26.3741 46.1272 26.2051 46.3604 26.0242C46.5916 25.8434 46.8115 25.6483 47.0186 25.44C47.237 25.2443 47.4318 25.0249 47.6266 24.8055C47.8214 24.5861 48.0014 24.3399 48.1697 24.1057C48.1992 24.0671 48.2228 24.0167 48.2464 23.9752L48.6213 23.3822C48.7629 23.1242 48.8928 22.8632 49.0049 22.5904C49.1171 22.3176 49.2234 22.0448 49.3149 21.7602C49.4064 21.4755 49.4683 21.2027 49.5333 20.918C49.5982 20.6334 49.6366 20.3339 49.6631 20.0492C49.6897 19.7646 49.7133 19.4562 49.7133 19.1685C49.7133 18.961 49.7015 18.7534 49.6838 18.5755C49.6543 18.279 49.6189 17.9913 49.5805 17.7067C49.5291 17.4142 49.4641 17.1242 49.3857 16.8379C49.2971 16.5651 49.2086 16.2804 49.1023 16.0076C48.9961 15.7348 48.8662 15.462 48.7423 15.207C48.6183 14.952 48.4589 14.6881 48.2995 14.4419C48.1402 14.1958 47.9631 13.9616 47.783 13.7303L47.1927 13.069C47.0837 12.9581 46.9715 12.8503 46.8562 12.7458C46.2779 12.2942 45.6791 11.8697 45.0617 11.4737C44.9732 11.4233 44.8935 11.3848 44.8049 11.3433C44.3799 11.0705 43.9785 10.9281 43.5801 10.7977L43.5358 10.7532Z" fill="#EA2845"/>
</g>
<defs>
<clipPath id="clip0_2_78">
<rect width="70" height="70" fill="white"/>
</clipPath>
</defs>
</svg>
