<svg width="70" height="70" viewBox="0 0 70 70" fill="none" xmlns="http://www.w3.org/2000/svg">
<g clip-path="url(#clip0_4_304)">
<mask id="mask0_4_304" style="mask-type:luminance" maskUnits="userSpaceOnUse" x="0" y="0" width="70" height="70">
<path d="M60 0H10C4.47715 0 0 4.47715 0 10V60C0 65.5229 4.47715 70 10 70H60C65.5229 70 70 65.5229 70 60V10C70 4.47715 65.5229 0 60 0Z" fill="white"/>
</mask>
<g mask="url(#mask0_4_304)">
<path d="M60 0H10C4.47715 0 0 4.47715 0 10V60C0 65.5229 4.47715 70 10 70H60C65.5229 70 70 65.5229 70 60V10C70 4.47715 65.5229 0 60 0Z" fill="#316822"/>
<path d="M94.8573 -15.5184C94.8573 -15.5184 68.4787 -2.95596 73.1606 28.1212C78.4135 62.967 47.9525 77.9223 27.1408 69.308C6.32911 60.6639 7.78507 28.6895 -31.7828 27.7024C-72.2071 26.7154 -80.7145 -13.5443 -80.7145 -13.5443" fill="#316822"/>
<path d="M94.8573 -15.5184C94.8573 -15.5184 68.4787 -2.95596 73.1606 28.1212C78.4135 62.967 47.9525 77.9223 27.1408 69.308C6.32911 60.6639 7.78507 28.6895 -31.7828 27.7024C-72.2071 26.7154 -80.7145 -13.5443 -80.7145 -13.5443" stroke="white" stroke-opacity="0.2" stroke-width="2" stroke-miterlimit="10"/>
<path d="M64.3677 -24.8806C64.3677 -24.8806 52.9484 1.68003 57.0308 28.0911C61.1418 54.5021 42.671 57.6128 35.3341 54.5021C20.0894 48.1013 17.1489 13.8237 -7.4597 11.6103C-25.959 9.93534 -50.853 23.1857 -64.0423 -6.8744" fill="#316822"/>
<path d="M64.3677 -24.8806C64.3677 -24.8806 52.9484 1.68003 57.0308 28.0911C61.1418 54.5021 42.671 57.6128 35.3341 54.5021C20.0894 48.1013 17.1489 13.8237 -7.4597 11.6103C-25.959 9.93534 -50.853 23.1857 -64.0423 -6.8744" stroke="white" stroke-opacity="0.2" stroke-width="2" stroke-miterlimit="10"/>
<path d="M52.0634 -13.0358C52.0634 -13.0358 56.1743 14.0931 37.9891 9.24755C17.1489 3.68419 17.4629 -9.35682 -8.91566 2.96633C-18.308 7.36319 -56.1059 8.64934 -48.4835 -15.5184" fill="#316822"/>
<path d="M52.0634 -13.0358C52.0634 -13.0358 56.1743 14.0931 37.9891 9.24755C17.1489 3.68419 17.4629 -9.35682 -8.91566 2.96633C-18.308 7.36319 -56.1059 8.64934 -48.4835 -15.5184" stroke="#FBF6F6" stroke-opacity="0.2" stroke-width="2" stroke-miterlimit="10"/>
<path d="M38.8741 45.1403C43.2415 45.1403 46.782 39.6766 46.782 32.9368C46.782 26.197 43.2415 20.7333 38.8741 20.7333C34.5067 20.7333 30.9663 26.197 30.9663 32.9368C30.9663 39.6766 34.5067 45.1403 38.8741 45.1403Z" fill="#316822" stroke="white" stroke-opacity="0.2" stroke-width="2" stroke-miterlimit="10"/>
</g>
<g clip-path="url(#clip1_4_304)">
<path d="M38.3818 55C37.7033 55 37.0788 54.7444 36.6165 54.332C36.1362 54.7444 35.5297 54.9709 34.9053 54.9709H34.8753C34.2028 54.9593 33.5423 54.6805 33.062 54.1984C32.5756 53.722 32.3054 53.0772 32.3114 52.4325V52.1711L31.6029 53.5536L31.3027 54.1403C31.0505 54.6398 30.5221 54.9593 29.9397 54.9593H23.9054C23.359 54.9593 22.8546 54.6689 22.5845 54.2158L22.2782 53.6814L21.4617 52.293V52.4673C21.4617 53.8498 20.2968 54.9767 18.8678 54.9767C18.1713 54.9767 17.5228 54.7153 17.0305 54.239L13.1937 50.5271V52.4673C13.1937 53.8498 12.0289 54.9767 10.5999 54.9767C9.17084 54.9767 8 53.8556 8 52.4673V44.451C8 43.4345 8.63045 42.5225 9.60315 42.1275C9.92138 41.9997 10.2516 41.9358 10.5939 41.9358C11.2904 41.9358 11.9388 42.1972 12.4312 42.6735L16.2739 46.3912V44.451C16.2739 43.0685 17.4388 41.9416 18.8678 41.9416C20.2968 41.9416 21.4617 43.0685 21.4617 44.451V44.666L22.2662 43.2544L22.5604 42.7258C22.8246 42.2553 23.335 41.9532 23.8934 41.9532H30.1799C30.7623 41.9532 31.2847 42.2727 31.5369 42.7723L31.8371 43.3648C31.8551 43.388 31.8611 43.4171 31.8731 43.4403L32.3114 44.4568C32.3114 43.8179 32.5816 43.1847 33.062 42.7142C33.5483 42.232 34.2088 41.9532 34.8753 41.9416H34.9053C35.5357 41.9416 36.1602 42.1798 36.6465 42.6096C37.1029 42.2088 37.7153 41.9648 38.3818 41.9648C39.8108 41.9648 40.9756 43.0918 40.9756 44.4743V46.4203L44.8184 42.7026C45.3047 42.232 45.9652 41.9648 46.6557 41.9648C46.998 41.9648 47.3282 42.0287 47.6464 42.1565C47.9166 42.2611 48.1628 42.4121 48.3729 42.598C48.8473 42.1856 49.4537 41.9648 50.0962 41.9648C50.7867 41.9648 51.4351 42.2204 51.9335 42.6968L54.2512 44.9274L56.5688 42.6968C57.0612 42.2262 57.7156 41.9648 58.4061 41.9648C59.1026 41.9648 59.7571 42.2262 60.2435 42.7084C61.2582 43.6901 61.2522 45.2875 60.2374 46.2634L57.9318 48.4824L60.2254 50.6956C61.2402 51.6773 61.2462 53.2689 60.2314 54.2506C59.7451 54.727 59.0846 54.9942 58.3941 54.9942C57.6976 54.9942 57.0492 54.7328 56.5568 54.2564L54.2512 52.0316L51.9515 54.2448C51.4652 54.7153 50.8107 54.9767 50.1142 54.9767C49.4897 54.9767 48.8773 54.7502 48.403 54.3552C47.9466 54.756 47.3342 55.0058 46.6617 55.0058C45.2327 55.0058 44.0679 53.8789 44.0679 52.4963V50.5504L40.2251 54.2681C39.7327 54.7386 39.0843 55 38.3818 55ZM49.2616 49.7371L50.5765 48.4708L49.2616 47.2045V49.7371Z" fill="white"/>
<path d="M18.8738 53.5187C18.5916 53.5187 18.3154 53.4142 18.1053 53.2109L11.6807 46.9896V52.4673C11.6807 53.0482 11.1943 53.5129 10.5999 53.5129C10.0055 53.5129 9.5191 53.0424 9.5191 52.4673V44.4511C9.5191 44.027 9.78329 43.6436 10.1916 43.481C10.5999 43.3183 11.0622 43.4055 11.3744 43.7075L17.793 49.923V44.4511C17.793 43.8702 18.2794 43.4055 18.8738 43.4055C19.4742 43.4055 19.9546 43.876 19.9546 44.4511V52.4615C19.9606 53.0424 19.4742 53.5187 18.8738 53.5187ZM23.9054 43.4171L23.6052 43.9573L21.2996 48.0119L20.9993 48.5231L21.2996 49.0343L23.6052 52.9611L23.9174 53.4955H29.9578L30.258 52.903L31.9812 49.5397L32.7558 48.0177H31.0085L26.6014 48.0352C26.0249 48.0235 25.4966 48.5347 25.4966 49.0808C25.4966 49.6384 26.0249 50.138 26.6014 50.1264L29.2613 50.1089L28.6128 51.3811H25.1903L23.4911 48.4999L25.2023 45.5083H28.841L29.6876 47.1929H31.8731L30.4981 43.998L30.1979 43.4055H23.9054M34.9053 43.3997C34.3349 43.4055 33.8245 43.9109 33.8305 44.4627V47.2045H36.0041V44.4627C36.0101 43.905 35.4817 43.388 34.9053 43.3997ZM38.3878 53.5362C37.7874 53.5362 37.307 53.0657 37.307 52.4906V44.4743C37.307 43.8934 37.7934 43.4287 38.3878 43.4287C38.9882 43.4287 39.4686 43.8992 39.4686 44.4743V49.9521L45.8932 43.7366C46.2054 43.4345 46.6677 43.3474 47.076 43.51C47.4843 43.6727 47.7485 44.0561 47.7485 44.4801V52.4906C47.7485 53.0715 47.2622 53.5362 46.6677 53.5362C46.0673 53.5362 45.587 53.0657 45.587 52.4906V47.007L39.1564 53.2283C38.9522 53.4258 38.676 53.5362 38.3878 53.5362ZM55.8003 48.4708L59.1747 45.212C59.601 44.7996 59.601 44.1374 59.1807 43.725C58.7544 43.3125 58.0699 43.3125 57.6436 43.7192L54.2632 46.9838L50.8828 43.7192C50.4565 43.3067 49.772 43.3067 49.3457 43.725C48.9194 44.1374 48.9194 44.7996 49.3457 45.212L52.7201 48.4708L49.3517 51.718C48.9254 52.1304 48.9254 52.7926 49.3457 53.2051C49.5498 53.4026 49.826 53.5188 50.1142 53.5129C50.3904 53.5129 50.6666 53.4084 50.8828 53.2051L54.2572 49.9521L57.6316 53.2051C57.8357 53.4026 58.1119 53.5129 58.4002 53.5129C58.6764 53.5129 58.9586 53.4084 59.1687 53.2051C59.595 52.7926 59.595 52.1304 59.1627 51.718L55.8003 48.4708ZM34.9053 53.5071C34.3349 53.5013 33.8245 52.9959 33.8305 52.4441V48.0468H36.0041V52.4441C36.0101 53.0018 35.4817 53.5129 34.9053 53.5071Z" fill="#009900"/>
<path d="M44.8724 43.3706C43.7496 43.359 42.6929 42.9349 41.9063 42.1682L28.3066 29.0168V39.2637C28.3066 41.5234 26.4032 43.3706 24.0615 43.3706C21.7198 43.3706 19.8165 41.5292 19.8165 39.2637V19.1069C19.8165 17.4397 20.8432 15.9527 22.4343 15.3137C22.9507 15.1046 23.4971 15 24.0555 15C25.1903 15 26.2591 15.4299 27.0577 16.2024L40.6634 29.3538V19.1069C40.6634 16.8414 42.5668 15 44.9025 15C47.2381 15 49.1475 16.8414 49.1475 19.1069V39.2695C49.1475 41.5292 47.2441 43.3764 44.9025 43.3764H44.8724V43.3706Z" fill="#FEFFFD"/>
<path d="M44.9025 41.9067C44.194 41.9067 43.4915 41.6395 42.9691 41.1342L26.7995 25.485V39.2637C26.7995 40.7275 25.5746 41.9067 24.0675 41.9067C22.5604 41.9067 21.3356 40.7217 21.3356 39.2637V19.1069C21.3356 18.0322 22.002 17.0738 23.0228 16.6613C24.0435 16.2489 25.2204 16.4754 26.0009 17.2364L42.1705 32.8855V19.1069C42.1705 17.643 43.3954 16.4638 44.9025 16.4638C46.4155 16.4638 47.6344 17.6488 47.6344 19.1069V39.2695C47.6344 40.7275 46.4155 41.9067 44.9025 41.9067Z" fill="#009900"/>
</g>
</g>
<defs>
<clipPath id="clip0_4_304">
<rect width="70" height="70" fill="white"/>
</clipPath>
<clipPath id="clip1_4_304">
<rect width="53" height="40" fill="white" transform="translate(8 15)"/>
</clipPath>
</defs>
</svg>
