<svg width="70" height="70" viewBox="0 0 70 70" fill="none" xmlns="http://www.w3.org/2000/svg">
<g clip-path="url(#clip0_4_233)">
<mask id="mask0_4_233" style="mask-type:luminance" maskUnits="userSpaceOnUse" x="0" y="0" width="70" height="70">
<path d="M60 0H10C4.47715 0 0 4.47715 0 10V60C0 65.5229 4.47715 70 10 70H60C65.5229 70 70 65.5229 70 60V10C70 4.47715 65.5229 0 60 0Z" fill="white"/>
</mask>
<g mask="url(#mask0_4_233)">
<path d="M60 0H10C4.47715 0 0 4.47715 0 10V60C0 65.5229 4.47715 70 10 70H60C65.5229 70 70 65.5229 70 60V10C70 4.47715 65.5229 0 60 0Z" fill="#353535"/>
<path d="M94.8573 -15.5184C94.8573 -15.5184 68.4787 -2.95596 73.1606 28.1212C78.4135 62.967 47.9525 77.9223 27.1408 69.308C6.32911 60.6639 7.78507 28.6895 -31.7828 27.7024C-72.2071 26.7154 -80.7145 -13.5443 -80.7145 -13.5443" fill="#353535"/>
<path d="M94.8573 -15.5184C94.8573 -15.5184 68.4787 -2.95596 73.1606 28.1212C78.4135 62.967 47.9525 77.9223 27.1408 69.308C6.32911 60.6639 7.78507 28.6895 -31.7828 27.7024C-72.2071 26.7154 -80.7145 -13.5443 -80.7145 -13.5443" stroke="white" stroke-opacity="0.2" stroke-width="2" stroke-miterlimit="10"/>
<path d="M64.3677 -24.8806C64.3677 -24.8806 52.9484 1.68003 57.0308 28.0911C61.1418 54.5021 42.671 57.6128 35.3341 54.5021C20.0894 48.1013 17.1489 13.8237 -7.4597 11.6103C-25.959 9.93534 -50.853 23.1857 -64.0423 -6.8744" fill="#353535"/>
<path d="M64.3677 -24.8806C64.3677 -24.8806 52.9484 1.68003 57.0308 28.0911C61.1418 54.5021 42.671 57.6128 35.3341 54.5021C20.0894 48.1013 17.1489 13.8237 -7.4597 11.6103C-25.959 9.93534 -50.853 23.1857 -64.0423 -6.8744" stroke="white" stroke-opacity="0.2" stroke-width="2" stroke-miterlimit="10"/>
<path d="M52.0634 -13.0358C52.0634 -13.0358 56.1743 14.0931 37.9891 9.24755C17.1489 3.68419 17.4629 -9.35682 -8.91566 2.96633C-18.308 7.36319 -56.1059 8.64934 -48.4835 -15.5184" fill="#353535"/>
<path d="M52.0634 -13.0358C52.0634 -13.0358 56.1743 14.0931 37.9891 9.24755C17.1489 3.68419 17.4629 -9.35682 -8.91566 2.96633C-18.308 7.36319 -56.1059 8.64934 -48.4835 -15.5184" stroke="#FBF6F6" stroke-opacity="0.2" stroke-width="2" stroke-miterlimit="10"/>
<path d="M38.8741 45.1403C43.2415 45.1403 46.782 39.6766 46.782 32.9368C46.782 26.197 43.2415 20.7333 38.8741 20.7333C34.5067 20.7333 30.9663 26.197 30.9663 32.9368C30.9663 39.6766 34.5067 45.1403 38.8741 45.1403Z" fill="#353535" stroke="white" stroke-opacity="0.2" stroke-width="2" stroke-miterlimit="10"/>
</g>
<mask id="path-10-inside-1_4_233" fill="white">
<path d="M46.3788 19.0001C46.3224 19.0001 46.2669 19.0166 46.2179 19.0478C46.1692 19.0796 46.1287 19.125 46.1005 19.1796C46.0723 19.2341 46.0573 19.2959 46.0571 19.3589V28.5111C46.0571 28.6009 46.0197 28.6814 45.9499 28.7264C45.9158 28.7487 45.8769 28.7604 45.8373 28.7604C45.7978 28.7604 45.7589 28.7487 45.7248 28.7264L44.3845 27.8651C44.2867 27.802 44.1758 27.7688 44.0628 27.7688C43.9499 27.7688 43.8389 27.802 43.7412 27.8651L38.3909 31.3106C38.191 31.4394 38.0694 31.687 38.0694 31.9447V38.8358C38.0694 39.0932 38.1911 39.3289 38.3909 39.4578L43.7412 42.9034C43.8389 42.9667 43.9499 43 44.0628 43C44.1758 43 44.2868 42.9667 44.3845 42.9034L49.7347 39.4578C49.8327 39.3949 49.914 39.3042 49.9705 39.195C50.027 39.0858 50.0566 38.9619 50.0565 38.8358V21.656C50.0563 21.527 50.0255 21.4002 49.9671 21.2888C49.9087 21.1774 49.8249 21.0853 49.7241 21.0218L46.5396 19.0358C46.4897 19.0047 46.4342 18.9992 46.3788 19.0001ZM11.9614 27.6019C11.8594 27.6064 11.7635 27.6264 11.672 27.6856L6.32159 31.1311C6.22358 31.194 6.14221 31.2846 6.08573 31.3939C6.02925 31.5031 5.99967 31.6271 6 31.7532L6.01073 41.0013C6.01073 41.1299 6.07019 41.2494 6.17152 41.3123C6.22011 41.3449 6.27571 41.3621 6.33239 41.3621C6.38907 41.3621 6.44467 41.3449 6.49326 41.3123L9.66692 39.2786C9.86794 39.1452 9.99923 38.9134 9.99923 38.6563V34.3375C9.99923 34.0797 10.1207 33.8433 10.321 33.7153L11.6718 32.842C11.7695 32.7786 11.8806 32.7455 11.9936 32.7462C12.1038 32.7462 12.2171 32.777 12.3151 32.842L13.6661 33.7153C13.7642 33.778 13.8457 33.8687 13.9022 33.978C13.9587 34.0872 13.9883 34.2113 13.9879 34.3375V38.6562C13.9879 38.9132 14.1205 39.1467 14.3202 39.2784L17.4938 41.3123C17.5424 41.3449 17.598 41.3621 17.6547 41.3621C17.7114 41.3621 17.767 41.3449 17.8156 41.3123C17.8645 41.2807 17.9051 41.2353 17.9333 41.1807C17.9616 41.1261 17.9765 41.0642 17.9765 41.0012L17.9869 31.7532C17.9876 31.627 17.9581 31.5029 17.9016 31.3936C17.8451 31.2843 17.7636 31.1937 17.6654 31.1311L12.3151 27.6856C12.2247 27.6264 12.1284 27.6066 12.0257 27.6019H11.9614ZM60.0385 27.6856C59.9267 27.6856 59.8172 27.7171 59.7169 27.7813L54.3667 31.2269C54.2687 31.2898 54.1874 31.3804 54.1309 31.4897C54.0744 31.5989 54.0447 31.7228 54.045 31.849V38.74C54.045 38.9992 54.1758 39.234 54.3773 39.3622L59.6847 42.736C59.8807 42.8607 60.12 42.8701 60.3173 42.7476L63.5339 40.7498C63.636 40.6866 63.705 40.5685 63.7054 40.4388C63.706 40.3757 63.6913 40.3135 63.6631 40.2588C63.6348 40.2041 63.5939 40.1588 63.5446 40.1277L58.1622 36.6821C58.0615 36.618 57.9907 36.4881 57.9907 36.3591V34.2058C57.9907 34.0769 58.0622 33.9589 58.1622 33.8947L59.8348 32.8179C59.8837 32.7863 59.9392 32.7697 59.9957 32.7697C60.0521 32.7697 60.1076 32.7863 60.1565 32.8179L61.829 33.8947C61.878 33.9261 61.9187 33.9714 61.9469 34.026C61.9752 34.0806 61.99 34.1426 61.9899 34.2056V35.9045C61.9897 35.9675 62.0045 36.0295 62.0328 36.0841C62.061 36.1387 62.1017 36.184 62.1507 36.2154C62.251 36.2801 62.3723 36.2802 62.4723 36.2154L65.6783 34.1341C65.7761 34.071 65.8573 33.9802 65.9137 33.871C65.9702 33.7618 66 33.638 66 33.5119V31.8491C66 31.5922 65.8778 31.356 65.6783 31.2269L60.3602 27.7813C60.2625 27.7182 60.1514 27.6851 60.0385 27.6856ZM44.0413 32.83C44.0693 32.83 44.1021 32.8376 44.1271 32.8538L45.9607 34.0382C46.0104 34.0703 46.0465 34.1296 46.0465 34.1936V36.5624C46.0465 36.6268 46.0107 36.686 45.9607 36.7181L44.1271 37.9024C44.1026 37.918 44.0749 37.9263 44.0467 37.9263C44.0185 37.9263 43.9908 37.918 43.9663 37.9024L42.133 36.7181C42.083 36.6858 42.0471 36.6268 42.0471 36.5624V34.1936C42.0471 34.1295 42.0832 34.0706 42.133 34.0382L43.9663 32.8539C43.9889 32.8383 44.0148 32.8299 44.0413 32.83Z"/>
</mask>
<path d="M46.3788 19.0001C46.3224 19.0001 46.2669 19.0166 46.2179 19.0478C46.1692 19.0796 46.1287 19.125 46.1005 19.1796C46.0723 19.2341 46.0573 19.2959 46.0571 19.3589V28.5111C46.0571 28.6009 46.0197 28.6814 45.9499 28.7264C45.9158 28.7487 45.8769 28.7604 45.8373 28.7604C45.7978 28.7604 45.7589 28.7487 45.7248 28.7264L44.3845 27.8651C44.2867 27.802 44.1758 27.7688 44.0628 27.7688C43.9499 27.7688 43.8389 27.802 43.7412 27.8651L38.3909 31.3106C38.191 31.4394 38.0694 31.687 38.0694 31.9447V38.8358C38.0694 39.0932 38.1911 39.3289 38.3909 39.4578L43.7412 42.9034C43.8389 42.9667 43.9499 43 44.0628 43C44.1758 43 44.2868 42.9667 44.3845 42.9034L49.7347 39.4578C49.8327 39.3949 49.914 39.3042 49.9705 39.195C50.027 39.0858 50.0566 38.9619 50.0565 38.8358V21.656C50.0563 21.527 50.0255 21.4002 49.9671 21.2888C49.9087 21.1774 49.8249 21.0853 49.7241 21.0218L46.5396 19.0358C46.4897 19.0047 46.4342 18.9992 46.3788 19.0001ZM11.9614 27.6019C11.8594 27.6064 11.7635 27.6264 11.672 27.6856L6.32159 31.1311C6.22358 31.194 6.14221 31.2846 6.08573 31.3939C6.02925 31.5031 5.99967 31.6271 6 31.7532L6.01073 41.0013C6.01073 41.1299 6.07019 41.2494 6.17152 41.3123C6.22011 41.3449 6.27571 41.3621 6.33239 41.3621C6.38907 41.3621 6.44467 41.3449 6.49326 41.3123L9.66692 39.2786C9.86794 39.1452 9.99923 38.9134 9.99923 38.6563V34.3375C9.99923 34.0797 10.1207 33.8433 10.321 33.7153L11.6718 32.842C11.7695 32.7786 11.8806 32.7455 11.9936 32.7462C12.1038 32.7462 12.2171 32.777 12.3151 32.842L13.6661 33.7153C13.7642 33.778 13.8457 33.8687 13.9022 33.978C13.9587 34.0872 13.9883 34.2113 13.9879 34.3375V38.6562C13.9879 38.9132 14.1205 39.1467 14.3202 39.2784L17.4938 41.3123C17.5424 41.3449 17.598 41.3621 17.6547 41.3621C17.7114 41.3621 17.767 41.3449 17.8156 41.3123C17.8645 41.2807 17.9051 41.2353 17.9333 41.1807C17.9616 41.1261 17.9765 41.0642 17.9765 41.0012L17.9869 31.7532C17.9876 31.627 17.9581 31.5029 17.9016 31.3936C17.8451 31.2843 17.7636 31.1937 17.6654 31.1311L12.3151 27.6856C12.2247 27.6264 12.1284 27.6066 12.0257 27.6019H11.9614ZM60.0385 27.6856C59.9267 27.6856 59.8172 27.7171 59.7169 27.7813L54.3667 31.2269C54.2687 31.2898 54.1874 31.3804 54.1309 31.4897C54.0744 31.5989 54.0447 31.7228 54.045 31.849V38.74C54.045 38.9992 54.1758 39.234 54.3773 39.3622L59.6847 42.736C59.8807 42.8607 60.12 42.8701 60.3173 42.7476L63.5339 40.7498C63.636 40.6866 63.705 40.5685 63.7054 40.4388C63.706 40.3757 63.6913 40.3135 63.6631 40.2588C63.6348 40.2041 63.5939 40.1588 63.5446 40.1277L58.1622 36.6821C58.0615 36.618 57.9907 36.4881 57.9907 36.3591V34.2058C57.9907 34.0769 58.0622 33.9589 58.1622 33.8947L59.8348 32.8179C59.8837 32.7863 59.9392 32.7697 59.9957 32.7697C60.0521 32.7697 60.1076 32.7863 60.1565 32.8179L61.829 33.8947C61.878 33.9261 61.9187 33.9714 61.9469 34.026C61.9752 34.0806 61.99 34.1426 61.9899 34.2056V35.9045C61.9897 35.9675 62.0045 36.0295 62.0328 36.0841C62.061 36.1387 62.1017 36.184 62.1507 36.2154C62.251 36.2801 62.3723 36.2802 62.4723 36.2154L65.6783 34.1341C65.7761 34.071 65.8573 33.9802 65.9137 33.871C65.9702 33.7618 66 33.638 66 33.5119V31.8491C66 31.5922 65.8778 31.356 65.6783 31.2269L60.3602 27.7813C60.2625 27.7182 60.1514 27.6851 60.0385 27.6856ZM44.0413 32.83C44.0693 32.83 44.1021 32.8376 44.1271 32.8538L45.9607 34.0382C46.0104 34.0703 46.0465 34.1296 46.0465 34.1936V36.5624C46.0465 36.6268 46.0107 36.686 45.9607 36.7181L44.1271 37.9024C44.1026 37.918 44.0749 37.9263 44.0467 37.9263C44.0185 37.9263 43.9908 37.918 43.9663 37.9024L42.133 36.7181C42.083 36.6858 42.0471 36.6268 42.0471 36.5624V34.1936C42.0471 34.1295 42.0832 34.0706 42.133 34.0382L43.9663 32.8539C43.9889 32.8383 44.0148 32.8299 44.0413 32.83Z" fill="black" stroke="#FFFCFC" stroke-opacity="0.64" stroke-width="2" mask="url(#path-10-inside-1_4_233)"/>
<path d="M27.9729 28C27.8618 28 27.7519 28.0311 27.6524 28.0944L22.3206 31.4787C22.1212 31.6054 22 31.8499 22 32.1036V38.8955C22 39.1496 22.1213 39.3816 22.3206 39.5088L27.6524 42.9047C27.7497 42.9671 27.8603 43 27.9729 43C28.0855 43 28.1961 42.9671 28.2935 42.9047L33.6252 39.5088C33.7229 39.4468 33.8039 39.3574 33.8602 39.2497C33.9164 39.142 33.9459 39.0198 33.9457 38.8955V32.1036C33.9457 31.8495 33.8245 31.6054 33.6252 31.4787L28.2935 28.0944C28.196 28.0323 28.0854 27.9997 27.9729 28ZM59.8567 34.061C59.8354 34.061 59.8118 34.061 59.7927 34.0728L58.7669 34.7331C58.7478 34.7449 58.7318 34.7619 58.7205 34.7827C58.7093 34.8034 58.7032 34.827 58.7028 34.8511V36.1481C58.7028 36.197 58.7283 36.2417 58.7669 36.2661L59.7927 36.9146C59.8311 36.9392 59.8721 36.9392 59.9101 36.9146L60.9358 36.266C60.9549 36.2542 60.9708 36.2371 60.9821 36.2164C60.9933 36.1958 60.9995 36.1722 61 36.1481V34.851C60.9995 34.8269 60.9933 34.8033 60.9821 34.7827C60.9708 34.762 60.9549 34.7449 60.9358 34.7331L59.9101 34.0727C59.8911 34.0604 59.8781 34.061 59.8567 34.061Z" fill="#83CD29"/>
<path d="M36.4361 43C36.2101 43 35.9904 43.0532 35.7958 43.1786L29.6405 47.2275C29.2421 47.489 29 47.9827 29 48.508V56.5912C29 57.1161 29.2421 57.6092 29.6405 57.8713L31.248 58.9283C32.029 59.3668 32.3169 59.3599 32.6724 59.3599C33.8287 59.3599 34.4889 58.5607 34.4889 57.1718V49.1926C34.4889 49.0799 34.4032 48.9992 34.306 48.9992H33.535C33.4362 48.9992 33.3521 49.0799 33.3521 49.1926V57.1718C33.3521 57.7873 32.789 58.4066 31.8753 57.8862L30.2024 56.7698C30.1432 56.7332 30.0978 56.6684 30.0978 56.5912V48.5078C30.0978 48.4312 30.1427 48.3532 30.2024 48.3143L36.3447 44.2805C36.3725 44.262 36.4041 44.2523 36.4362 44.2523C36.4683 44.2523 36.4999 44.262 36.5276 44.2805L42.6701 48.3146C42.7286 48.3547 42.7747 48.429 42.7747 48.5082V56.5914C42.7747 56.6686 42.7406 56.7477 42.6832 56.7849L36.5276 60.819C36.475 60.8548 36.4023 60.8548 36.3447 60.819L34.7634 59.7472C34.7393 59.7324 34.7124 59.7246 34.685 59.7246C34.6576 59.7246 34.6307 59.7324 34.6066 59.7472C34.1702 60.029 34.0881 60.0617 33.6786 60.2235C33.5778 60.2637 33.4247 60.3259 33.731 60.5214L35.7958 61.9056C35.9905 62.0335 36.2115 62.1004 36.4363 62.0992C36.661 62.1008 36.8821 62.0341 37.0766 61.9058L43.2321 57.8715C43.6304 57.6077 43.8724 57.1163 43.8724 56.5914V48.508C43.8724 47.9829 43.6304 47.4901 43.2321 47.2279L37.0766 43.179C36.8837 43.0534 36.6624 43.0002 36.4363 43.0002L36.4361 43Z" fill="#83CD29"/>
<path d="M38.0828 48.7759C36.33 48.7759 35.2862 49.6257 35.2862 51.0388C35.2862 52.5715 36.3222 52.9927 38.0046 53.1822C40.0171 53.4067 40.1739 53.7433 40.1739 54.1946C40.1739 54.9773 39.626 55.311 38.3313 55.311C36.7044 55.311 36.3469 54.8484 36.2272 53.9266C36.2131 53.8277 36.146 53.7479 36.0572 53.7479H35.26C35.1619 53.7479 35.0771 53.8443 35.0771 53.9564C35.0771 55.1364 35.6405 56.5317 38.3313 56.5317C40.279 56.5317 41.4025 55.6608 41.4025 54.135C41.4025 52.6226 40.495 52.2164 38.6056 51.9319C36.6966 51.6441 36.5146 51.5033 36.5146 50.9941C36.5146 50.5737 36.669 50.0113 38.0828 50.0113C39.346 50.0113 39.8128 50.3217 40.004 51.2918C40.0207 51.3828 40.0912 51.4555 40.1739 51.4555H40.9713C41.0203 51.4555 41.0679 51.4211 41.1019 51.381C41.1353 51.3381 41.1589 51.2899 41.1542 51.2322C41.0307 49.5617 40.0527 48.7759 38.0828 48.7759Z" fill="#83CD29"/>
</g>
<defs>
<clipPath id="clip0_4_233">
<rect width="70" height="70" fill="white"/>
</clipPath>
</defs>
</svg>
