<svg width="70" height="70" viewBox="0 0 70 70" fill="none" xmlns="http://www.w3.org/2000/svg">
<g clip-path="url(#clip0_4_376)">
<mask id="mask0_4_376" style="mask-type:luminance" maskUnits="userSpaceOnUse" x="0" y="0" width="70" height="70">
<path d="M60 0H10C4.47715 0 0 4.47715 0 10V60C0 65.5229 4.47715 70 10 70H60C65.5229 70 70 65.5229 70 60V10C70 4.47715 65.5229 0 60 0Z" fill="white"/>
</mask>
<g mask="url(#mask0_4_376)">
<path d="M60 0H10C4.47715 0 0 4.47715 0 10V60C0 65.5229 4.47715 70 10 70H60C65.5229 70 70 65.5229 70 60V10C70 4.47715 65.5229 0 60 0Z" fill="black"/>
<path d="M94.8573 -15.5184C94.8573 -15.5184 68.4787 -2.95596 73.1606 28.1212C78.4135 62.967 47.9525 77.9223 27.1408 69.308C6.32914 60.6639 7.7851 28.6895 -31.7828 27.7024C-72.2071 26.7154 -80.7145 -13.5443 -80.7145 -13.5443" fill="black"/>
<path d="M94.8573 -15.5184C94.8573 -15.5184 68.4787 -2.95596 73.1606 28.1212C78.4135 62.967 47.9525 77.9223 27.1408 69.308C6.32914 60.6639 7.7851 28.6895 -31.7828 27.7024C-72.2071 26.7154 -80.7145 -13.5443 -80.7145 -13.5443" stroke="white" stroke-opacity="0.2" stroke-width="2" stroke-miterlimit="10"/>
<path d="M64.3677 -24.8806C64.3677 -24.8806 52.9484 1.68003 57.0308 28.0911C61.1418 54.5021 42.671 57.6128 35.3341 54.5021C20.0894 48.1013 17.1489 13.8237 -7.4597 11.6103C-25.959 9.93534 -50.853 23.1857 -64.0423 -6.8744" fill="black"/>
<path d="M64.3677 -24.8806C64.3677 -24.8806 52.9484 1.68003 57.0308 28.0911C61.1418 54.5021 42.671 57.6128 35.3341 54.5021C20.0894 48.1013 17.1489 13.8237 -7.4597 11.6103C-25.959 9.93534 -50.853 23.1857 -64.0423 -6.8744" stroke="white" stroke-opacity="0.2" stroke-width="2" stroke-miterlimit="10"/>
<path d="M52.0634 -13.0358C52.0634 -13.0358 56.1743 14.0931 37.9891 9.24755C17.1489 3.68419 17.4629 -9.35682 -8.91566 2.96633C-18.308 7.36319 -56.1059 8.64934 -48.4835 -15.5184" fill="black"/>
<path d="M52.0634 -13.0358C52.0634 -13.0358 56.1743 14.0931 37.9891 9.24755C17.1489 3.68419 17.4629 -9.35682 -8.91566 2.96633C-18.308 7.36319 -56.1059 8.64934 -48.4835 -15.5184" stroke="#FBF6F6" stroke-opacity="0.2" stroke-width="2" stroke-miterlimit="10"/>
<path d="M38.8741 45.1403C43.2415 45.1403 46.782 39.6766 46.782 32.9368C46.782 26.197 43.2415 20.7333 38.8741 20.7333C34.5067 20.7333 30.9663 26.197 30.9663 32.9368C30.9663 39.6766 34.5067 45.1403 38.8741 45.1403Z" fill="black" stroke="white" stroke-opacity="0.2" stroke-width="2" stroke-miterlimit="10"/>
</g>
<path d="M29.003 11.2853L29.003 11.2853L29.014 11.2825C35.4437 9.63356 42.5447 10.6013 48.1849 14.0823L48.1939 14.0878L48.2029 14.0932C55.3171 18.3476 59.9758 26.4209 60.0939 34.7036L60.0941 34.7162L60.0945 34.7288C60.3545 43.0934 55.981 51.4155 48.9723 55.9659L48.962 55.9726L48.9518 55.9794C41.1522 61.2263 30.3266 61.4261 22.3669 56.4425L22.3534 56.434L22.3397 56.4258C14.2262 51.5835 9.472 41.7803 10.6889 32.4011L10.6918 32.3784L10.694 32.3557C11.6728 22.4592 19.3504 13.6835 29.003 11.2853Z" stroke="#FEF5F5" stroke-width="3"/>
<path d="M28.8923 33.9414C34.6566 29.232 40.2952 24.3593 46.185 19.7881C43.0956 24.5352 39.9184 29.2193 36.8291 33.9663C34.1793 33.9789 31.5297 33.9791 28.8923 33.9414ZM33.765 36.5658C36.4272 36.5658 39.077 36.5658 41.7268 36.6036C35.925 41.2877 30.3115 46.1979 24.4091 50.7567C27.4984 46.0095 30.6756 41.313 33.765 36.5658Z" fill="#FFFDFD" fill-opacity="0.99"/>
</g>
<defs>
<clipPath id="clip0_4_376">
<rect width="70" height="70" fill="white"/>
</clipPath>
</defs>
</svg>
