<svg width="70" height="70" viewBox="0 0 70 70" fill="none" xmlns="http://www.w3.org/2000/svg">
<g clip-path="url(#clip0_4_390)">
<mask id="mask0_4_390" style="mask-type:luminance" maskUnits="userSpaceOnUse" x="0" y="0" width="70" height="70">
<path d="M60 0H10C4.47715 0 0 4.47715 0 10V60C0 65.5229 4.47715 70 10 70H60C65.5229 70 70 65.5229 70 60V10C70 4.47715 65.5229 0 60 0Z" fill="white"/>
</mask>
<g mask="url(#mask0_4_390)">
<path d="M60 0H10C4.47715 0 0 4.47715 0 10V60C0 65.5229 4.47715 70 10 70H60C65.5229 70 70 65.5229 70 60V10C70 4.47715 65.5229 0 60 0Z" fill="#3800A7"/>
<path d="M94.8573 -15.5184C94.8573 -15.5184 68.4787 -2.95596 73.1606 28.1212C78.4135 62.967 47.9525 77.9223 27.1408 69.308C6.32914 60.6639 7.7851 28.6895 -31.7828 27.7024C-72.2071 26.7154 -80.7145 -13.5443 -80.7145 -13.5443" fill="#3800A7"/>
<path d="M94.8573 -15.5184C94.8573 -15.5184 68.4787 -2.95596 73.1606 28.1212C78.4135 62.967 47.9525 77.9223 27.1408 69.308C6.32914 60.6639 7.7851 28.6895 -31.7828 27.7024C-72.2071 26.7154 -80.7145 -13.5443 -80.7145 -13.5443" stroke="white" stroke-opacity="0.2" stroke-width="2" stroke-miterlimit="10"/>
<path d="M64.3677 -24.8806C64.3677 -24.8806 52.9484 1.68003 57.0308 28.0911C61.1418 54.5021 42.671 57.6128 35.3341 54.5021C20.0894 48.1013 17.1489 13.8237 -7.4597 11.6103C-25.959 9.93534 -50.853 23.1857 -64.0423 -6.8744" fill="#3800A7"/>
<path d="M64.3677 -24.8806C64.3677 -24.8806 52.9484 1.68003 57.0308 28.0911C61.1418 54.5021 42.671 57.6128 35.3341 54.5021C20.0894 48.1013 17.1489 13.8237 -7.4597 11.6103C-25.959 9.93534 -50.853 23.1857 -64.0423 -6.8744" stroke="white" stroke-opacity="0.2" stroke-width="2" stroke-miterlimit="10"/>
<path d="M52.0634 -13.0358C52.0634 -13.0358 56.1743 14.0931 37.9891 9.24755C17.1489 3.68419 17.4629 -9.35682 -8.91566 2.96633C-18.308 7.36319 -56.1059 8.64934 -48.4835 -15.5184" fill="#3800A7"/>
<path d="M52.0634 -13.0358C52.0634 -13.0358 56.1743 14.0931 37.9891 9.24755C17.1489 3.68419 17.4629 -9.35682 -8.91566 2.96633C-18.308 7.36319 -56.1059 8.64934 -48.4835 -15.5184" stroke="#FBF6F6" stroke-opacity="0.2" stroke-width="2" stroke-miterlimit="10"/>
<path d="M38.8741 45.1403C43.2415 45.1403 46.782 39.6766 46.782 32.9368C46.782 26.197 43.2415 20.7333 38.8741 20.7333C34.5067 20.7333 30.9663 26.197 30.9663 32.9368C30.9663 39.6766 34.5067 45.1403 38.8741 45.1403Z" fill="#3800A7" stroke="white" stroke-opacity="0.2" stroke-width="2" stroke-miterlimit="10"/>
</g>
<path d="M29.003 11.2853L29.003 11.2853L29.014 11.2825C35.4437 9.63356 42.5447 10.6013 48.1849 14.0823L48.1939 14.0878L48.2029 14.0932C55.3171 18.3476 59.9758 26.4209 60.0939 34.7036L60.0941 34.7162L60.0945 34.7288C60.3545 43.0934 55.981 51.4155 48.9723 55.9659L48.962 55.9726L48.9518 55.9794C41.1522 61.2263 30.3266 61.4261 22.3669 56.4425L22.3534 56.434L22.3397 56.4258C14.2262 51.5835 9.472 41.7803 10.6889 32.4011L10.6918 32.3784L10.694 32.3557C11.6728 22.4592 19.3504 13.6835 29.003 11.2853Z" stroke="white" stroke-opacity="0.68" stroke-width="3"/>
<path d="M17.8111 33.486C17.8111 33.1215 18.1666 32.9813 18.7556 32.9813C19.6 32.9813 20.6666 33.1963 21.5111 33.5795V31.3832C20.5889 31.0748 19.6778 30.9533 18.7556 30.9533C16.5 30.9533 15 31.944 15 33.5982C15 36.1776 19.2222 35.7664 19.2222 36.8786C19.2222 37.3084 18.7778 37.4487 18.1555 37.4487C17.2334 37.4487 16.0555 37.1309 15.1222 36.701V38.9253C16.1555 39.2991 17.2 39.458 18.1555 39.458C20.4666 39.458 22.0555 38.4954 22.0555 36.8225C22.0445 34.0374 17.8111 34.5327 17.8111 33.486ZM25.3222 29.0841L22.6111 29.5701L22.6 37.0561C22.6 38.4393 23.8334 39.458 25.4778 39.458C26.3889 39.458 27.0555 39.3178 27.4222 39.1496V37.2524C27.0667 37.3739 25.3111 37.8038 25.3111 36.4206V33.1028H27.4222V31.1122H25.3111L25.3222 29.0841ZM30.8778 31.8037L30.7 31.1122H28.3V39.2897H31.0778V33.7477C31.7333 33.0281 32.8445 33.1589 33.1889 33.2617V31.1122C32.8334 31 31.5334 30.7944 30.8778 31.8037ZM33.8666 31.1122H36.6555V39.2897H33.8666V31.1122ZM33.8666 30.4019L36.6555 29.8972V28L33.8666 28.4953V30.4019ZM42.4555 30.9533C41.3666 30.9533 40.6666 31.3832 40.2778 31.6823L40.1333 31.1028H37.6889V42L40.4666 41.5047L40.4778 38.8598C40.8778 39.1028 41.4666 39.4486 42.4445 39.4486C44.4334 39.4486 46.2445 38.1028 46.2445 35.1402C46.2334 32.4299 44.4 30.9533 42.4555 30.9533ZM41.7889 37.3925C41.1334 37.3925 40.7444 37.1963 40.4778 36.9533L40.4666 33.486C40.7555 33.215 41.1555 33.0281 41.7889 33.0281C42.8 33.0281 43.5 33.9813 43.5 35.2056C43.5 36.458 42.8111 37.3925 41.7889 37.3925ZM55 35.2337C55 32.8411 53.6222 30.9533 50.9889 30.9533C48.3444 30.9533 46.7444 32.8412 46.7444 35.215C46.7444 38.028 48.6334 39.4486 51.3444 39.4486C52.6666 39.4486 53.6666 39.1963 54.4222 38.8412V36.972C53.6667 37.2898 52.8 37.4861 51.7 37.4861C50.6222 37.4861 49.6666 37.1683 49.5445 36.0655H54.9778C54.9778 35.9439 55 35.458 55 35.2337ZM49.5111 34.3458C49.5111 33.2898 50.2778 32.8505 50.9778 32.8505C51.6555 32.8505 52.3778 33.2898 52.3778 34.3458H49.5111Z" fill="white"/>
</g>
<defs>
<clipPath id="clip0_4_390">
<rect width="70" height="70" fill="white"/>
</clipPath>
</defs>
</svg>
