<svg width="70" height="70" viewBox="0 0 70 70" fill="none" xmlns="http://www.w3.org/2000/svg">
<g clip-path="url(#clip0_4_352)">
<mask id="mask0_4_352" style="mask-type:luminance" maskUnits="userSpaceOnUse" x="0" y="0" width="70" height="70">
<path d="M60 0H10C4.47715 0 0 4.47715 0 10V60C0 65.5229 4.47715 70 10 70H60C65.5229 70 70 65.5229 70 60V10C70 4.47715 65.5229 0 60 0Z" fill="white"/>
</mask>
<g mask="url(#mask0_4_352)">
<path d="M60 0H10C4.47715 0 0 4.47715 0 10V60C0 65.5229 4.47715 70 10 70H60C65.5229 70 70 65.5229 70 60V10C70 4.47715 65.5229 0 60 0Z" fill="#9A2828"/>
<path d="M94.8573 -15.5184C94.8573 -15.5184 68.4787 -2.95596 73.1606 28.1212C78.4135 62.967 47.9525 77.9223 27.1408 69.308C6.32914 60.6639 7.7851 28.6895 -31.7828 27.7024C-72.2071 26.7154 -80.7145 -13.5443 -80.7145 -13.5443" fill="#9A2828"/>
<path d="M94.8573 -15.5184C94.8573 -15.5184 68.4787 -2.95596 73.1606 28.1212C78.4135 62.967 47.9525 77.9223 27.1408 69.308C6.32914 60.6639 7.7851 28.6895 -31.7828 27.7024C-72.2071 26.7154 -80.7145 -13.5443 -80.7145 -13.5443" stroke="white" stroke-opacity="0.2" stroke-width="2" stroke-miterlimit="10"/>
<path d="M64.3677 -24.8806C64.3677 -24.8806 52.9484 1.68003 57.0308 28.0911C61.1418 54.5021 42.671 57.6128 35.3341 54.5021C20.0894 48.1013 17.1489 13.8237 -7.4597 11.6103C-25.959 9.93534 -50.853 23.1857 -64.0423 -6.8744" fill="#9A2828"/>
<path d="M64.3677 -24.8806C64.3677 -24.8806 52.9484 1.68003 57.0308 28.0911C61.1418 54.5021 42.671 57.6128 35.3341 54.5021C20.0894 48.1013 17.1489 13.8237 -7.4597 11.6103C-25.959 9.93534 -50.853 23.1857 -64.0423 -6.8744" stroke="white" stroke-opacity="0.2" stroke-width="2" stroke-miterlimit="10"/>
<path d="M52.0634 -13.0358C52.0634 -13.0358 56.1743 14.0931 37.9891 9.24755C17.1489 3.68419 17.4629 -9.35682 -8.91566 2.96633C-18.308 7.36319 -56.1059 8.64934 -48.4835 -15.5184" fill="#9A2828"/>
<path d="M52.0634 -13.0358C52.0634 -13.0358 56.1743 14.0931 37.9891 9.24755C17.1489 3.68419 17.4629 -9.35682 -8.91566 2.96633C-18.308 7.36319 -56.1059 8.64934 -48.4835 -15.5184" stroke="#FBF6F6" stroke-opacity="0.2" stroke-width="2" stroke-miterlimit="10"/>
<path d="M38.8741 45.1403C43.2415 45.1403 46.782 39.6766 46.782 32.9368C46.782 26.197 43.2415 20.7333 38.8741 20.7333C34.5067 20.7333 30.9663 26.197 30.9663 32.9368C30.9663 39.6766 34.5067 45.1403 38.8741 45.1403Z" fill="#9A2828" stroke="white" stroke-opacity="0.2" stroke-width="2" stroke-miterlimit="10"/>
</g>
<path d="M34.9705 53.3639C24.0007 53.3639 15.1078 45.1297 15.1078 34.9727C15.1078 24.8154 24.0007 16.5814 34.9705 16.5814C45.9401 16.5814 54.8328 24.8154 54.8328 34.9727C54.8328 45.1297 45.9401 53.3639 34.9705 53.3639ZM34.9705 10C20.0751 10 8 21.1809 8 34.9727C8 48.7647 20.0751 59.9451 34.9705 59.9451C49.8656 59.9451 61.9407 48.7647 61.9407 34.9727C61.9407 21.1809 49.8658 10 34.9705 10Z" fill="#FF010A"/>
<path d="M14.6078 34.9727C14.6078 45.4414 23.7615 53.8639 34.9705 53.8639C46.1793 53.8639 55.3328 45.4414 55.3328 34.9727C55.3328 24.5038 46.1793 16.0814 34.9705 16.0814C23.7615 16.0814 14.6078 24.5037 14.6078 34.9727ZM8.5 34.9727C8.5 21.4925 20.3143 10.5 34.9705 10.5C49.6266 10.5 61.4407 21.4925 61.4407 34.9727C61.4407 48.453 49.6264 59.4451 34.9705 59.4451C20.3143 59.4451 8.5 48.453 8.5 34.9727Z" stroke="#FDFDFD" stroke-opacity="0.49"/>
<path d="M36.0792 28.7531C36.0792 25.8855 38.59 23.5607 41.6872 23.5607C44.7844 23.5607 47.2949 25.8855 47.2949 28.7531C47.2949 31.6211 44.7844 33.9457 41.6872 33.9457C38.59 33.9457 36.0792 31.6211 36.0792 28.7531ZM36.0792 41.1918C36.0792 38.3242 38.59 35.9992 41.6872 35.9992C44.7844 35.9992 47.2949 38.3242 47.2949 41.1918C47.2949 44.0596 44.7844 46.3844 41.6872 46.3844C38.59 46.3844 36.0792 44.0596 36.0792 41.1918ZM22.6456 41.1918C22.6456 38.3242 25.1566 35.9992 28.2536 35.9992C31.3508 35.9992 33.8616 38.3242 33.8616 41.1918C33.8616 44.0596 31.3508 46.3844 28.2536 46.3844C25.1566 46.3844 22.6456 44.0596 22.6456 41.1918ZM22.6456 28.7533C22.6456 25.8855 25.1566 23.5609 28.2536 23.5609C31.3508 23.5609 33.8616 25.8855 33.8616 28.7533C33.8616 31.6213 31.3508 33.9459 28.2536 33.9459C25.1566 33.9459 22.6456 31.6213 22.6456 28.7533Z" fill="#FF010A"/>
<path d="M36.5792 28.7531C36.5792 26.1972 38.8292 24.0607 41.6872 24.0607C44.5451 24.0607 46.7949 26.1972 46.7949 28.7531C46.7949 31.3094 44.5451 33.4457 41.6872 33.4457C38.8292 33.4457 36.5792 31.3094 36.5792 28.7531ZM36.5792 41.1918C36.5792 38.6359 38.8292 36.4992 41.6872 36.4992C44.5451 36.4992 46.7949 38.6359 46.7949 41.1918C46.7949 43.7479 44.5451 45.8844 41.6872 45.8844C38.8292 45.8844 36.5792 43.7479 36.5792 41.1918ZM23.1456 41.1918C23.1456 38.6359 25.3958 36.4992 28.2536 36.4992C31.1116 36.4992 33.3616 38.6359 33.3616 41.1918C33.3616 43.7479 31.1116 45.8844 28.2536 45.8844C25.3958 45.8844 23.1456 43.7479 23.1456 41.1918ZM23.1456 28.7533C23.1456 26.1973 25.3958 24.0609 28.2536 24.0609C31.1116 24.0609 33.3616 26.1972 33.3616 28.7533C33.3616 31.3096 31.1116 33.4459 28.2536 33.4459C25.3958 33.4459 23.1456 31.3096 23.1456 28.7533Z" stroke="#FDFDFD" stroke-opacity="0.49"/>
</g>
<defs>
<clipPath id="clip0_4_352">
<rect width="70" height="70" fill="white"/>
</clipPath>
</defs>
</svg>
