<svg width="70" height="70" viewBox="0 0 70 70" fill="none" xmlns="http://www.w3.org/2000/svg">
<g clip-path="url(#clip0_2_111)">
<mask id="mask0_2_111" style="mask-type:luminance" maskUnits="userSpaceOnUse" x="0" y="0" width="70" height="70">
<path d="M60 0H10C4.47715 0 0 4.47715 0 10V60C0 65.5229 4.47715 70 10 70H60C65.5229 70 70 65.5229 70 60V10C70 4.47715 65.5229 0 60 0Z" fill="white"/>
</mask>
<g mask="url(#mask0_2_111)">
<path d="M60 0H10C4.47715 0 0 4.47715 0 10V60C0 65.5229 4.47715 70 10 70H60C65.5229 70 70 65.5229 70 60V10C70 4.47715 65.5229 0 60 0Z" fill="#462800"/>
<path d="M94.8573 -15.5184C94.8573 -15.5184 68.4787 -2.95596 73.1606 28.1212C78.4135 62.967 47.9525 77.9223 27.1408 69.308C6.32911 60.6639 7.78507 28.6895 -31.7828 27.7024C-72.2071 26.7154 -80.7145 -13.5443 -80.7145 -13.5443" fill="#462800"/>
<path d="M94.8573 -15.5184C94.8573 -15.5184 68.4787 -2.95596 73.1606 28.1212C78.4135 62.967 47.9525 77.9223 27.1408 69.308C6.32911 60.6639 7.78507 28.6895 -31.7828 27.7024C-72.2071 26.7154 -80.7145 -13.5443 -80.7145 -13.5443" stroke="white" stroke-opacity="0.2" stroke-width="2" stroke-miterlimit="10"/>
<path d="M64.3677 -24.8806C64.3677 -24.8806 52.9484 1.68003 57.0308 28.0911C61.1418 54.5021 42.671 57.6128 35.3341 54.5021C20.0894 48.1013 17.1489 13.8237 -7.4597 11.6103C-25.959 9.93534 -50.853 23.1857 -64.0423 -6.8744" fill="#462800"/>
<path d="M64.3677 -24.8806C64.3677 -24.8806 52.9484 1.68003 57.0308 28.0911C61.1418 54.5021 42.671 57.6128 35.3341 54.5021C20.0894 48.1013 17.1489 13.8237 -7.4597 11.6103C-25.959 9.93534 -50.853 23.1857 -64.0423 -6.8744" stroke="white" stroke-opacity="0.2" stroke-width="2" stroke-miterlimit="10"/>
<path d="M52.0634 -13.0358C52.0634 -13.0358 56.1743 14.0931 37.9891 9.24755C17.1489 3.68419 17.4629 -9.35682 -8.91566 2.96633C-18.308 7.36319 -56.1059 8.64934 -48.4835 -15.5184" fill="#462800"/>
<path d="M52.0634 -13.0358C52.0634 -13.0358 56.1743 14.0931 37.9891 9.24755C17.1489 3.68419 17.4629 -9.35682 -8.91566 2.96633C-18.308 7.36319 -56.1059 8.64934 -48.4835 -15.5184" stroke="#FBF6F6" stroke-opacity="0.2" stroke-width="2" stroke-miterlimit="10"/>
<path d="M38.8741 45.1403C43.2415 45.1403 46.782 39.6766 46.782 32.9368C46.782 26.197 43.2415 20.7333 38.8741 20.7333C34.5067 20.7333 30.9663 26.197 30.9663 32.9368C30.9663 39.6766 34.5067 45.1403 38.8741 45.1403Z" fill="#462800" stroke="white" stroke-opacity="0.2" stroke-width="2" stroke-miterlimit="10"/>
</g>
<path d="M23.4648 34.985C23.4648 35.6641 23.5378 36.2147 23.6655 36.6185C23.8115 37.0222 23.9941 37.4627 24.2496 37.9399C24.3408 38.0868 24.3773 38.2336 24.3773 38.3621C24.3773 38.5456 24.2678 38.7291 24.0306 38.9127L22.8807 39.6835C22.7165 39.7937 22.5522 39.8487 22.4062 39.8487C22.2237 39.8487 22.0412 39.757 21.8586 39.5918C21.6031 39.3165 21.3841 39.0228 21.2016 38.7291C21.0191 38.4171 20.8366 38.0684 20.6358 37.6463C19.2122 39.3348 17.4236 40.1791 15.2699 40.1791C13.7368 40.1791 12.5139 39.7386 11.6196 38.8576C10.7253 37.9766 10.269 36.802 10.269 35.3337C10.269 33.7736 10.8166 32.5072 11.9299 31.5528C13.0432 30.5984 14.5216 30.1212 16.4015 30.1212C17.022 30.1212 17.6608 30.1763 18.3361 30.2681C19.0114 30.3598 19.705 30.5067 20.435 30.6719V29.332C20.435 27.9372 20.143 26.9644 19.5772 26.3954C18.9932 25.8265 18.0076 25.5512 16.6022 25.5512C15.9634 25.5512 15.3064 25.6246 14.6311 25.7898C13.9558 25.9549 13.2987 26.1568 12.6599 26.4138C12.3679 26.5423 12.1489 26.6157 12.0211 26.6524C11.8934 26.6891 11.8021 26.7075 11.7291 26.7075C11.4736 26.7075 11.3458 26.5239 11.3458 26.1385V25.2392C11.3458 24.9455 11.3823 24.7253 11.4736 24.5968C11.5649 24.4683 11.7291 24.3398 11.9846 24.2113C12.6234 23.881 13.39 23.6057 14.2843 23.3854C15.1786 23.1468 16.1277 23.0367 17.1315 23.0367C19.3034 23.0367 20.8913 23.5323 21.9134 24.5234C22.9172 25.5145 23.4283 27.0195 23.4283 29.0384V34.985H23.4648ZM16.0547 37.7748C16.657 37.7748 17.2775 37.6646 17.9346 37.4444C18.5916 37.2241 19.1757 36.8204 19.6685 36.2697C19.9605 35.921 20.1795 35.5356 20.289 35.0951C20.3985 34.6546 20.4715 34.1224 20.4715 33.4983V32.7275C19.9422 32.599 19.3765 32.4889 18.7924 32.4155C18.2084 32.342 17.6426 32.3053 17.0768 32.3053C15.8539 32.3053 14.9596 32.5439 14.3573 33.0395C13.755 33.535 13.463 34.2325 13.463 35.1502C13.463 36.0128 13.682 36.6552 14.1383 37.0957C14.5763 37.5545 15.2151 37.7748 16.0547 37.7748ZM30.7106 39.757C30.382 39.757 30.163 39.7019 30.017 39.5734C29.871 39.4633 29.7432 39.2063 29.6337 38.8576L25.3447 24.6702C25.2352 24.3031 25.1804 24.0645 25.1804 23.936C25.1804 23.6424 25.3264 23.4772 25.6184 23.4772H27.4071C27.7538 23.4772 27.9911 23.5323 28.1189 23.6607C28.2649 23.7709 28.3744 24.0278 28.4839 24.3765L31.5501 36.5267L34.3973 24.3765C34.4886 24.0095 34.5981 23.7709 34.7441 23.6607C34.8901 23.5506 35.1457 23.4772 35.4742 23.4772H36.9343C37.2811 23.4772 37.5183 23.5323 37.6643 23.6607C37.8104 23.7709 37.9381 24.0278 38.0111 24.3765L40.8948 36.6735L44.0523 24.3765C44.1618 24.0095 44.2896 23.7709 44.4174 23.6607C44.5634 23.5506 44.8006 23.4772 45.1292 23.4772H46.8265C47.1186 23.4772 47.2828 23.624 47.2828 23.936C47.2828 24.0278 47.2646 24.1196 47.2463 24.2297C47.2281 24.3398 47.1916 24.4867 47.1186 24.6885L42.72 38.876C42.6105 39.243 42.4827 39.4816 42.3367 39.5918C42.1907 39.7019 41.9534 39.7753 41.6431 39.7753H40.0735C39.7268 39.7753 39.4895 39.7202 39.3435 39.5918C39.1975 39.4633 39.0697 39.2247 38.9967 38.8576L36.1677 27.0195L33.357 38.8393C33.2658 39.2063 33.1563 39.4449 33.0102 39.5734C32.8642 39.7019 32.6087 39.757 32.2802 39.757H30.7106ZM54.1636 40.2525C53.2145 40.2525 52.2655 40.1424 51.3529 39.9221C50.4403 39.7019 49.7285 39.4633 49.254 39.188C48.962 39.0228 48.7612 38.8393 48.6882 38.6741C48.6152 38.5089 48.5787 38.3254 48.5787 38.1602V37.2241C48.5787 36.8387 48.7247 36.6552 48.9985 36.6552C49.108 36.6552 49.2175 36.6735 49.327 36.7102C49.4365 36.7469 49.6008 36.8204 49.7833 36.8938C50.4038 37.1691 51.0791 37.3893 51.7909 37.5362C52.521 37.683 53.2328 37.7564 53.9628 37.7564C55.1127 37.7564 56.007 37.5545 56.6275 37.1507C57.2481 36.7469 57.5766 36.1596 57.5766 35.4071C57.5766 34.8932 57.4124 34.4711 57.0838 34.1224C56.7553 33.7736 56.1348 33.4616 55.2404 33.168L52.594 32.342C51.2616 31.9199 50.2761 31.2959 49.6738 30.47C49.0715 29.6624 48.7612 28.7631 48.7612 27.8087C48.7612 27.0378 48.9255 26.3587 49.254 25.7714C49.5825 25.1841 50.0205 24.6702 50.5681 24.2664C51.1156 23.8443 51.7362 23.5323 52.4662 23.312C53.1963 23.0918 53.9628 23 54.7659 23C55.1674 23 55.5872 23.0184 55.9887 23.0734C56.4085 23.1285 56.7918 23.2019 57.1751 23.2753C57.5401 23.3671 57.8869 23.4588 58.2154 23.569C58.5439 23.6791 58.7995 23.7892 58.982 23.8993C59.2375 24.0462 59.42 24.193 59.5295 24.3582C59.639 24.505 59.6938 24.7069 59.6938 24.9638V25.8265C59.6938 26.2119 59.5478 26.4138 59.274 26.4138C59.128 26.4138 58.8907 26.3404 58.5804 26.1935C57.5401 25.7164 56.372 25.4778 55.0762 25.4778C54.0358 25.4778 53.2145 25.6429 52.6487 25.9917C52.0829 26.3404 51.7909 26.8726 51.7909 27.6251C51.7909 28.139 51.9734 28.5795 52.3385 28.9283C52.7035 29.277 53.3788 29.6257 54.3461 29.9377L56.9378 30.7636C58.2519 31.1858 59.201 31.7731 59.7668 32.5256C60.3326 33.2781 60.6063 34.1407 60.6063 35.0951C60.6063 35.8843 60.4421 36.6001 60.1318 37.2241C59.8033 37.8482 59.3652 38.3988 58.7995 38.8393C58.2337 39.2981 57.5584 39.6285 56.7736 39.8671C55.9522 40.124 55.0944 40.2525 54.1636 40.2525Z" fill="white"/>
<path fill-rule="evenodd" clip-rule="evenodd" d="M57.6131 49.1724C51.6084 53.6324 42.8843 56 35.3829 56C24.8701 56 15.3977 52.0907 8.24311 45.5934C7.67732 45.0795 8.18836 44.3821 8.86366 44.7859C16.6022 49.3009 26.1477 52.0356 36.0217 52.0356C42.6835 52.0356 50.0023 50.6407 56.7371 47.7775C57.7409 47.3187 58.5987 48.4383 57.6131 49.1724Z" fill="#FF9900"/>
<path fill-rule="evenodd" clip-rule="evenodd" d="M60.1136 46.3092C59.347 45.3181 55.0397 45.8321 53.0868 46.0707C52.5027 46.1441 52.4115 45.6302 52.9408 45.2447C56.372 42.822 62.0117 43.5195 62.6688 44.327C63.3258 45.153 62.4862 50.8243 59.274 53.5406C58.7812 53.9628 58.3067 53.7425 58.5257 53.1919C59.2558 51.3749 60.8801 47.282 60.1136 46.3092Z" fill="#FF9900"/>
</g>
<defs>
<clipPath id="clip0_2_111">
<rect width="70" height="70" fill="white"/>
</clipPath>
</defs>
</svg>
