<svg width="70" height="70" viewBox="0 0 70 70" fill="none" xmlns="http://www.w3.org/2000/svg">
<g clip-path="url(#clip0_2_170)">
<mask id="mask0_2_170" style="mask-type:luminance" maskUnits="userSpaceOnUse" x="0" y="0" width="70" height="70">
<path d="M60 0H10C4.47715 0 0 4.47715 0 10V60C0 65.5229 4.47715 70 10 70H60C65.5229 70 70 65.5229 70 60V10C70 4.47715 65.5229 0 60 0Z" fill="white"/>
</mask>
<g mask="url(#mask0_2_170)">
<path d="M60 0H9.99999C4.47714 0 -7.62939e-06 4.47715 -7.62939e-06 10V60C-7.62939e-06 65.5229 4.47714 70 9.99999 70H60C65.5228 70 70 65.5229 70 60V10C70 4.47715 65.5228 0 60 0Z" fill="black"/>
<path d="M94.8573 -15.5184C94.8573 -15.5184 68.4787 -2.95596 73.1606 28.1212C78.4135 62.967 47.9525 77.9223 27.1408 69.308C6.32911 60.6639 7.78507 28.6895 -31.7828 27.7024C-72.2071 26.7154 -80.7145 -13.5443 -80.7145 -13.5443" fill="black"/>
<path d="M94.8573 -15.5184C94.8573 -15.5184 68.4787 -2.95596 73.1606 28.1212C78.4135 62.967 47.9525 77.9223 27.1408 69.308C6.32911 60.6639 7.78507 28.6895 -31.7828 27.7024C-72.2071 26.7154 -80.7145 -13.5443 -80.7145 -13.5443" stroke="white" stroke-opacity="0.2" stroke-width="2" stroke-miterlimit="10"/>
<path d="M64.3677 -24.8806C64.3677 -24.8806 52.9484 1.68003 57.0308 28.0911C61.1418 54.5021 42.671 57.6128 35.3341 54.5021C20.0894 48.1013 17.1489 13.8237 -7.4597 11.6103C-25.959 9.93534 -50.853 23.1857 -64.0423 -6.8744" fill="black"/>
<path d="M64.3677 -24.8806C64.3677 -24.8806 52.9484 1.68003 57.0308 28.0911C61.1418 54.5021 42.671 57.6128 35.3341 54.5021C20.0894 48.1013 17.1489 13.8237 -7.4597 11.6103C-25.959 9.93534 -50.853 23.1857 -64.0423 -6.8744" stroke="white" stroke-opacity="0.2" stroke-width="2" stroke-miterlimit="10"/>
<path d="M52.0634 -13.0358C52.0634 -13.0358 56.1743 14.0931 37.9891 9.24755C17.1489 3.68419 17.4629 -9.35682 -8.91566 2.96633C-18.308 7.36319 -56.1059 8.64934 -48.4835 -15.5184" fill="black"/>
<path d="M52.0634 -13.0358C52.0634 -13.0358 56.1743 14.0931 37.9891 9.24755C17.1489 3.68419 17.4629 -9.35682 -8.91566 2.96633C-18.308 7.36319 -56.1059 8.64934 -48.4835 -15.5184" stroke="#FBF6F6" stroke-opacity="0.2" stroke-width="2" stroke-miterlimit="10"/>
<path d="M38.8741 45.1403C43.2415 45.1403 46.782 39.6766 46.782 32.9368C46.782 26.197 43.2415 20.7333 38.8741 20.7333C34.5067 20.7333 30.9663 26.197 30.9663 32.9368C30.9663 39.6766 34.5067 45.1403 38.8741 45.1403Z" fill="black" stroke="white" stroke-opacity="0.2" stroke-width="2" stroke-miterlimit="10"/>
</g>
<path d="M8.44886 35V24.0909H14.777V24.9858H9.44496V29.0927H14.4414V29.9876H9.44496V34.1051H14.8835V35H8.44886ZM17.744 26.8182L19.8533 30.3072L21.9627 26.8182H23.0653L20.4339 30.9091L23.0653 35H21.9627L19.8533 31.6229L17.744 35H16.6467L19.2461 30.9091L16.6467 26.8182H17.744ZM25.0535 38.0682V26.8182H25.9751V28.3789H26.0869C26.2006 28.1339 26.3568 27.8835 26.5557 27.6278C26.7545 27.3686 27.0173 27.1502 27.344 26.9727C27.6743 26.7951 28.0898 26.7063 28.5905 26.7063C29.2652 26.7063 29.8547 26.8839 30.3589 27.239C30.8667 27.5906 31.2609 28.0842 31.5415 28.7198C31.8256 29.3519 31.9676 30.0888 31.9676 30.9304C31.9676 31.7756 31.8256 32.516 31.5415 33.1516C31.2609 33.7873 30.8667 34.2827 30.3589 34.6378C29.8547 34.9929 29.2687 35.1705 28.6011 35.1705C28.1075 35.1705 27.6938 35.0817 27.36 34.9041C27.0297 34.7266 26.7616 34.5082 26.5557 34.2489C26.3532 33.9862 26.197 33.7305 26.0869 33.4819H26.0017V38.0682H25.0535ZM25.991 30.9144C25.991 31.5749 26.0887 32.1609 26.284 32.6722C26.4829 33.18 26.767 33.5795 27.1363 33.8707C27.5091 34.1584 27.9601 34.3022 28.4893 34.3022C29.0326 34.3022 29.4907 34.1531 29.8635 33.8548C30.24 33.5529 30.5258 33.1463 30.7211 32.6349C30.92 32.1236 31.0194 31.5501 31.0194 30.9144C31.0194 30.2859 30.9218 29.7195 30.7265 29.2152C30.5347 28.7109 30.2506 28.3114 29.8742 28.0167C29.4978 27.7184 29.0361 27.5692 28.4893 27.5692C27.9566 27.5692 27.5038 27.7131 27.1309 28.0007C26.7581 28.2848 26.474 28.679 26.2787 29.1832C26.0869 29.6839 25.991 30.261 25.991 30.9144ZM34.0477 35V26.8182H34.9692V28.0753H35.0384C35.2018 27.6634 35.4859 27.3313 35.8907 27.0792C36.2991 26.8235 36.7607 26.6957 37.2757 26.6957C37.3538 26.6957 37.4408 26.6974 37.5367 26.701C37.6325 26.7045 37.7124 26.7081 37.7764 26.7116V27.6758C37.7338 27.6687 37.6592 27.658 37.5526 27.6438C37.4461 27.6296 37.3307 27.6225 37.2064 27.6225C36.7803 27.6225 36.4003 27.7131 36.0665 27.8942C35.7362 28.0717 35.4752 28.3185 35.2835 28.6346C35.0917 28.9506 34.9958 29.3111 34.9958 29.7159V35H34.0477ZM42.4532 35.1705C41.6897 35.1705 41.0292 34.9929 40.4717 34.6378C39.9142 34.2791 39.4827 33.7837 39.1773 33.1516C38.8754 32.516 38.7245 31.7844 38.7245 30.957C38.7245 30.1332 38.8754 29.4016 39.1773 28.7624C39.4827 28.1197 39.9035 27.6172 40.4397 27.255C40.9795 26.8892 41.6027 26.7063 42.3094 26.7063C42.7533 26.7063 43.1812 26.788 43.5931 26.9513C44.0051 27.1112 44.3744 27.358 44.7011 27.6918C45.0313 28.022 45.2923 28.4393 45.4841 28.9435C45.6759 29.4442 45.7718 30.0373 45.7718 30.7227V31.1914H39.3797V30.3551H44.8023C44.8023 29.8295 44.6958 29.3572 44.4827 28.9382C44.2732 28.5156 43.9802 28.1818 43.6038 27.9368C43.2309 27.6918 42.7994 27.5692 42.3094 27.5692C41.7909 27.5692 41.3346 27.7077 40.9404 27.9847C40.5463 28.2617 40.2373 28.6275 40.0136 29.082C39.7934 29.5366 39.6816 30.0337 39.678 30.5735V31.0742C39.678 31.7241 39.7899 32.2923 40.0136 32.7788C40.2409 33.2617 40.5622 33.6364 40.9777 33.9027C41.3932 34.169 41.885 34.3022 42.4532 34.3022C42.8403 34.3022 43.1794 34.2418 43.4706 34.1211C43.7654 34.0004 44.0122 33.8388 44.211 33.6364C44.4134 33.4304 44.5661 33.2049 44.6691 32.9599L45.5693 33.2528C45.445 33.5973 45.2409 33.9151 44.9568 34.2063C44.6762 34.4975 44.3247 34.7319 43.9021 34.9094C43.483 35.0835 43.0001 35.1705 42.4532 35.1705ZM53.3583 28.6133L52.4901 28.8583C52.4048 28.6133 52.2841 28.3913 52.1278 28.1925C51.9716 27.9936 51.7674 27.8356 51.5153 27.7184C51.2667 27.6012 50.9577 27.5426 50.5884 27.5426C50.0344 27.5426 49.5799 27.674 49.2248 27.9368C48.8697 28.1996 48.6921 28.5387 48.6921 28.9542C48.6921 29.3058 48.8129 29.5916 49.0543 29.8118C49.2994 30.0284 49.6758 30.2006 50.1836 30.3285L51.4194 30.6321C52.1048 30.799 52.6179 31.0636 52.9588 31.4258C53.3033 31.788 53.4755 32.2425 53.4755 32.7894C53.4755 33.2511 53.3477 33.6612 53.092 34.0199C52.8363 34.3786 52.4794 34.6609 52.0213 34.8668C51.5668 35.0692 51.0394 35.1705 50.4393 35.1705C49.6403 35.1705 48.9815 34.9911 48.4631 34.6325C47.9446 34.2702 47.6126 33.7482 47.467 33.0664L48.3778 32.8427C48.495 33.3292 48.7241 33.6967 49.065 33.9453C49.4094 34.1939 49.8622 34.3182 50.4233 34.3182C51.0518 34.3182 51.5543 34.1779 51.9308 33.8974C52.3072 33.6133 52.4954 33.2582 52.4954 32.832C52.4954 32.5018 52.3853 32.2248 52.1651 32.0011C51.945 31.7738 51.6112 31.6069 51.1637 31.5004L49.8267 31.1808C49.1165 31.0103 48.5909 30.7404 48.25 30.3711C47.9091 30.0018 47.7386 29.5437 47.7386 28.9968C47.7386 28.5458 47.8612 28.1499 48.1062 27.8089C48.3512 27.4645 48.6886 27.1946 49.1183 26.9993C49.5479 26.804 50.038 26.7063 50.5884 26.7063C51.3377 26.7063 51.9361 26.8768 52.3835 27.2177C52.8345 27.555 53.1594 28.0202 53.3583 28.6133ZM61.0487 28.6133L60.1805 28.8583C60.0953 28.6133 59.9745 28.3913 59.8183 28.1925C59.662 27.9936 59.4578 27.8356 59.2057 27.7184C58.9571 27.6012 58.6482 27.5426 58.2789 27.5426C57.7249 27.5426 57.2703 27.674 56.9152 27.9368C56.5601 28.1996 56.3825 28.5387 56.3825 28.9542C56.3825 29.3058 56.5033 29.5916 56.7448 29.8118C56.9898 30.0284 57.3662 30.2006 57.874 30.3285L59.1098 30.6321C59.7952 30.799 60.3083 31.0636 60.6492 31.4258C60.9937 31.788 61.1659 32.2425 61.1659 32.7894C61.1659 33.2511 61.0381 33.6612 60.7824 34.0199C60.5267 34.3786 60.1698 34.6609 59.7117 34.8668C59.2572 35.0692 58.7298 35.1705 58.1297 35.1705C57.3307 35.1705 56.672 34.9911 56.1535 34.6325C55.635 34.2702 55.303 33.7482 55.1574 33.0664L56.0683 32.8427C56.1855 33.3292 56.4145 33.6967 56.7554 33.9453C57.0999 34.1939 57.5526 34.3182 58.1137 34.3182C58.7423 34.3182 59.2448 34.1779 59.6212 33.8974C59.9976 33.6133 60.1858 33.2582 60.1858 32.832C60.1858 32.5018 60.0757 32.2248 59.8556 32.0011C59.6354 31.7738 59.3016 31.6069 58.8541 31.5004L57.5171 31.1808C56.8069 31.0103 56.2813 30.7404 55.9404 30.3711C55.5995 30.0018 55.4291 29.5437 55.4291 28.9968C55.4291 28.5458 55.5516 28.1499 55.7966 27.8089C56.0416 27.4645 56.379 27.1946 56.8087 26.9993C57.2384 26.804 57.7284 26.7063 58.2789 26.7063C59.0281 26.7063 59.6265 26.8768 60.074 27.2177C60.5249 27.555 60.8499 28.0202 61.0487 28.6133Z" fill="white"/>
<path d="M24.0001 51.4289L26.2057 50.0431C26.6313 50.8263 27.0184 51.489 27.9469 51.489C28.8369 51.489 29.3982 51.1276 29.3982 49.7217V40.1608H32.1068V49.7615C32.1068 52.6739 30.4623 53.9996 28.063 53.9996C25.8962 53.9996 24.6386 52.8349 24.0001 51.4289ZM33.578 51.1275L35.7834 49.8019C36.364 50.7862 37.1186 51.5093 38.4534 51.5093C39.5758 51.5093 40.2915 50.9267 40.2915 50.1232C40.2915 49.1592 39.5562 48.8177 38.318 48.2554L37.641 47.9539C35.6868 47.0904 34.3905 46.0057 34.3905 43.716C34.3905 41.607 35.9383 40 38.3568 40C40.0788 40 41.317 40.6227 42.2069 42.2497L40.0979 43.6558C39.6335 42.7921 39.1306 42.4507 38.3567 42.4507C37.5634 42.4507 37.0603 42.973 37.0603 43.6558C37.0603 44.4994 37.5634 44.841 38.7242 45.3632L39.4013 45.6644C41.7038 46.6889 43 47.7333 43 50.0832C43 52.6142 41.0847 54 38.5114 54C35.9963 54 34.3712 52.7546 33.578 51.1275Z" fill="#FFFDFD"/>
</g>
<defs>
<clipPath id="clip0_2_170">
<rect width="70" height="70" fill="white"/>
</clipPath>
</defs>
</svg>
