<svg width="70" height="70" viewBox="0 0 70 70" fill="none" xmlns="http://www.w3.org/2000/svg">
<g clip-path="url(#clip0_7_76)">
<mask id="mask0_7_76" style="mask-type:luminance" maskUnits="userSpaceOnUse" x="0" y="0" width="70" height="70">
<path d="M60 0H10C4.47715 0 0 4.47715 0 10V60C0 65.5229 4.47715 70 10 70H60C65.5229 70 70 65.5229 70 60V10C70 4.47715 65.5229 0 60 0Z" fill="white"/>
</mask>
<g mask="url(#mask0_7_76)">
<path d="M60 0H10C4.47718 0 3.05176e-05 4.47715 3.05176e-05 10V60C3.05176e-05 65.5229 4.47718 70 10 70H60C65.5229 70 70 65.5229 70 60V10C70 4.47715 65.5229 0 60 0Z" fill="#000303"/>
<path d="M94.8573 -15.5184C94.8573 -15.5184 68.4787 -2.95596 73.1606 28.1212C78.4135 62.967 47.9525 77.9223 27.1408 69.308C6.32914 60.6639 7.7851 28.6895 -31.7828 27.7024C-72.2071 26.7154 -80.7145 -13.5443 -80.7145 -13.5443" stroke="white" stroke-opacity="0.2" stroke-width="2" stroke-miterlimit="10"/>
<path d="M64.3677 -24.8806C64.3677 -24.8806 52.9484 1.68003 57.0308 28.0911C61.1418 54.5021 42.671 57.6128 35.3341 54.5021C20.0894 48.1013 17.1489 13.8237 -7.4597 11.6103C-25.959 9.93534 -50.853 23.1857 -64.0423 -6.8744" stroke="white" stroke-opacity="0.2" stroke-width="2" stroke-miterlimit="10"/>
<path d="M52.0634 -13.0358C52.0634 -13.0358 56.1743 14.0931 37.9891 9.24755C17.1489 3.68419 17.4629 -9.35682 -8.91566 2.96633C-18.308 7.36319 -56.1059 8.64934 -48.4835 -15.5184" stroke="white" stroke-opacity="0.2" stroke-width="2" stroke-miterlimit="10"/>
<path d="M38.8741 45.1403C43.2415 45.1403 46.782 39.6766 46.782 32.9368C46.782 26.197 43.2415 20.7333 38.8741 20.7333C34.5067 20.7333 30.9663 26.197 30.9663 32.9368C30.9663 39.6766 34.5067 45.1403 38.8741 45.1403Z" stroke="white" stroke-opacity="0.2" stroke-width="2" stroke-miterlimit="10"/>
</g>
<path d="M26.9533 39.5918C25.4299 38.5888 23.8044 37.6277 22.694 36.2733C20.3563 33.885 18.5569 31.1204 17.3268 28.2147C16.583 26.3251 16.3283 24.2994 15.369 22.4831C14.3668 21.1636 15.5416 19.7221 17.2685 19.3028C18.0368 19.1789 19.3885 18.5719 17.7568 19.0063C16.2936 19.9041 16.1527 18.1903 17.6527 18.0817C18.6765 17.9681 19.0533 17.267 18.7029 16.636C17.6035 16.0357 21.3677 15.3772 19.4735 14.4818C17.5016 12.7007 22.2329 12.3579 21.0654 14.381C20.7863 15.9365 24.3725 14.0953 23.5397 15.8919C24.3858 16.7548 26.7072 16.0887 26.6489 17.2986C27.8811 17.3694 28.3041 18.2366 29.4596 18.3033C30.6591 18.7565 32.8314 19.113 33.2389 20.2435C32.0499 21.0311 29.2972 18.6163 29.1643 20.7969C29.5239 24.0188 29.4322 27.3375 30.8402 30.4055C31.5061 32.2629 33.1214 33.725 34.5794 35.172C35.9752 36.5887 37.8653 37.5868 39.7924 38.4264C41.4822 39.0933 43.3041 39.5353 45.1463 39.8134C45.8931 39.3353 47.212 37.5576 48.3767 38.3066C48.433 39.15 46.0649 40.0682 48.2656 39.975C49.5591 39.6483 50.4552 40.8111 51.5197 39.762C52.5006 40.7344 55.5962 39.1412 54.8986 41.1285C53.9545 41.6382 52.5783 41.3303 51.6333 42.0316C50.0752 41.38 48.8345 42.6139 47.1089 42.4583C45.1933 42.7454 43.2436 42.861 41.3016 42.8634C38.1147 42.653 34.8607 42.5642 31.8291 41.6355C30.1208 41.2202 28.4544 40.406 26.9533 39.5918ZM29.6446 40.5684C31.3121 41.1713 32.9428 41.8074 34.7707 41.9998C37.6703 42.3368 40.6649 42.8566 43.5747 42.383C42.2578 41.8854 40.8958 42.5762 39.5839 42.0273C38.0105 42.3103 36.3217 41.9546 34.7214 41.7792C32.9027 41.1013 30.9393 40.6352 29.236 39.7543C27.1066 39.1037 30.3364 40.5889 30.9116 40.7096C32.2419 41.3413 29.4483 40.3853 29.0538 40.1229C27.9394 39.5996 27.7975 39.709 28.9438 40.2401C29.1746 40.353 29.4025 40.4719 29.6446 40.5684ZM26.4711 38.6915C28.0875 39.1926 26.4639 37.7405 25.7243 37.8245C25.3961 37.3481 24.4707 37.0471 25.1235 36.7914C23.9496 37.1327 23.8933 35.4942 23.3418 35.7287C22.0993 35.4003 22.8583 34.2373 21.3779 33.5226C21.2429 32.7699 19.9076 32.1175 19.4826 30.9827C19.2946 30.4013 17.9735 28.7331 18.7847 30.2857C19.4754 31.7804 20.6902 33.0615 21.7018 34.3399C22.4865 35.5574 23.4143 36.8308 24.8436 37.5902C25.326 37.9775 25.7908 38.57 26.4711 38.6915ZM21.8163 34.4134C22.1116 34.8554 21.8722 34.209 21.8163 34.4134ZM28.4074 39.2917C28.7649 39.1576 27.8924 39.1225 28.4074 39.2917ZM29.2839 39.5595C29.1932 39.19 28.8835 39.7664 29.2839 39.5595ZM30.3824 39.9427C30.9044 39.5259 29.5761 39.6798 30.3824 39.9427ZM32.2644 40.8205C32.5821 40.4281 31.2477 40.6728 32.2644 40.8205ZM28.6507 38.7122C29.4616 38.2725 27.6013 38.706 28.6507 38.7122ZM29.4741 39.0558C29.4505 38.824 29.1808 39.16 29.4741 39.0558ZM33.5905 41.2063C34.2525 41.5561 37.4558 41.9725 35.4502 41.3499C35.1138 41.409 31.731 40.5487 33.5905 41.2063ZM27.0557 36.9463C26.9913 36.7139 26.0275 36.6889 27.0557 36.9463ZM28.9713 37.8819C29.4708 37.5903 27.9363 37.657 28.9713 37.8819ZM30.5835 38.7088C31.2997 38.4831 29.423 38.4821 30.5835 38.7088ZM26.275 36.2357C27.0516 36.734 29.4078 36.2997 27.4643 35.9382C26.5805 35.5439 24.5882 35.2739 25.9463 36.1759L26.275 36.2357ZM31.676 38.9942C31.9997 38.5333 30.3189 38.7307 31.676 38.9942ZM30.0349 37.903C31.9333 38.352 28.438 36.8974 29.5661 37.7371L29.8166 37.8321L30.0349 37.903ZM33.3252 39.4944C35.1233 39.5088 31.7005 39.2868 33.3252 39.4944ZM25.5835 35.365C25.5129 35.0846 25.14 35.3883 25.5835 35.365ZM36.3667 40.9224C36.4147 40.4163 35.7802 41.2995 36.3667 40.9224ZM28.6527 36.9376C28.5433 36.6709 28.0908 36.9265 28.6527 36.9376ZM25.7539 35.189C26.7861 35.1369 24.3399 34.8085 25.7539 35.189ZM22.3199 33.3316C22.1913 32.917 21.1971 32.587 22.3199 33.3316ZM31.3347 38.1195C31.2457 38.1587 31.1457 37.9389 31.3347 38.1195ZM36.9449 41.0013C36.9277 40.7249 36.6394 41.1053 36.9449 41.0013ZM30.8382 37.6902C30.9394 37.3345 29.9575 37.5823 30.8382 37.6902ZM26.6582 35.4729C27.4266 35.4044 25.4269 35.0385 26.6582 35.4729ZM33.7288 39.15C34.9261 38.7531 32.5619 38.9566 33.7288 39.15ZM30.0514 37.0609C31.4307 37.2095 28.4096 36.275 29.748 36.977L30.0514 37.0609ZM34.8452 39.5278C36.1338 38.884 35.7088 41.0371 37.031 39.7099C38.3346 38.913 35.9049 40.695 37.5111 39.8519C38.6738 39.2011 40.3902 40.1605 41.4744 40.4727C42.2538 40.441 43.012 41.0371 43.8119 40.6743C45.3506 40.3271 40.8021 40.1598 41.9942 39.5448C40.5864 39.8879 39.5464 39.1361 38.8536 38.381C37.2739 38.0757 35.4482 37.4003 34.6594 36.2296C34.3375 35.7911 35.1235 36.2922 34.3816 35.5738C33.4303 34.8657 32.9553 34.061 32.3166 33.2C31.5533 32.8596 31.4635 31.8566 31.3868 33.1668C31.393 32.3398 30.4652 31.7831 30.2383 32.0141C30.2343 31.2178 31.2316 31.6172 30.5336 31.0281C30.3836 30.2028 29.8889 29.3427 29.7407 28.4106C29.51 27.9617 29.7078 26.9997 28.9521 28.0163C28.6771 29.0913 28.8611 26.6961 29.2893 27.4854C29.8511 26.6799 29.0868 26.7747 29.0561 26.886C29.4221 26.2062 29.2882 25.2416 28.9602 25.6093C29.1553 24.8884 29.2688 22.9568 28.6691 23.2997C29.0327 22.5455 29.3588 19.85 27.7789 20.8781C27.1394 20.8857 26.031 21.0723 25.5079 21.2903C27.1497 22.0479 25.3422 21.5638 24.673 21.4433C24.5861 22.1444 23.9241 21.8417 23.0965 21.8485C24.4186 21.9853 22.4527 22.9797 21.6958 22.5934C20.7108 22.9867 22.5449 23.9701 21.7152 24.2744C21.8175 24.732 20.2071 24.1087 20.3329 25.1673C19.3774 24.8302 20.2021 26.4225 20.6802 25.8839C22.3058 26.2524 21.8246 27.0913 21.8654 27.889C21.6007 28.3532 20.5575 26.7971 21.6333 26.869C20.7843 25.7152 20.6946 26.4516 19.9894 26.9877C19.826 27.0263 21.7877 27.7504 20.5566 28.1079C21.6396 28.2482 21.6713 29.0417 21.8921 29.5437C22.5429 30.1113 22.4088 28.9167 23.1886 29.5993C22.6949 28.9912 20.5769 27.8862 22.2824 28.2406C22.273 27.6291 21.9736 27.1356 22.4968 27.1475C23.0149 26.3634 21.9543 29.0818 23.1211 28.0849C23.4438 27.9669 23.5247 27.2999 24.105 28.1482C24.9479 28.8425 24.4096 29.3451 23.2202 28.709C23.4327 29.3136 24.811 29.5289 24.5514 30.474C24.8261 31.3052 25.2105 30.9989 25.5455 30.951C25.808 31.7583 25.9575 31.1649 25.9697 30.78C27.1722 30.9958 26.8902 31.5908 27.2671 32.0063C28.0957 32.3191 26.081 29.8848 27.5033 31.2743C28.9999 32.4056 28.0652 32.8775 26.7218 32.6964C27.5718 32.6389 27.8454 33.6585 28.9093 33.6225C29.8788 34.0089 30.5358 35.4917 28.8643 34.8742C28.2849 34.4364 26.2321 33.8969 27.9089 34.7289C29.4558 35.3292 30.686 35.6875 32.1786 36.441C33.2464 37.0789 33.708 37.8097 34.1127 37.9545C33.2147 38.3134 31.4074 37.668 32.7497 37.4705C31.9119 37.343 30.97 36.9882 31.7719 37.8612C32.4544 38.3384 34.1883 38.2878 34.5 38.3417C34.2364 38.8275 33.7839 38.8661 34.5102 38.9036C33.6999 39.2653 34.7707 39.3218 34.8452 39.5278ZM33.188 35.6106C32.6946 35.1788 32.5669 34.3708 33.1002 35.0734C33.3741 35.1658 33.976 36.3948 33.188 35.6106ZM38.586 38.4803C38.8935 38.4633 38.595 38.6759 38.586 38.4803ZM32.4097 34.552C32.5872 35.0555 32.39 33.8995 32.4097 34.552ZM31.8732 33.9483C32.6547 34.2322 31.2521 32.9453 31.8732 33.9483ZM25.3708 30.1927C25.7357 30.1113 25.5507 30.7141 25.3708 30.1927ZM30.546 32.5399C30.8086 33.13 30.7697 31.8361 30.546 32.5399ZM26.8902 30.4123C27.4288 30.7767 26.6329 30.0242 26.8902 30.4123ZM30.0269 31.2538C29.4394 30.1524 30.4438 30.6517 30.1577 31.4342L30.0269 31.2538ZM24.6169 28.2343C24.3544 27.8728 23.92 26.8124 24.06 26.4884C24.1857 27.016 25.3996 28.7578 24.6546 27.2102C23.8322 25.9129 25.6386 27.6307 25.8246 27.9549C25.9114 28.2764 25.3168 27.8669 25.7193 28.6218C24.9847 27.7624 25.286 29.0965 24.6169 28.2343ZM22.9454 27.2699C23.3275 27.8462 23.0138 26.4293 22.9454 27.2699ZM23.6974 27.487C24.3052 28.3712 24.056 26.8528 23.6974 27.487ZM21.8879 26.3157C21.2655 25.7973 20.8149 25.3203 21.9174 25.994C22.3415 26.0077 20.9735 24.909 22.0197 25.6451C23.119 25.8129 22.5621 27.1546 21.8879 26.3157ZM22.838 26.2952C23.1999 25.9951 23.0302 26.5902 22.838 26.2952ZM23.4235 26.4516C24.0886 26.8125 22.8747 25.5922 23.4235 26.4516ZM22.2608 25.5222C20.4515 24.1735 24.5341 26.2266 22.5561 25.7717L22.2608 25.5222ZM27.446 28.0429C26.6624 27.6503 27.2375 25.2767 27.5054 26.8997C28.2666 26.6935 27.4632 27.7386 28.0304 27.7283C27.9416 28.3873 27.6872 28.6245 27.446 28.0429ZM29.3638 28.992C29.5252 29.4813 29.4403 28.2764 29.3638 28.992ZM29.0308 28.7158C29.1166 28.4106 29.0389 29.0758 29.0308 28.7158ZM22.6152 25.0792C21.4527 23.7366 25.9941 26.4369 23.3602 25.4195C23.0852 25.3589 22.7533 25.3374 22.6152 25.0792ZM26.3088 26.7177C26.5541 26.9047 26.1986 25.5872 26.3088 26.7177ZM29.1124 28.2232C29.3289 27.5794 29.1289 28.6493 29.1124 28.2232ZM22.7941 24.5669C23.4849 24.443 25.6569 25.582 23.6625 24.8919C23.441 24.6866 22.9679 24.78 22.7941 24.5669ZM28.7271 27.0416C28.801 25.8856 29.1402 26.3515 28.7302 27.2075L28.7271 27.0416ZM23.308 24.1643C23.5899 23.8187 22.5599 22.602 23.456 23.7281C23.8435 23.9854 24.5768 24.1591 23.9291 24.2676C24.9477 25.0194 23.681 24.4712 23.308 24.1643ZM28.4338 26.6808C28.6282 25.364 28.6057 27.4521 28.4338 26.6808ZM22.7194 22.9483C22.935 22.8711 22.8338 23.1884 22.7194 22.9483ZM24.0569 23.6144C24.6913 24.2881 24.401 23.0097 24.0569 23.6144ZM27.828 25.3699C27.8994 25.7076 27.8249 25.1381 27.828 25.3699ZM27.6093 24.9655C28.0968 25.5375 27.0861 23.8846 27.6093 24.9655ZM27.2883 24.2565C27.5868 24.8175 27.2008 23.81 27.2883 24.2565ZM27.8114 23.5451C27.4519 23.0156 28.2654 21.2106 28.3563 22.33C27.9771 23.2022 28.2469 23.6897 28.5104 22.5199C28.9989 21.5998 28.4052 24.337 27.8114 23.5451ZM28.3489 20.861C28.5055 20.7001 28.3838 21.0549 28.3489 20.861ZM27.4511 35.6653C27.4785 35.7637 27.2385 35.5096 27.4511 35.6653ZM29.3003 36.4478C30.3291 36.6693 30.3241 36.3143 29.3941 36.2082C28.8946 35.8193 27.316 35.4062 28.7291 36.1603C28.8222 36.3588 29.1175 36.3536 29.3003 36.4478ZM25.6488 34.4176C26.2147 34.7718 27.783 35.4198 26.4558 34.5529C26.9033 34.1175 25.5996 33.8859 26.0319 33.5944C24.9314 33.0307 25.1632 33.0811 25.9349 33.0992C24.6127 32.604 26.1258 32.6416 26.0544 32.3878C25.5446 32.3038 23.5215 31.6351 24.7118 32.4425C23.5021 31.9267 24.4235 32.6348 24.0579 32.5604C22.8204 32.2782 25.1594 33.349 23.8616 33.083C24.5708 33.5532 25.7713 34.2887 24.161 33.5805C23.9496 33.8362 25.3138 34.2237 25.6488 34.4176ZM27.5827 35.348C29.9338 35.9817 26.4291 34.5724 27.5827 35.348ZM37.4833 40.3674C37.5139 39.9767 37.1624 40.7009 37.4833 40.3674ZM38.501 40.7257C39.0435 40.2863 38.5235 41.4269 39.4 40.6181C39.4091 40.0391 39.3735 39.6972 38.3927 40.4008C38.1217 40.5266 38.0014 41.0591 38.501 40.7257ZM22.3475 32.2357C22.1808 31.6875 21.1796 31.6899 22.3475 32.2357ZM23.4335 32.8315C23.0299 32.2715 21.9938 32.3245 23.4335 32.8315ZM29.616 35.9518C30.22 36.4008 32.388 36.281 30.3488 36.0075C30.0472 35.6337 28.4319 35.7236 29.616 35.9518ZM38.1136 40.3447C39.0424 39.6921 37.2136 40.6354 38.1136 40.3447ZM40.0458 41.4553C40.0517 41.2458 39.6453 41.5468 40.0458 41.4553ZM40.0489 41.162C41.0777 40.2505 39.0527 41.2158 40.0489 41.162ZM19.6746 30.3629C18.798 29.3162 19.1301 28.8458 18.2841 27.9907C18.1235 27.3366 16.8333 25.8538 17.6169 27.4246C18.3341 28.3439 18.5465 29.7667 19.6746 30.3629ZM39.726 40.8721C41.6194 39.8484 38.9496 40.4265 39.726 40.8721ZM41.1708 41.3457C42.1189 40.6649 40.571 41.2037 41.1708 41.3457ZM22.0255 31.0784C22.2965 30.7406 21.3247 31.0349 22.0255 31.0784ZM40.8692 41.0224C41.7867 40.5275 40.6578 40.6035 40.7028 41.0677L40.8692 41.0224ZM28.4164 34.4536C28.3849 34.1184 27.9313 34.4818 28.4164 34.4536ZM29.1858 34.8239C28.9407 34.41 28.8099 34.8889 29.1858 34.8239ZM42.3416 41.3569C43.5175 40.647 41.6295 41.2208 42.0953 41.492L42.3416 41.3569ZM41.8911 41.1748C42.8494 40.5034 40.8805 41.4723 41.8911 41.1748ZM44.1917 42.4565C44.8347 42.0964 43.4103 42.3402 44.1917 42.4565ZM22.6152 30.8348C23.4765 30.9963 26.0593 32.6108 24.536 30.9469C23.7555 30.7536 24.2235 29.157 23.4275 29.4392C23.9619 30.1866 23.8666 30.5037 22.7447 30.0336C21.336 29.4571 21.953 30.3184 22.2291 30.5561C21.8529 30.6279 22.7257 30.829 22.6152 30.8348ZM18.6886 28.2397C18.8429 27.7051 17.2674 25.3015 17.9449 27.0348C18.189 27.3982 18.1636 28.0864 18.6886 28.2397ZM25.8958 31.9584C25.8744 31.9139 25.4514 31.648 25.8958 31.9584ZM26.988 32.1715C26.988 31.6053 25.7805 31.9414 26.988 32.1715ZM36.4596 37.1678C36.2788 36.7811 35.7455 37.1591 36.4596 37.1678ZM36.9142 37.4455C36.8466 37.2292 36.6514 37.4875 36.9142 37.4455ZM40.668 39.4251C41.0288 39.202 40.2174 39.3962 40.668 39.4251ZM20.6494 28.6587C21.6822 28.3242 19.5427 28.42 20.6494 28.6587ZM35.6257 36.5545C35.6136 35.9953 34.9667 36.694 35.6257 36.5545ZM20.2416 27.8624C20.9047 27.6754 19.6276 27.7395 20.2416 27.8624ZM22.1666 28.6431C22.1552 28.4594 21.9633 28.7133 22.1666 28.6431ZM45.6509 40.6958C46.5041 40.5513 48.4484 41.0593 48.762 40.507C47.7261 40.4855 45.1789 39.8946 45.0583 40.647L45.2852 40.6771L45.6509 40.6958ZM22.7785 28.7723C22.7941 28.2053 22.2504 28.751 22.7785 28.7723ZM17.7172 25.8333C17.4874 24.7531 16.8426 25.6698 17.7172 25.8333ZM18.9238 26.0872C18.9393 25.7401 17.8191 25.7751 18.9238 26.0872ZM19.6135 26.3711C19.4582 26.5411 19.4143 26.2359 19.6135 26.3711ZM23.9547 28.7013C24.1593 28.5439 23.4705 28.5851 23.9547 28.7013ZM19.1547 25.7316C19.0374 24.9158 17.756 25.6093 19.1547 25.7316ZM16.679 24.3873C16.6441 24.011 16.4377 24.5291 16.679 24.3873ZM17.0477 24.1549C16.9876 23.7083 16.731 24.2111 17.0477 24.1549ZM19.0813 25.1706C19.9416 24.8884 17.5147 24.5856 18.9055 25.1176L19.0813 25.1706ZM46.3041 39.2439C46.8547 38.8215 45.6052 39.1131 46.3041 39.2439ZM49.593 40.6702C49.8138 40.1247 49.037 40.7421 49.593 40.6702ZM19.2891 24.2787C19.3802 23.7504 18.6068 24.3839 19.2891 24.2787ZM16.3949 22.6559C16.2396 21.9102 16.261 20.601 17.7477 21.0431C15.7633 21.3732 19.1219 23.1079 18.6979 21.7381C19.5326 21.7725 20.3307 21.3253 19.8922 22.0032C21.5372 21.8519 22.6766 20.6583 24.2652 20.8259C25.5024 20.6883 26.8552 20.5848 28.1886 20.1675C29.2849 20.1016 30.3402 19.1139 29.7397 18.5282C28.2449 18.4223 26.6794 18.5787 25.0274 18.8541C23.1966 19.1721 21.5333 19.7774 19.6858 20.0375C17.8844 20.2402 20.0476 20.595 19.5315 20.6745C18.5924 20.9473 20.6524 21.1311 19.4099 21.4192C18.6427 21.2971 17.8436 21.0765 18.1716 20.3992C16.4469 20.5873 14.9307 21.1858 16.2938 22.6548L16.3949 22.6559ZM20.5524 20.884C20.956 19.6374 22.7183 21.9102 21.2144 21.0499C21.0355 20.9369 20.7391 20.8454 20.5524 20.884ZM20.6308 20.2793C21.2144 19.916 20.9405 20.4838 20.6308 20.2793ZM21.3716 20.2898C21.425 19.7159 23.069 20.5933 21.6425 20.4958L21.3716 20.2898ZM22.3852 19.9486C22.7561 19.5858 22.4927 20.27 22.3852 19.9486ZM22.6449 19.8033C23.2619 19.1833 26.136 19.4072 24.0322 19.7424C23.4682 19.3867 23.0361 19.9519 22.6449 19.8033ZM26.3964 19.3192C28.2611 19.9203 26.3036 17.6251 26.3964 19.3192ZM27.4613 19.314C27.8504 18.4607 28.9722 18.9712 27.6421 19.1421C27.6705 19.2337 27.6022 19.5835 27.4613 19.314ZM18.8696 23.8409C20.0321 23.2449 17.6352 23.3237 18.8696 23.8409ZM19.7297 24.0402C20.1375 23.6777 18.8429 23.8931 19.7297 24.0402ZM17.196 22.5361C17.8601 22.1085 16.4093 22.3737 17.196 22.5361ZM51.5341 40.5145C51.5534 40.0185 51.0263 40.7376 51.5341 40.5145ZM48.0449 38.5212C48.1439 37.9511 47.5964 38.5709 48.0449 38.5212ZM52.4934 40.707C53.4223 40.7096 55.3081 40.4648 53.2872 40.4658C52.9695 40.507 51.4391 40.4985 52.4934 40.707ZM20.486 23.6903C21.238 23.6475 21.6619 22.9967 20.3397 23.0335C18.2913 22.8566 22.1471 23.6211 20.0772 23.4022C19.7994 23.5561 20.4694 23.733 20.486 23.6903ZM21.148 23.9709C21.0693 23.5672 20.9149 24.1854 21.148 23.9709ZM21.9336 22.2178C22.2596 21.8791 21.4821 22.1272 21.9336 22.2178ZM19.4324 18.7198C20.775 18.3384 22.61 17.9091 23.2436 18.9081C22.5988 18.2591 22.9832 17.6193 23.5921 18.5694C24.4533 19.5297 24.8843 18.1325 24.3244 17.81C24.9632 18.4735 25.6885 18.7875 24.7514 17.8521C25.7702 16.8267 22.7132 17.9863 22.0185 17.9742C21.6844 18.0998 18.5669 18.6395 19.4324 18.7198ZM20.2191 17.4595C20.9846 16.9765 22.8665 17.7476 21.6588 16.9788C21.5404 16.8917 19.0147 17.5621 20.2191 17.4595ZM23.0096 17.556C23.9046 17.5749 22.6235 16.5487 23.69 17.0139C23.5154 16.5351 22.4477 16.4453 21.9257 16.2539C21.6304 16.6917 22.5261 17.5621 23.0096 17.556ZM20.7085 15.4362C21.0182 15.0848 20.165 15.6149 20.7085 15.4362ZM21.8491 15.6643C23.2925 15.5045 21.481 15.1445 21.5575 15.6517L21.8491 15.6643ZM19.7194 14.2706C18.7027 13.1599 21.6311 14.4571 20.598 13.294C19.7286 12.7153 18.894 13.9466 19.7194 14.2706ZM32.7616 20.1496C33.2278 19.4585 30.8378 19.2175 32.448 19.9048C32.5961 19.946 32.5627 20.1973 32.7616 20.1496ZM23.2982 45.8876C23.195 46.2283 23.1311 46.8002 23.1072 47.6028C23.1072 47.7605 23.0224 47.8395 22.8522 47.8395C22.6821 47.8395 22.5636 47.7706 22.4966 47.6334C22.3144 47.2623 22.1419 47.0035 21.9772 46.8558C21.7832 46.6831 21.525 46.5788 21.203 46.5432C20.8569 46.4975 19.9947 46.4746 18.6163 46.4746C18.3007 46.4746 18.094 46.5027 17.9971 46.5588C17.9363 46.5941 17.906 46.6705 17.906 46.7875V50.241C17.906 50.3579 17.994 50.4136 18.1697 50.4087C18.7105 50.4035 19.4938 50.3726 20.5197 50.3172C20.7204 50.2965 20.8557 50.242 20.9254 50.153C20.9957 50.064 21.064 49.8344 21.1304 49.4632C21.1725 49.2598 21.3157 49.181 21.5585 49.227C21.7647 49.2626 21.8535 49.3414 21.823 49.4632C21.6527 50.1547 21.5977 51.0542 21.6585 52.1622C21.6649 52.294 21.5647 52.3654 21.358 52.3756C21.1877 52.3909 21.0815 52.3146 21.0393 52.1468C20.8818 51.5116 20.5882 51.1722 20.1605 51.1287C19.7324 51.0859 19.0351 51.0641 18.0699 51.0641C17.9605 51.0641 17.906 51.097 17.906 51.1631V54.5938C17.906 54.8481 18.018 55.0211 18.2426 55.1122C18.4191 55.1885 18.7985 55.2572 19.3811 55.3182C19.6791 55.3435 19.8093 55.4531 19.7733 55.6459C19.7366 55.8137 19.4697 55.8798 18.9713 55.8443C17.5322 55.7475 16.3447 55.7527 15.4099 55.8598C15.1485 55.8899 15.0183 55.801 15.0183 55.5929C15.0183 55.4605 15.1485 55.3843 15.4099 55.3641C16.0051 55.308 16.3024 54.8708 16.3024 54.0529V47.5265C16.3024 47.1914 16.2308 46.9336 16.0885 46.753C15.9455 46.5725 15.6797 46.4084 15.2916 46.2612C15.0485 46.1696 14.9576 46.0453 15.0182 45.8876C15.0485 45.7912 15.0972 45.7376 15.1637 45.7276C15.2244 45.7122 15.3857 45.7224 15.6463 45.7582C16.0291 45.809 16.9311 45.8345 18.3519 45.8345C20.0283 45.8345 21.4763 45.8037 22.6972 45.7429C23.104 45.7223 23.3077 45.7504 23.3077 45.8266C23.3077 45.8473 23.3046 45.8673 23.2982 45.8876ZM29.2055 55.5653C29.2055 55.7687 29.0688 55.8576 28.7957 55.8321C27.9582 55.7659 26.9194 55.7759 25.6807 55.8623C25.4314 55.883 25.2785 55.8776 25.2204 55.8475C25.1625 55.8168 25.1341 55.7331 25.1341 55.5954C25.1341 55.4738 25.2993 55.371 25.6302 55.2868C25.9616 55.2032 26.1266 54.9528 26.1266 54.5362V47.6366C26.1266 47.2247 26.0552 46.9223 25.9129 46.729C25.7699 46.5359 25.5194 46.386 25.1613 46.2796C24.9729 46.2234 24.8785 46.1446 24.8785 46.0429C24.8785 45.8904 25.0152 45.7761 25.2885 45.6999C25.7016 45.5881 26.1299 45.4156 26.5733 45.1815C26.9377 44.9985 27.1686 44.9073 27.2654 44.9073C27.4899 44.9073 27.6027 45.0365 27.6027 45.2958C27.6027 45.2758 27.5905 45.5299 27.5658 46.0582C27.5482 46.5613 27.5419 47.0568 27.5482 47.545L27.5841 54.3528C27.5841 54.663 27.6754 54.8881 27.8575 55.0279C28.0397 55.1675 28.3528 55.2602 28.7957 55.3059C29.0688 55.3311 29.2055 55.4177 29.2055 55.5653ZM37.4444 55.1157C37.4444 55.2227 37.2122 55.3838 36.7478 55.5996C36.283 55.8158 35.911 55.9238 35.6319 55.9238C35.3947 55.9238 35.1855 55.8274 35.0033 55.6341C34.8211 55.441 34.6932 55.3446 34.6205 55.3446C34.566 55.3446 34.2775 55.4488 33.7549 55.6569C33.2332 55.8654 32.7075 55.9698 32.1793 55.9698C31.6814 55.9698 31.2652 55.8475 30.9313 55.604C30.5669 55.3344 30.3847 54.9685 30.3847 54.5058C30.3847 53.6266 31.5872 52.9965 33.9922 52.6153C34.4047 52.5492 34.6147 52.4094 34.6203 52.1959L34.6389 51.7079C34.6755 50.8745 34.2352 50.4579 33.318 50.4579C33.0567 50.4579 32.8094 50.6533 32.5752 51.0445C32.3419 51.4363 32.006 51.647 31.5688 51.6777C31.071 51.718 30.8218 51.5428 30.8218 51.1515C30.8218 50.9074 31.1924 50.6232 31.9332 50.2976C32.7107 49.9572 33.4578 49.7867 34.1744 49.7867C35.4069 49.7867 36.0172 50.2774 36.0052 51.2583L35.9685 54.399C35.9628 54.7295 36.1299 54.8945 36.4696 54.8945C36.5366 54.8945 36.6642 54.8819 36.8522 54.8564C37.0408 54.8311 37.1502 54.8183 37.1806 54.8183C37.3564 54.8183 37.4444 54.9178 37.4444 55.1157ZM34.6389 53.3778C34.6452 53.2506 34.6097 53.1664 34.5338 53.1262C34.4578 53.0856 34.3385 53.0775 34.1744 53.103C32.7107 53.3216 31.9788 53.7207 31.9788 54.3C31.9788 54.8845 32.3583 55.1767 33.1174 55.1767C33.4211 55.1767 33.7342 55.1286 34.0555 55.0322C34.4325 54.92 34.6205 54.7856 34.6205 54.6277L34.6389 53.3778ZM44.2169 54.2387C44.2169 54.7774 43.9688 55.206 43.4742 55.5235C42.9794 55.8413 42.3039 56 41.4474 56C40.8767 56 40.3055 55.9493 39.7349 55.8475C39.2427 55.756 38.9574 55.6723 38.8785 55.5961C38.8297 55.5245 38.8056 55.1768 38.8056 54.5515C38.8056 54.2821 38.8785 54.1422 39.0244 54.1322C39.17 54.1168 39.2947 54.1831 39.3978 54.3302C39.8531 54.9962 40.5881 55.3293 41.6024 55.3293C42.4581 55.3293 42.8864 55.0799 42.8864 54.5817C42.8864 54.3636 42.7895 54.1804 42.5949 54.0331C42.3822 53.8653 41.9699 53.6696 41.3563 53.446C40.4694 53.1158 39.8772 52.8261 39.5799 52.5767C39.2578 52.3126 39.0971 51.9569 39.0971 51.5094C39.0971 50.9603 39.3491 50.5337 39.8531 50.2288C40.3206 49.9338 40.9463 49.7867 41.7294 49.7867C42.2216 49.7867 42.6708 49.8194 43.0781 49.8857C43.5153 49.9518 43.743 50.0329 43.7613 50.1297C43.8094 50.414 43.91 50.8259 44.0619 51.3649C44.0802 51.4306 43.9947 51.484 43.8069 51.5247C43.6063 51.5603 43.4728 51.5322 43.4058 51.441C42.9263 50.7851 42.3191 50.4574 41.5839 50.4574C40.7521 50.4574 40.336 50.681 40.336 51.1282C40.336 51.3775 40.4485 51.5755 40.673 51.7227C40.8736 51.8498 41.3441 52.0483 42.085 52.3178C42.8624 52.5973 43.3906 52.8489 43.6703 53.0724C44.0347 53.3619 44.2169 53.751 44.2169 54.2387ZM54.9336 55.5729C54.9336 55.7508 54.7906 55.8449 54.5053 55.855C54.0802 55.8602 53.5241 55.8856 52.8384 55.9312C52.4981 55.9873 52.2552 55.9519 52.1097 55.8248C51.15 54.9608 50.3359 54.056 49.6678 53.1104C49.6134 53.0293 49.5438 52.9887 49.4584 52.9887C49.3553 52.9887 49.1764 53.0649 48.9214 53.2175C48.6355 53.3493 48.4931 53.5376 48.4931 53.7811C48.4931 53.9543 48.4988 54.2031 48.5114 54.5289C48.5236 54.8538 48.6203 55.0671 48.8025 55.1688C48.9302 55.2404 49.2252 55.2959 49.6861 55.3367C49.9716 55.3673 50.1145 55.4563 50.1145 55.6035C50.1145 55.7206 50.0917 55.7931 50.0461 55.8206C50.0008 55.8486 49.8805 55.855 49.6861 55.8397C49.0789 55.7942 48.0528 55.8195 46.6075 55.9159C46.2431 55.9413 46.0456 55.9031 46.0153 55.8015C46.0033 55.7662 45.9969 55.7152 45.9969 55.649C45.9969 55.4918 46.1824 55.3721 46.5531 55.2912C46.887 55.2196 47.0539 54.8919 47.0539 54.3075V47.6442C47.0539 47.2275 47.0055 46.9379 46.9078 46.7753C46.7744 46.5668 46.4947 46.4041 46.0697 46.2872C45.8697 46.2316 45.7692 46.1527 45.7692 46.051C45.7692 45.9032 45.9122 45.789 46.1974 45.708C46.6564 45.5795 47.0941 45.4027 47.4999 45.1818C47.8341 44.9991 48.0408 44.9074 48.1192 44.9074C48.3686 44.9074 48.4931 45.0393 48.4931 45.3041C48.4931 45.2681 48.49 45.5201 48.4836 46.0586C48.477 46.5567 48.4741 47.0549 48.4749 47.553L48.4931 52.3253C48.4931 52.4576 48.5355 52.5233 48.6203 52.5233C48.7114 52.5233 48.8513 52.4576 49.0397 52.3253C49.5438 51.9948 50.1631 51.5629 50.8977 51.0292C51.0438 50.9023 51.1164 50.8005 51.1164 50.7243C51.1164 50.5872 50.8705 50.4902 50.3789 50.4348C50.1664 50.414 50.0658 50.3151 50.0777 50.1371C50.0961 49.9593 50.2025 49.883 50.3966 49.9084C50.8344 49.9594 51.472 49.9874 52.3095 49.9926C52.8928 49.9973 53.4728 50.0001 54.0498 50.0001C54.2377 50.0053 54.332 50.0991 54.332 50.2823C54.332 50.4549 54.1833 50.5491 53.8859 50.5645C53.4178 50.5793 52.9775 50.6682 52.5652 50.8312C51.9881 51.0494 51.3714 51.4332 50.7155 51.9823C50.6673 52.0129 50.6427 52.0509 50.6427 52.0966C50.6427 52.1676 50.7458 52.3381 50.9527 52.6075C51.7117 53.5732 52.4284 54.3022 53.1022 54.7955C53.5336 55.1054 53.9372 55.2604 54.3136 55.2604C54.5933 55.2604 54.7664 55.2769 54.8328 55.3101C54.9 55.3432 54.9336 55.4309 54.9336 55.5729Z" fill="white"/>
</g>
<defs>
<clipPath id="clip0_7_76">
<rect width="70" height="70" fill="white"/>
</clipPath>
</defs>
</svg>
