<svg width="70" height="70" viewBox="0 0 70 70" fill="none" xmlns="http://www.w3.org/2000/svg">
<g clip-path="url(#clip0_2_134)">
<mask id="mask0_2_134" style="mask-type:luminance" maskUnits="userSpaceOnUse" x="0" y="0" width="70" height="70">
<path d="M60 0H10C4.47715 0 0 4.47715 0 10V60C0 65.5229 4.47715 70 10 70H60C65.5229 70 70 65.5229 70 60V10C70 4.47715 65.5229 0 60 0Z" fill="white"/>
</mask>
<g mask="url(#mask0_2_134)">
<path d="M60 0H10C4.47715 0 0 4.47715 0 10V60C0 65.5229 4.47715 70 10 70H60C65.5229 70 70 65.5229 70 60V10C70 4.47715 65.5229 0 60 0Z" fill="url(#paint0_linear_2_134)"/>
<path d="M94.8573 -15.5184C94.8573 -15.5184 68.4787 -2.95596 73.1606 28.1212C78.4135 62.967 47.9525 77.9223 27.1408 69.308C6.32911 60.6639 7.78507 28.6895 -31.7828 27.7024C-72.2071 26.7154 -80.7145 -13.5443 -80.7145 -13.5443" fill="url(#paint1_linear_2_134)"/>
<path d="M94.8573 -15.5184C94.8573 -15.5184 68.4787 -2.95596 73.1606 28.1212C78.4135 62.967 47.9525 77.9223 27.1408 69.308C6.32911 60.6639 7.78507 28.6895 -31.7828 27.7024C-72.2071 26.7154 -80.7145 -13.5443 -80.7145 -13.5443" stroke="white" stroke-opacity="0.2" stroke-width="2" stroke-miterlimit="10"/>
<path d="M64.3677 -24.8806C64.3677 -24.8806 52.9484 1.68003 57.0308 28.0911C61.1418 54.5021 42.671 57.6128 35.3341 54.5021C20.0894 48.1013 17.1489 13.8237 -7.4597 11.6103C-25.959 9.93534 -50.853 23.1857 -64.0423 -6.8744" fill="url(#paint2_linear_2_134)"/>
<path d="M64.3677 -24.8806C64.3677 -24.8806 52.9484 1.68003 57.0308 28.0911C61.1418 54.5021 42.671 57.6128 35.3341 54.5021C20.0894 48.1013 17.1489 13.8237 -7.4597 11.6103C-25.959 9.93534 -50.853 23.1857 -64.0423 -6.8744" stroke="white" stroke-opacity="0.2" stroke-width="2" stroke-miterlimit="10"/>
<path d="M52.0634 -13.0358C52.0634 -13.0358 56.1743 14.0931 37.9891 9.24755C17.1489 3.68419 17.4629 -9.35682 -8.91566 2.96633C-18.308 7.36319 -56.1059 8.64934 -48.4835 -15.5184" fill="url(#paint3_linear_2_134)"/>
<path d="M52.0634 -13.0358C52.0634 -13.0358 56.1743 14.0931 37.9891 9.24755C17.1489 3.68419 17.4629 -9.35682 -8.91566 2.96633C-18.308 7.36319 -56.1059 8.64934 -48.4835 -15.5184" stroke="#FBF6F6" stroke-opacity="0.2" stroke-width="2" stroke-miterlimit="10"/>
<path d="M38.8741 45.1403C43.2415 45.1403 46.782 39.6766 46.782 32.9368C46.782 26.197 43.2415 20.7333 38.8741 20.7333C34.5067 20.7333 30.9663 26.197 30.9663 32.9368C30.9663 39.6766 34.5067 45.1403 38.8741 45.1403Z" fill="url(#paint4_linear_2_134)" stroke="white" stroke-opacity="0.2" stroke-width="2" stroke-miterlimit="10"/>
</g>
<path d="M42.5326 25.3912H44.2414L49.1098 20.53L49.3492 18.4674C40.2909 10.4842 26.4628 11.3444 18.4679 20.3894C16.245 22.902 14.6324 25.8905 13.7545 29.125C14.2967 28.9023 14.8976 28.8672 15.4633 29.0219L25.1976 27.4187C25.1976 27.4187 25.6929 26.6007 25.9488 26.6522C30.2796 21.9035 37.568 21.3504 42.5678 25.3912H42.5326Z" fill="#EA4335"/>
<path d="M56.0437 29.1249C54.9241 25.0114 52.6284 21.3128 49.4337 18.4837L42.603 25.3044C45.4879 27.6576 47.131 31.2039 47.0606 34.9236V36.1354C50.4196 36.1354 53.1401 38.8543 53.1401 42.206C53.1401 45.5601 50.4172 48.2767 47.0606 48.2767H34.8991L33.6855 49.5048V56.7873L34.8991 57.999H47.0606C54.0321 58.053 60.2173 53.541 62.2876 46.8938C64.3533 40.2442 61.8182 33.0251 56.0437 29.1249Z" fill="#4285F4"/>
<path d="M22.7212 57.9311H34.8827V48.211H22.7212C21.855 48.211 20.9983 48.0259 20.2096 47.6649L18.5007 48.1923L13.5995 53.0535L13.1723 54.7598C15.921 56.8318 19.2753 57.9451 22.7212 57.9311Z" fill="#34A853"/>
<path d="M22.7212 26.3966C15.9656 26.4365 9.98229 30.7562 7.82745 37.148C5.67261 43.5397 7.82041 50.5948 13.1746 54.7059L20.2283 47.6626C17.1674 46.282 15.8083 42.6865 17.1909 39.6301C18.5735 36.5737 22.1743 35.2166 25.2352 36.5972C26.5825 37.2066 27.6623 38.2848 28.2726 39.6301L35.3263 32.5868C32.3241 28.6702 27.66 26.3802 22.7212 26.3966Z" fill="#FBBC05"/>
</g>
<defs>
<linearGradient id="paint0_linear_2_134" x1="58.694" y1="19.8466" x2="19.6347" y2="41.8426" gradientUnits="userSpaceOnUse">
<stop offset="0.02" stop-color="#1F158E"/>
<stop offset="0.52" stop-color="#0F2DB1"/>
<stop offset="1" stop-color="#1C35C1"/>
</linearGradient>
<linearGradient id="paint1_linear_2_134" x1="66.5" y1="9.20779" x2="10.037" y2="73.2209" gradientUnits="userSpaceOnUse">
<stop offset="0.02" stop-color="#1F158E"/>
<stop offset="0.52" stop-color="#0F2DB1"/>
<stop offset="1" stop-color="#1C35C1"/>
</linearGradient>
<linearGradient id="paint2_linear_2_134" x1="43.6277" y1="-2.09495" x2="-8.52334" y2="44.8304" gradientUnits="userSpaceOnUse">
<stop offset="0.02" stop-color="#1F158E"/>
<stop offset="0.52" stop-color="#0F2DB1"/>
<stop offset="1" stop-color="#1C35C1"/>
</linearGradient>
<linearGradient id="paint3_linear_2_134" x1="35.995" y1="-8.33238" x2="23.7743" y2="19.3507" gradientUnits="userSpaceOnUse">
<stop offset="0.02" stop-color="#1F158E"/>
<stop offset="0.52" stop-color="#0F2DB1"/>
<stop offset="1" stop-color="#1C35C1"/>
</linearGradient>
<linearGradient id="paint4_linear_2_134" x1="44.2276" y1="27.6532" x2="33.9698" y2="31.3964" gradientUnits="userSpaceOnUse">
<stop offset="0.02" stop-color="#1F158E"/>
<stop offset="0.52" stop-color="#0F2DB1"/>
<stop offset="1" stop-color="#1C35C1"/>
</linearGradient>
<clipPath id="clip0_2_134">
<rect width="70" height="70" fill="white"/>
</clipPath>
</defs>
</svg>
