<svg width="70" height="70" viewBox="0 0 70 70" fill="none" xmlns="http://www.w3.org/2000/svg">
<g clip-path="url(#clip0_14_22)">
<mask id="mask0_14_22" style="mask-type:luminance" maskUnits="userSpaceOnUse" x="0" y="0" width="70" height="70">
<path d="M60 0H10C4.47715 0 0 4.47715 0 10V60C0 65.5229 4.47715 70 10 70H60C65.5229 70 70 65.5229 70 60V10C70 4.47715 65.5229 0 60 0Z" fill="white"/>
</mask>
<g mask="url(#mask0_14_22)">
<path d="M60 0H10C4.47715 0 0 4.47715 0 10V60C0 65.5229 4.47715 70 10 70H60C65.5229 70 70 65.5229 70 60V10C70 4.47715 65.5229 0 60 0Z" fill="#00367C"/>
<path d="M94.8573 -15.5184C94.8573 -15.5184 68.4787 -2.95596 73.1606 28.1212C78.4135 62.967 47.9525 77.9223 27.1408 69.308C6.32911 60.6639 7.78507 28.6895 -31.7828 27.7024C-72.2071 26.7154 -80.7145 -13.5443 -80.7145 -13.5443" stroke="white" stroke-opacity="0.2" stroke-width="2" stroke-miterlimit="10"/>
<path d="M64.3677 -24.8806C64.3677 -24.8806 52.9484 1.68003 57.0308 28.0911C61.1418 54.5021 42.671 57.6128 35.3341 54.5021C20.0894 48.1013 17.1489 13.8237 -7.4597 11.6103C-25.959 9.93534 -50.853 23.1857 -64.0423 -6.8744" stroke="white" stroke-opacity="0.2" stroke-width="2" stroke-miterlimit="10"/>
<path d="M52.0634 -13.0358C52.0634 -13.0358 56.1743 14.0931 37.9891 9.24755C17.1489 3.68419 17.4629 -9.35682 -8.91566 2.96633C-18.308 7.36319 -56.1059 8.64934 -48.4835 -15.5184" stroke="white" stroke-opacity="0.2" stroke-width="2" stroke-miterlimit="10"/>
<path d="M38.8741 45.1403C43.2415 45.1403 46.782 39.6766 46.782 32.9368C46.782 26.197 43.2415 20.7333 38.8741 20.7333C34.5067 20.7333 30.9663 26.197 30.9663 32.9368C30.9663 39.6766 34.5067 45.1403 38.8741 45.1403Z" stroke="white" stroke-opacity="0.2" stroke-width="2" stroke-miterlimit="10"/>
</g>
<path d="M59.6392 15.3561H34.2713C34.2713 17.9299 35.4778 20.3983 37.6254 22.2183C39.773 24.0383 42.6857 25.0607 45.7228 25.0607H50.3958V28.8844C50.4 34.2392 55.5212 38.5794 61.8399 38.5829V17.221C61.8399 16.1913 60.8549 15.3561 59.6392 15.3561Z" fill="#2684FF"/>
<path d="M47.0872 26.0679H21.7195C21.7235 31.4227 26.8447 35.7629 33.1636 35.7664H37.8366V39.6023C37.8447 44.9571 42.9694 49.2943 49.2881 49.2943V27.9332C49.2881 26.9031 48.3027 26.0679 47.0872 26.0679Z" fill="url(#paint0_linear_14_22)"/>
<path d="M34.528 36.7736H9.16013C9.16013 42.1333 14.2873 46.4782 20.6116 46.4782H25.2993V50.3017C25.3034 55.6516 30.4157 59.9899 36.7289 60V38.6387C36.7289 37.6087 35.7435 36.7736 34.528 36.7736Z" fill="url(#paint1_linear_14_22)"/>
</g>
<defs>
<linearGradient id="paint0_linear_14_22" x1="6922.04" y1="36.7612" x2="4690.8" y2="3113.63" gradientUnits="userSpaceOnUse">
<stop offset="0.18" stop-color="#0052CC"/>
<stop offset="1" stop-color="#2684FF"/>
</linearGradient>
<linearGradient id="paint1_linear_14_22" x1="7094.93" y1="66.9936" x2="4489.86" y2="3454.25" gradientUnits="userSpaceOnUse">
<stop offset="0.18" stop-color="#0052CC"/>
<stop offset="1" stop-color="#2684FF"/>
</linearGradient>
<clipPath id="clip0_14_22">
<rect width="70" height="70" fill="white"/>
</clipPath>
</defs>
</svg>
