<svg width="70" height="70" viewBox="0 0 70 70" fill="none" xmlns="http://www.w3.org/2000/svg">
<g clip-path="url(#clip0_2_64)">
<mask id="mask0_2_64" style="mask-type:luminance" maskUnits="userSpaceOnUse" x="0" y="0" width="70" height="70">
<path d="M60 0H10C4.47715 0 0 4.47715 0 10V60C0 65.5229 4.47715 70 10 70H60C65.5229 70 70 65.5229 70 60V10C70 4.47715 65.5229 0 60 0Z" fill="white"/>
</mask>
<g mask="url(#mask0_2_64)">
<path d="M60 0H10C4.47715 0 0 4.47715 0 10V60C0 65.5229 4.47715 70 10 70H60C65.5229 70 70 65.5229 70 60V10C70 4.47715 65.5229 0 60 0Z" fill="#003438"/>
<path d="M94.8573 -15.5184C94.8573 -15.5184 68.4787 -2.95596 73.1606 28.1212C78.4135 62.967 47.9525 77.9223 27.1408 69.308C6.32914 60.6639 7.7851 28.6895 -31.7828 27.7024C-72.2071 26.7154 -80.7145 -13.5443 -80.7145 -13.5443" stroke="white" stroke-opacity="0.2" stroke-width="2" stroke-miterlimit="10"/>
<path d="M64.3677 -24.8806C64.3677 -24.8806 52.9484 1.68003 57.0308 28.0911C61.1418 54.5021 42.671 57.6128 35.3341 54.5021C20.0894 48.1013 17.1489 13.8237 -7.4597 11.6103C-25.959 9.93534 -50.853 23.1857 -64.0423 -6.8744" stroke="white" stroke-opacity="0.2" stroke-width="2" stroke-miterlimit="10"/>
<path d="M52.0634 -13.0358C52.0634 -13.0358 56.1743 14.0931 37.9891 9.24755C17.1489 3.68419 17.4629 -9.35682 -8.91566 2.96633C-18.308 7.36319 -56.1059 8.64934 -48.4835 -15.5184" stroke="white" stroke-opacity="0.2" stroke-width="2" stroke-miterlimit="10"/>
<path d="M38.8741 45.1403C43.2415 45.1403 46.782 39.6766 46.782 32.9368C46.782 26.197 43.2415 20.7333 38.8741 20.7333C34.5067 20.7333 30.9663 26.197 30.9663 32.9368C30.9663 39.6766 34.5067 45.1403 38.8741 45.1403Z" stroke="white" stroke-opacity="0.2" stroke-width="2" stroke-miterlimit="10"/>
<g filter="url(#filter0_d_2_64)">
<path d="M35.8055 5.12854L37.3197 7.50931C37.6601 7.94872 38.0291 8.33752 38.4618 8.6997C39.7343 9.75161 40.9209 10.8754 42.0121 12.0631C44.5761 14.8807 46.3067 18.0124 47.5411 21.3998C48.2823 23.4664 48.6831 25.5915 48.7149 27.7352C48.839 34.1505 46.2113 39.6577 40.9177 44.2355C40.0588 44.9599 39.1267 45.6283 38.1341 46.2248C37.6092 46.2248 37.3611 45.8893 37.1448 45.5777C36.7503 45.0025 36.4894 44.3714 36.3717 43.7162C36.184 42.9386 36.0631 42.1637 36.1236 41.3648V41.0026C36.0822 40.92 35.6209 5.31229 35.8055 5.12854Z" fill="#599636"/>
<path d="M35.8055 5.05133C35.7451 4.94747 35.6814 5.0247 35.6178 5.07796C35.6496 5.59725 35.4301 6.06063 35.0929 6.50269C34.7207 6.9421 34.2276 7.28031 33.7313 7.64248C30.9859 9.63179 28.8227 12.0392 27.0921 14.7289C24.7857 18.348 23.5991 22.2281 23.2651 26.3158C23.1124 27.7885 23.8218 32.9868 24.3785 34.4861C25.8928 38.47 28.6095 41.8069 32.1344 44.7016C32.9997 45.3993 33.9254 46.0464 34.8798 46.6696C35.1597 46.6696 35.1884 46.4619 35.252 46.3074C35.376 45.9772 35.4683 45.6417 35.5319 45.3008L36.1523 41.4234L35.8055 5.05133Z" fill="#6CAC48"/>
<path d="M37.3198 47.7961C37.3802 47.2022 37.7206 46.7122 38.0928 46.2195C37.7206 46.0917 37.4438 45.8334 37.2275 45.5484C37.0398 45.2768 36.8871 44.9919 36.7662 44.6936C36.3336 43.6097 36.2413 42.4673 36.1173 41.3594V40.6884C35.9646 40.7922 35.9296 41.671 35.9296 41.8015C35.8405 42.9759 35.6528 44.1397 35.3729 45.2928C35.2806 45.7588 35.2202 46.2249 34.8766 46.6376C34.8766 46.6882 34.8766 46.7415 34.9084 46.8187C35.4651 48.1902 35.6178 49.5856 35.7101 51.0104V51.5297C35.7101 52.1502 35.6783 52.0197 36.2954 52.2274C36.5436 52.3046 36.8203 52.3312 37.0685 52.4857C37.2562 52.4857 37.2848 52.3579 37.2848 52.2514L37.1925 51.3965V49.0157C37.1639 48.6003 37.2562 48.1875 37.3198 47.7961Z" fill="#C2BFBF"/>
<mask id="path-10-inside-1_2_64" fill="white">
<path d="M10.9832 59.3497V60.5C10.9832 60.5462 10.9832 60.5924 10.993 60.636C11.0092 60.7719 11.1099 60.8562 11.2561 60.8943C11.3926 60.9242 11.5322 60.9459 11.6719 60.9623C11.7531 60.9704 11.7791 61.0003 11.7889 61.0738C11.7986 61.3321 11.7726 61.362 11.4738 61.3457C10.7786 61.3158 10.0802 61.3076 9.38501 61.3457H9.32005C9.10239 61.3539 9.08617 61.3375 9.08617 61.1553C9.08617 61.1254 9.0959 61.0874 9.0959 61.0574C9.0959 61.0031 9.14139 60.9732 9.20311 60.9732C9.34929 60.9596 9.48246 60.9269 9.6189 60.9052C9.80729 60.8671 9.91774 60.7692 9.934 60.6088C9.95999 60.4347 9.95999 60.2525 9.95999 60.0785L9.96973 58.0499C9.97622 57.9302 9.89828 57.8187 9.77157 57.7616C9.60916 57.6855 9.43372 57.6257 9.25506 57.5795C9.19984 57.5659 9.14785 57.5577 9.10239 57.5332C8.96919 57.4788 8.96595 57.3809 9.09266 57.3211C9.13815 57.2994 9.19335 57.283 9.24533 57.2749C9.79357 57.207 10.3323 57.0931 10.8533 56.935C10.9605 56.9051 10.9897 56.9132 10.9995 57.003C11.0092 57.0573 10.9995 57.1253 10.9897 57.177C10.9735 57.2749 10.9735 57.3728 10.9735 57.4652C10.9735 57.5033 10.9832 57.5414 11.0287 57.5631C11.0742 57.5849 11.1197 57.5631 11.1619 57.5414C11.3503 57.419 11.542 57.3075 11.7499 57.2096C12.0487 57.0737 12.3638 56.9513 12.7082 56.9132C13.124 56.867 13.4845 56.9594 13.8029 57.1851C13.9328 57.283 14.0498 57.3945 14.1472 57.5169C14.2382 57.6284 14.2479 57.6311 14.3649 57.555C14.7092 57.3429 15.0698 57.1553 15.4596 57.0165C15.8656 56.8724 16.2814 56.8507 16.6973 56.9703C17.1228 57.0981 17.4119 57.3483 17.5841 57.6882C17.7303 57.9601 17.792 58.243 17.792 58.5367V60.5653C17.792 60.7012 17.8569 60.7855 18.0194 60.8535C18.1915 60.9079 18.3799 60.9378 18.5618 60.9677C18.6788 60.9895 18.6788 60.9895 18.6788 61.0901C18.6626 61.3403 18.6333 61.3539 18.3442 61.3403C17.6193 61.3049 16.8926 61.3049 16.1678 61.3403C16.0216 61.3484 16.0216 61.3484 16.0151 61.226V61.188C16.0053 60.984 16.0053 60.984 16.2425 60.9378L16.4763 60.8834C16.6388 60.8508 16.7557 60.7284 16.7557 60.587L16.7817 60.0187L16.7655 58.5367C16.759 58.4034 16.7265 58.2729 16.6648 58.1505C16.4374 57.6882 15.9404 57.5223 15.4628 57.5686C15.1023 57.5985 14.7839 57.7209 14.485 57.8949C14.4201 57.933 14.3778 57.9792 14.3844 58.0526C14.4656 58.5366 14.4104 59.0207 14.4201 59.5047V60.5571C14.4201 60.7475 14.5111 60.8372 14.7287 60.8834L15.1445 60.9596C15.2094 60.9677 15.2452 60.9895 15.2452 61.0493V61.1037C15.2354 61.3158 15.2192 61.3239 14.9658 61.3239C14.2414 61.294 13.5203 61.3022 12.8056 61.3239C12.562 61.3321 12.5425 61.3103 12.5522 61.1037C12.562 60.9813 12.5782 60.9759 12.7147 60.9514L13.0135 60.9052C13.2767 60.8589 13.3741 60.7773 13.3936 60.5408L13.4196 60.0323L13.4033 58.5122C13.3871 58.3218 13.3384 58.1423 13.2149 57.9683C13.033 57.6882 12.7504 57.5441 12.3638 57.5305C11.974 57.5088 11.6329 57.6284 11.3048 57.7807C11.0774 57.8922 10.98 58.0227 10.9962 58.243V59.347L10.9832 59.3497ZM28.0148 59.396V60.4619C28.0148 60.5381 28.0213 60.6142 28.0311 60.6876C28.0375 60.7909 28.1285 60.878 28.2487 60.8997C28.4046 60.9378 28.5638 60.9595 28.7262 60.9677C28.8172 60.9759 28.8334 61.0058 28.8432 61.0656V61.12C28.8334 61.3838 28.7977 61.4164 28.4891 61.4001C27.8004 61.362 27.115 61.3702 26.4296 61.4001L26.1665 61.4082C26.1112 61.4082 26.1015 61.3865 26.0852 61.3539C26.0593 61.2489 26.0593 61.1406 26.0852 61.0357C26.095 60.9895 26.1307 60.9813 26.1859 60.9677C26.3191 60.9541 26.4296 60.9296 26.5563 60.9133C26.7837 60.8671 26.8648 60.7909 26.8714 60.5952L26.8974 59.9588V58.0961C26.8974 57.9601 26.8324 57.8759 26.6895 57.816C26.527 57.7399 26.3549 57.6882 26.173 57.6338C26.1177 57.6203 26.0657 57.6039 26.0203 57.5795C25.9033 57.5115 25.8871 57.4135 26.004 57.3374C26.056 57.3021 26.1177 57.2803 26.1859 57.2776C26.7642 57.2015 27.3262 57.0954 27.8686 56.9132C27.9336 56.8915 27.9596 56.9051 27.9856 56.9513C28.0115 56.9975 28.0213 57.0492 28.0116 57.1036L27.9856 57.4598C27.9856 57.506 27.9596 57.5713 28.0018 57.5876C28.057 57.6175 28.0928 57.5495 28.1383 57.5332C28.4046 57.3455 28.6996 57.1883 29.0153 57.0655C29.2947 56.954 29.5838 56.8833 29.9087 56.8996C30.5161 56.9295 30.9482 57.1879 31.2275 57.6338C31.3737 57.8677 31.4354 58.126 31.4614 58.3898L31.4874 58.9445L31.4971 60.6169C31.5069 60.7447 31.5621 60.829 31.7148 60.8753C31.8738 60.9187 32.0368 60.9515 32.202 60.9732C32.3482 60.9867 32.3547 61.0112 32.3645 61.1254V61.1635C32.3482 61.4218 32.3287 61.4273 32.0201 61.4137C31.346 61.3838 30.6705 61.3838 29.9964 61.4137C29.9054 61.4218 29.8145 61.4137 29.7332 61.4218C29.678 61.4218 29.6423 61.4137 29.6325 61.3674C29.6163 61.2696 29.5968 61.1717 29.6228 61.0656C29.6325 61.0194 29.6585 60.9976 29.7235 60.9894L30.1393 60.9351C30.2855 60.9052 30.3667 60.8236 30.3829 60.7148L30.3992 60.5027L30.3894 58.9201C30.3894 58.7379 30.3797 58.5557 30.3342 58.3762C30.227 57.9874 29.8729 57.7127 29.3954 57.6719C28.9796 57.6338 28.6028 57.7263 28.2552 57.9139C28.083 58.0037 28.0116 58.1342 28.0116 58.2919V59.434C28.0116 59.4123 28.0116 59.4123 28.0213 59.4123L28.0148 59.396Z"/>
</mask>
<path d="M10.9832 59.3497V60.5C10.9832 60.5462 10.9832 60.5924 10.993 60.636C11.0092 60.7719 11.1099 60.8562 11.2561 60.8943C11.3926 60.9242 11.5322 60.9459 11.6719 60.9623C11.7531 60.9704 11.7791 61.0003 11.7889 61.0738C11.7986 61.3321 11.7726 61.362 11.4738 61.3457C10.7786 61.3158 10.0802 61.3076 9.38501 61.3457H9.32005C9.10239 61.3539 9.08617 61.3375 9.08617 61.1553C9.08617 61.1254 9.0959 61.0874 9.0959 61.0574C9.0959 61.0031 9.14139 60.9732 9.20311 60.9732C9.34929 60.9596 9.48246 60.9269 9.6189 60.9052C9.80729 60.8671 9.91774 60.7692 9.934 60.6088C9.95999 60.4347 9.95999 60.2525 9.95999 60.0785L9.96973 58.0499C9.97622 57.9302 9.89828 57.8187 9.77157 57.7616C9.60916 57.6855 9.43372 57.6257 9.25506 57.5795C9.19984 57.5659 9.14785 57.5577 9.10239 57.5332C8.96919 57.4788 8.96595 57.3809 9.09266 57.3211C9.13815 57.2994 9.19335 57.283 9.24533 57.2749C9.79357 57.207 10.3323 57.0931 10.8533 56.935C10.9605 56.9051 10.9897 56.9132 10.9995 57.003C11.0092 57.0573 10.9995 57.1253 10.9897 57.177C10.9735 57.2749 10.9735 57.3728 10.9735 57.4652C10.9735 57.5033 10.9832 57.5414 11.0287 57.5631C11.0742 57.5849 11.1197 57.5631 11.1619 57.5414C11.3503 57.419 11.542 57.3075 11.7499 57.2096C12.0487 57.0737 12.3638 56.9513 12.7082 56.9132C13.124 56.867 13.4845 56.9594 13.8029 57.1851C13.9328 57.283 14.0498 57.3945 14.1472 57.5169C14.2382 57.6284 14.2479 57.6311 14.3649 57.555C14.7092 57.3429 15.0698 57.1553 15.4596 57.0165C15.8656 56.8724 16.2814 56.8507 16.6973 56.9703C17.1228 57.0981 17.4119 57.3483 17.5841 57.6882C17.7303 57.9601 17.792 58.243 17.792 58.5367V60.5653C17.792 60.7012 17.8569 60.7855 18.0194 60.8535C18.1915 60.9079 18.3799 60.9378 18.5618 60.9677C18.6788 60.9895 18.6788 60.9895 18.6788 61.0901C18.6626 61.3403 18.6333 61.3539 18.3442 61.3403C17.6193 61.3049 16.8926 61.3049 16.1678 61.3403C16.0216 61.3484 16.0216 61.3484 16.0151 61.226V61.188C16.0053 60.984 16.0053 60.984 16.2425 60.9378L16.4763 60.8834C16.6388 60.8508 16.7557 60.7284 16.7557 60.587L16.7817 60.0187L16.7655 58.5367C16.759 58.4034 16.7265 58.2729 16.6648 58.1505C16.4374 57.6882 15.9404 57.5223 15.4628 57.5686C15.1023 57.5985 14.7839 57.7209 14.485 57.8949C14.4201 57.933 14.3778 57.9792 14.3844 58.0526C14.4656 58.5366 14.4104 59.0207 14.4201 59.5047V60.5571C14.4201 60.7475 14.5111 60.8372 14.7287 60.8834L15.1445 60.9596C15.2094 60.9677 15.2452 60.9895 15.2452 61.0493V61.1037C15.2354 61.3158 15.2192 61.3239 14.9658 61.3239C14.2414 61.294 13.5203 61.3022 12.8056 61.3239C12.562 61.3321 12.5425 61.3103 12.5522 61.1037C12.562 60.9813 12.5782 60.9759 12.7147 60.9514L13.0135 60.9052C13.2767 60.8589 13.3741 60.7773 13.3936 60.5408L13.4196 60.0323L13.4033 58.5122C13.3871 58.3218 13.3384 58.1423 13.2149 57.9683C13.033 57.6882 12.7504 57.5441 12.3638 57.5305C11.974 57.5088 11.6329 57.6284 11.3048 57.7807C11.0774 57.8922 10.98 58.0227 10.9962 58.243V59.347L10.9832 59.3497ZM28.0148 59.396V60.4619C28.0148 60.5381 28.0213 60.6142 28.0311 60.6876C28.0375 60.7909 28.1285 60.878 28.2487 60.8997C28.4046 60.9378 28.5638 60.9595 28.7262 60.9677C28.8172 60.9759 28.8334 61.0058 28.8432 61.0656V61.12C28.8334 61.3838 28.7977 61.4164 28.4891 61.4001C27.8004 61.362 27.115 61.3702 26.4296 61.4001L26.1665 61.4082C26.1112 61.4082 26.1015 61.3865 26.0852 61.3539C26.0593 61.2489 26.0593 61.1406 26.0852 61.0357C26.095 60.9895 26.1307 60.9813 26.1859 60.9677C26.3191 60.9541 26.4296 60.9296 26.5563 60.9133C26.7837 60.8671 26.8648 60.7909 26.8714 60.5952L26.8974 59.9588V58.0961C26.8974 57.9601 26.8324 57.8759 26.6895 57.816C26.527 57.7399 26.3549 57.6882 26.173 57.6338C26.1177 57.6203 26.0657 57.6039 26.0203 57.5795C25.9033 57.5115 25.8871 57.4135 26.004 57.3374C26.056 57.3021 26.1177 57.2803 26.1859 57.2776C26.7642 57.2015 27.3262 57.0954 27.8686 56.9132C27.9336 56.8915 27.9596 56.9051 27.9856 56.9513C28.0115 56.9975 28.0213 57.0492 28.0116 57.1036L27.9856 57.4598C27.9856 57.506 27.9596 57.5713 28.0018 57.5876C28.057 57.6175 28.0928 57.5495 28.1383 57.5332C28.4046 57.3455 28.6996 57.1883 29.0153 57.0655C29.2947 56.954 29.5838 56.8833 29.9087 56.8996C30.5161 56.9295 30.9482 57.1879 31.2275 57.6338C31.3737 57.8677 31.4354 58.126 31.4614 58.3898L31.4874 58.9445L31.4971 60.6169C31.5069 60.7447 31.5621 60.829 31.7148 60.8753C31.8738 60.9187 32.0368 60.9515 32.202 60.9732C32.3482 60.9867 32.3547 61.0112 32.3645 61.1254V61.1635C32.3482 61.4218 32.3287 61.4273 32.0201 61.4137C31.346 61.3838 30.6705 61.3838 29.9964 61.4137C29.9054 61.4218 29.8145 61.4137 29.7332 61.4218C29.678 61.4218 29.6423 61.4137 29.6325 61.3674C29.6163 61.2696 29.5968 61.1717 29.6228 61.0656C29.6325 61.0194 29.6585 60.9976 29.7235 60.9894L30.1393 60.9351C30.2855 60.9052 30.3667 60.8236 30.3829 60.7148L30.3992 60.5027L30.3894 58.9201C30.3894 58.7379 30.3797 58.5557 30.3342 58.3762C30.227 57.9874 29.8729 57.7127 29.3954 57.6719C28.9796 57.6338 28.6028 57.7263 28.2552 57.9139C28.083 58.0037 28.0116 58.1342 28.0116 58.2919V59.434C28.0116 59.4123 28.0116 59.4123 28.0213 59.4123L28.0148 59.396Z" fill="#47474A" stroke="white" stroke-width="2" mask="url(#path-10-inside-1_2_64)"/>
<path d="M54.4864 57.2559C54.3857 56.7039 54.1421 56.2117 53.7165 55.7793C53.3462 55.3986 52.8686 55.1022 52.3229 54.9173C51.7544 54.7215 51.147 54.659 50.533 54.6454C50.2797 54.6372 46.8266 54.6834 46.5732 54.6454C46.5082 54.6372 46.466 54.6535 46.427 54.6998C46.3815 54.7542 46.336 54.814 46.3101 54.8738C46.2029 55.0777 46.2029 55.0642 46.4627 55.094C46.6804 55.124 46.8883 55.1403 47.0962 55.192C47.2846 55.2463 47.421 55.3361 47.4665 55.5101C47.4827 55.5944 47.5022 58.2566 47.5022 59.4966L47.4665 60.3831C47.4568 60.4511 47.4503 60.5191 47.421 60.5789C47.3853 60.6687 47.3203 60.7448 47.2131 60.7829C47.0929 60.8291 46.9663 60.859 46.8331 60.8672C46.5894 60.8889 46.5537 60.8971 46.4725 61.1255L46.4465 61.2098C46.4303 61.3077 46.4368 61.324 46.5537 61.324L49.2564 61.3457L50.3154 61.3322L51.0463 61.256C51.8779 61.1282 52.6185 60.84 53.252 60.3777C53.6125 60.1112 53.9081 59.7876 54.1193 59.4232C54.3727 58.999 54.4799 58.5367 54.5091 58.069C54.5579 57.7998 54.5416 57.5279 54.4864 57.2559ZM53.1773 58.33C53.1415 58.8141 53.0246 59.2845 52.7257 59.706C52.3456 60.258 51.8032 60.6442 51.0528 60.7801C50.7279 60.8345 50.4031 60.8644 50.062 60.8264C49.8184 60.8046 49.5845 60.7801 49.3571 60.7122C48.951 60.5898 48.8048 60.3804 48.7984 60.0487L48.7886 55.4856C48.7886 55.2137 48.9348 55.1539 49.1687 55.1457C49.5227 55.124 49.8833 55.1321 50.2342 55.1593C50.611 55.1892 50.9781 55.2654 51.3289 55.3796C51.5888 55.4693 51.8291 55.5944 52.0436 55.7494C52.5308 56.0975 52.8557 56.5353 53.0343 57.0493C53.1805 57.4653 53.2065 57.8895 53.1805 58.3137L53.1773 58.33ZM62 59.0724C62 59.0262 62 58.9881 61.9903 58.9446C61.9091 58.5286 61.6459 58.2104 61.2399 57.9684C60.9768 57.8106 60.6812 57.7046 60.3726 57.6285C60.3173 57.6149 60.2719 57.5985 60.2199 57.5904C60.2296 57.5523 60.2556 57.5442 60.2848 57.536C60.4667 57.4598 60.6389 57.3783 60.7916 57.2641C61.071 57.0683 61.2561 56.8263 61.3503 56.5299C61.4056 56.3721 61.4056 56.2117 61.3861 56.0458C61.3568 55.6515 61.1132 55.2898 60.7266 55.0614C60.3108 54.8031 59.8236 54.6971 59.3168 54.6916C58.339 54.678 57.3548 54.6916 56.3802 54.6916C56.1008 54.6916 55.8215 54.7052 55.5291 54.6698C55.4739 54.6617 55.3959 54.6481 55.357 54.6998C55.292 54.7977 55.2108 54.8956 55.1848 55.0097C55.175 55.0642 55.1945 55.0941 55.266 55.0995L55.8897 55.1757C56.1333 55.2056 56.3055 55.3198 56.325 55.502C56.3412 55.627 56.351 55.7548 56.351 55.8799L56.3348 57.294L56.325 60.0922C56.325 60.258 56.299 60.4185 56.26 60.5844C56.2405 60.6931 56.1496 60.7801 56.0261 60.81C55.8442 60.8563 55.6721 60.8998 55.4837 60.8998C55.3797 60.8916 55.2823 60.946 55.2498 61.0276C55.214 61.0956 55.1848 61.1717 55.1686 61.2397C55.1523 61.3295 55.1783 61.3621 55.2855 61.3512C55.3667 61.343 58.3488 61.4056 58.9108 61.3594C59.2453 61.3295 59.5734 61.2914 59.9048 61.2071C60.4733 61.0548 60.9995 60.8372 61.4153 60.4647C61.7596 60.1628 61.9578 59.7985 61.9741 59.3743C62 59.2764 62 59.1785 62 59.0724ZM57.6146 55.9697L57.6406 55.3633C57.6406 55.249 57.6958 55.1974 57.829 55.1729C58.0467 55.1348 58.2643 55.1512 58.4787 55.1593C58.6964 55.1729 58.9043 55.1974 59.1219 55.2491C59.5182 55.3469 59.8268 55.5373 60.0087 55.8555C60.0899 55.9996 60.1354 56.1573 60.1354 56.3178C60.1452 56.5298 60.1257 56.7338 60.0282 56.9377C59.8755 57.2178 59.6319 57.4001 59.2778 57.4517C58.9238 57.5061 57.9233 57.4816 57.7673 57.4816C57.6309 57.4816 57.6211 57.468 57.6211 57.3538V56.6414C57.5984 56.4211 57.5984 56.1981 57.6114 55.9751L57.6146 55.9697ZM60.5512 60.0405C60.3985 60.3804 60.1159 60.617 59.7196 60.7448C59.502 60.8128 59.2843 60.8563 59.0569 60.8427C58.7776 60.8345 58.4982 60.8427 58.2156 60.7965C57.8355 60.7285 57.6633 60.4266 57.6374 60.2064C57.5919 59.8202 57.6211 59.4259 57.6114 59.1404V58.1424C57.6114 58.02 57.6276 57.9847 57.7836 57.9847L58.6346 57.9929L59.2129 58.0472C59.6189 58.1234 59.9892 58.2512 60.2784 58.5149C60.5122 58.7271 60.6389 58.9827 60.6682 59.2628C60.6941 59.5265 60.6779 59.7849 60.5609 60.035L60.5512 60.0405Z" fill="#C2BFBF"/>
<mask id="path-12-inside-2_2_64" fill="white">
<path d="M37.5847 57.7617L37.8186 57.7916C38.072 57.7998 38.3709 57.7237 38.4618 57.4272C38.5105 57.286 38.5105 57.1361 38.4618 56.9949C38.4066 56.9949 38.3806 57.033 38.3546 57.0493C38.2182 57.139 38.0655 57.1934 37.9031 57.207C37.5782 57.2369 37.2534 57.2206 36.935 57.1227L36.4933 56.9949C36.1847 56.9106 35.8598 56.8752 35.535 56.8888C35.0737 56.9187 34.6416 57.0465 34.2323 57.2287C33.7971 57.4245 33.4917 57.7209 33.3455 58.1207C33.2643 58.3545 33.2545 58.5965 33.2903 58.8386C33.3813 59.3906 33.7256 59.7767 34.3395 59.9807C34.3753 59.9888 34.4045 60.0024 34.4402 60.0106C34.5215 60.0487 34.5312 60.0867 34.4565 60.1384L34.2291 60.2662L33.6866 60.5463C33.5502 60.6143 33.5339 60.6687 33.5794 60.7883C33.6346 60.9297 33.7321 61.0548 33.8685 61.1527C33.9919 61.2424 34.1316 61.3131 34.2843 61.3648C34.385 61.4029 34.385 61.4192 34.2941 61.4872L33.7776 61.7972C33.6054 61.9087 33.4332 62.0174 33.2903 62.1616C33.1898 62.251 33.1173 62.3599 33.0793 62.4786C33.0413 62.5972 33.039 62.7218 33.0726 62.8414C33.1409 63.1052 33.3033 63.3418 33.5437 63.5212C33.7782 63.704 34.0643 63.8341 34.3752 63.8992C34.882 64.0216 35.405 64.027 35.9215 63.9454C36.6622 63.8312 37.3118 63.5566 37.8186 63.0916C38.1727 62.7816 38.3773 62.4172 38.3968 61.9848C38.4391 61.4654 38.0233 61.0004 37.4191 60.8808L36.9318 60.8046L35.4407 60.6931C35.2783 60.685 35.1159 60.6632 34.9795 60.5952C34.8073 60.5055 34.7618 60.3315 34.8723 60.2173C34.9535 60.1329 35.0542 60.0813 35.1809 60.0731L35.47 60.0514C36.0413 60.0027 36.5778 59.7983 36.9967 59.4695C37.2205 59.2957 37.3805 59.0721 37.458 58.825C37.5652 58.4987 37.5652 58.1615 37.4743 57.8297C37.4483 57.7454 37.458 57.74 37.5815 57.7535L37.5847 57.7617ZM35.3693 61.5307C35.4245 61.5388 35.4765 61.5307 35.5317 61.5307C35.9118 61.5443 36.3016 61.5688 36.6719 61.653C36.7921 61.683 36.9123 61.721 37.026 61.7673C37.3866 61.9332 37.523 62.2214 37.4775 62.5314C37.4223 62.8713 37.1981 63.1133 36.8441 63.2738C36.6102 63.3853 36.3471 63.4315 36.0742 63.456C35.9735 63.4641 35.8858 63.456 35.7851 63.456C35.47 63.4641 35.1614 63.4342 34.8625 63.3281C34.6546 63.2602 34.4825 63.1623 34.3298 63.0263C34.0147 62.7625 33.8653 62.2785 34.3395 61.8842C34.6286 61.6585 34.9535 61.5008 35.3693 61.5307ZM36.4023 59.1703C36.2139 59.5701 35.7948 59.6924 35.3823 59.638C35.0022 59.5918 34.7229 59.4178 34.5409 59.1295C34.307 58.7434 34.2421 58.3437 34.3785 57.9276C34.4792 57.6176 34.7033 57.3837 35.1029 57.3293C35.6097 57.2532 36.0937 57.4055 36.3503 57.8297C36.4835 58.0336 36.5387 58.2838 36.5387 58.6401C36.529 58.7842 36.4932 58.98 36.4023 59.1703ZM25.0133 58.6537C24.9321 58.2457 24.7502 57.8732 24.4155 57.5632C23.9185 57.1009 23.2851 56.8997 22.5704 56.897C21.9467 56.8888 21.3588 57.0411 20.8358 57.313C20.3193 57.5714 19.9425 57.9847 19.7768 58.4715C19.6241 58.9093 19.6306 59.3579 19.7508 59.8039C20.0659 61.0004 21.1704 61.5144 22.4892 61.4382C22.879 61.4165 23.2494 61.3104 23.6002 61.1663C24.1232 60.9624 24.5033 60.636 24.7664 60.2064C24.9743 59.8502 25.0652 59.4722 25.0555 59.0398L25.0133 58.6537ZM23.7301 60.3342C23.5969 60.6823 23.2331 60.9324 22.7978 60.9705C22.4015 61.0167 22.028 60.9324 21.6966 60.7366C21.4562 60.5871 21.2613 60.394 21.1281 60.1683C20.7578 59.532 20.6928 58.8685 20.8845 58.1859C20.9462 57.9738 21.0761 57.7835 21.2646 57.6339C21.5991 57.3756 21.989 57.3158 22.421 57.3919C22.8368 57.4681 23.1519 57.6557 23.4118 57.9439C23.6716 58.2322 23.7918 58.5639 23.8633 58.912C23.899 59.086 23.899 59.2682 23.9088 59.3797C23.9088 59.7441 23.8731 60.0432 23.7366 60.3342H23.7301ZM44.7638 58.7162C44.6988 58.2784 44.5007 57.8759 44.1303 57.5442C43.6431 57.0982 43.0096 56.9079 42.3047 56.8997C41.6973 56.8915 41.1385 57.0357 40.622 57.2858C40.0438 57.5741 39.6442 57.982 39.4916 58.534C39.3096 59.1377 39.3844 59.774 39.7092 60.3342C40.008 60.8644 40.5148 61.2044 41.184 61.3567C41.9246 61.5225 42.6296 61.4464 43.3182 61.1663C43.9159 60.9243 44.3382 60.5463 44.5851 60.0324C44.7313 59.7305 44.7833 59.4042 44.793 59.0262C44.7995 58.9582 44.78 58.8359 44.7638 58.7162ZM43.5164 60.2363C43.3702 60.6442 43.0648 60.9107 42.5483 60.9705C42.1683 61.0167 41.8077 60.9406 41.4828 60.7584C41.2035 60.6007 41.0053 60.3886 40.8592 60.1384C40.6967 59.8746 40.6058 59.5945 40.57 59.3063C40.5148 58.95 40.5148 58.602 40.6155 58.2457C40.635 58.175 40.661 58.1071 40.6967 58.0418C40.9501 57.5115 41.5088 57.2695 42.1715 57.3919C42.6133 57.4762 42.9479 57.6801 43.2013 57.9901C43.4449 58.292 43.5618 58.6265 43.6171 58.9854C43.6431 59.1295 43.6528 59.2818 43.6431 59.4096C43.6431 59.706 43.6171 59.9779 43.5099 60.2417L43.5164 60.2363Z"/>
</mask>
<path d="M37.5847 57.7617L37.8186 57.7916C38.072 57.7998 38.3709 57.7237 38.4618 57.4272C38.5105 57.286 38.5105 57.1361 38.4618 56.9949C38.4066 56.9949 38.3806 57.033 38.3546 57.0493C38.2182 57.139 38.0655 57.1934 37.9031 57.207C37.5782 57.2369 37.2534 57.2206 36.935 57.1227L36.4933 56.9949C36.1847 56.9106 35.8598 56.8752 35.535 56.8888C35.0737 56.9187 34.6416 57.0465 34.2323 57.2287C33.7971 57.4245 33.4917 57.7209 33.3455 58.1207C33.2643 58.3545 33.2545 58.5965 33.2903 58.8386C33.3813 59.3906 33.7256 59.7767 34.3395 59.9807C34.3753 59.9888 34.4045 60.0024 34.4402 60.0106C34.5215 60.0487 34.5312 60.0867 34.4565 60.1384L34.2291 60.2662L33.6866 60.5463C33.5502 60.6143 33.5339 60.6687 33.5794 60.7883C33.6346 60.9297 33.7321 61.0548 33.8685 61.1527C33.9919 61.2424 34.1316 61.3131 34.2843 61.3648C34.385 61.4029 34.385 61.4192 34.2941 61.4872L33.7776 61.7972C33.6054 61.9087 33.4332 62.0174 33.2903 62.1616C33.1898 62.251 33.1173 62.3599 33.0793 62.4786C33.0413 62.5972 33.039 62.7218 33.0726 62.8414C33.1409 63.1052 33.3033 63.3418 33.5437 63.5212C33.7782 63.704 34.0643 63.8341 34.3752 63.8992C34.882 64.0216 35.405 64.027 35.9215 63.9454C36.6622 63.8312 37.3118 63.5566 37.8186 63.0916C38.1727 62.7816 38.3773 62.4172 38.3968 61.9848C38.4391 61.4654 38.0233 61.0004 37.4191 60.8808L36.9318 60.8046L35.4407 60.6931C35.2783 60.685 35.1159 60.6632 34.9795 60.5952C34.8073 60.5055 34.7618 60.3315 34.8723 60.2173C34.9535 60.1329 35.0542 60.0813 35.1809 60.0731L35.47 60.0514C36.0413 60.0027 36.5778 59.7983 36.9967 59.4695C37.2205 59.2957 37.3805 59.0721 37.458 58.825C37.5652 58.4987 37.5652 58.1615 37.4743 57.8297C37.4483 57.7454 37.458 57.74 37.5815 57.7535L37.5847 57.7617ZM35.3693 61.5307C35.4245 61.5388 35.4765 61.5307 35.5317 61.5307C35.9118 61.5443 36.3016 61.5688 36.6719 61.653C36.7921 61.683 36.9123 61.721 37.026 61.7673C37.3866 61.9332 37.523 62.2214 37.4775 62.5314C37.4223 62.8713 37.1981 63.1133 36.8441 63.2738C36.6102 63.3853 36.3471 63.4315 36.0742 63.456C35.9735 63.4641 35.8858 63.456 35.7851 63.456C35.47 63.4641 35.1614 63.4342 34.8625 63.3281C34.6546 63.2602 34.4825 63.1623 34.3298 63.0263C34.0147 62.7625 33.8653 62.2785 34.3395 61.8842C34.6286 61.6585 34.9535 61.5008 35.3693 61.5307ZM36.4023 59.1703C36.2139 59.5701 35.7948 59.6924 35.3823 59.638C35.0022 59.5918 34.7229 59.4178 34.5409 59.1295C34.307 58.7434 34.2421 58.3437 34.3785 57.9276C34.4792 57.6176 34.7033 57.3837 35.1029 57.3293C35.6097 57.2532 36.0937 57.4055 36.3503 57.8297C36.4835 58.0336 36.5387 58.2838 36.5387 58.6401C36.529 58.7842 36.4932 58.98 36.4023 59.1703ZM25.0133 58.6537C24.9321 58.2457 24.7502 57.8732 24.4155 57.5632C23.9185 57.1009 23.2851 56.8997 22.5704 56.897C21.9467 56.8888 21.3588 57.0411 20.8358 57.313C20.3193 57.5714 19.9425 57.9847 19.7768 58.4715C19.6241 58.9093 19.6306 59.3579 19.7508 59.8039C20.0659 61.0004 21.1704 61.5144 22.4892 61.4382C22.879 61.4165 23.2494 61.3104 23.6002 61.1663C24.1232 60.9624 24.5033 60.636 24.7664 60.2064C24.9743 59.8502 25.0652 59.4722 25.0555 59.0398L25.0133 58.6537ZM23.7301 60.3342C23.5969 60.6823 23.2331 60.9324 22.7978 60.9705C22.4015 61.0167 22.028 60.9324 21.6966 60.7366C21.4562 60.5871 21.2613 60.394 21.1281 60.1683C20.7578 59.532 20.6928 58.8685 20.8845 58.1859C20.9462 57.9738 21.0761 57.7835 21.2646 57.6339C21.5991 57.3756 21.989 57.3158 22.421 57.3919C22.8368 57.4681 23.1519 57.6557 23.4118 57.9439C23.6716 58.2322 23.7918 58.5639 23.8633 58.912C23.899 59.086 23.899 59.2682 23.9088 59.3797C23.9088 59.7441 23.8731 60.0432 23.7366 60.3342H23.7301ZM44.7638 58.7162C44.6988 58.2784 44.5007 57.8759 44.1303 57.5442C43.6431 57.0982 43.0096 56.9079 42.3047 56.8997C41.6973 56.8915 41.1385 57.0357 40.622 57.2858C40.0438 57.5741 39.6442 57.982 39.4916 58.534C39.3096 59.1377 39.3844 59.774 39.7092 60.3342C40.008 60.8644 40.5148 61.2044 41.184 61.3567C41.9246 61.5225 42.6296 61.4464 43.3182 61.1663C43.9159 60.9243 44.3382 60.5463 44.5851 60.0324C44.7313 59.7305 44.7833 59.4042 44.793 59.0262C44.7995 58.9582 44.78 58.8359 44.7638 58.7162ZM43.5164 60.2363C43.3702 60.6442 43.0648 60.9107 42.5483 60.9705C42.1683 61.0167 41.8077 60.9406 41.4828 60.7584C41.2035 60.6007 41.0053 60.3886 40.8592 60.1384C40.6967 59.8746 40.6058 59.5945 40.57 59.3063C40.5148 58.95 40.5148 58.602 40.6155 58.2457C40.635 58.175 40.661 58.1071 40.6967 58.0418C40.9501 57.5115 41.5088 57.2695 42.1715 57.3919C42.6133 57.4762 42.9479 57.6801 43.2013 57.9901C43.4449 58.292 43.5618 58.6265 43.6171 58.9854C43.6431 59.1295 43.6528 59.2818 43.6431 59.4096C43.6431 59.706 43.6171 59.9779 43.5099 60.2417L43.5164 60.2363Z" fill="#47474A" stroke="white" stroke-width="2" mask="url(#path-12-inside-2_2_64)"/>
</g>
</g>
</g>
<defs>
<filter id="filter0_d_2_64" x="-6" y="-6" width="83" height="89.0001" filterUnits="userSpaceOnUse" color-interpolation-filters="sRGB">
<feFlood flood-opacity="0" result="BackgroundImageFix"/>
<feColorMatrix in="SourceAlpha" type="matrix" values="0 0 0 0 0 0 0 0 0 0 0 0 0 0 0 0 0 0 127 0" result="hardAlpha"/>
<feOffset dy="4"/>
<feGaussianBlur stdDeviation="7.5"/>
<feColorMatrix type="matrix" values="0 0 0 0 0 0 0 0 0 0 0 0 0 0 0 0 0 0 0.25 0"/>
<feBlend mode="normal" in2="BackgroundImageFix" result="effect1_dropShadow_2_64"/>
<feBlend mode="normal" in="SourceGraphic" in2="effect1_dropShadow_2_64" result="shape"/>
</filter>
<clipPath id="clip0_2_64">
<rect width="70" height="70" fill="white"/>
</clipPath>
</defs>
</svg>
