<svg width="70" height="70" viewBox="0 0 70 70" fill="none" xmlns="http://www.w3.org/2000/svg">
<g clip-path="url(#clip0_5_405)">
<mask id="mask0_5_405" style="mask-type:luminance" maskUnits="userSpaceOnUse" x="0" y="0" width="70" height="70">
<path d="M60 0H10C4.47715 0 0 4.47715 0 10V60C0 65.5229 4.47715 70 10 70H60C65.5229 70 70 65.5229 70 60V10C70 4.47715 65.5229 0 60 0Z" fill="white"/>
</mask>
<g mask="url(#mask0_5_405)">
<path d="M60 0H10C4.47715 0 0 4.47715 0 10V60C0 65.5229 4.47715 70 10 70H60C65.5229 70 70 65.5229 70 60V10C70 4.47715 65.5229 0 60 0Z" fill="#002D7A"/>
<path d="M94.8573 -15.5184C94.8573 -15.5184 68.4787 -2.95596 73.1606 28.1212C78.4135 62.967 47.9525 77.9223 27.1408 69.308C6.32914 60.6639 7.7851 28.6895 -31.7828 27.7024C-72.2071 26.7154 -80.7145 -13.5443 -80.7145 -13.5443" fill="#002D7A"/>
<path d="M94.8573 -15.5184C94.8573 -15.5184 68.4787 -2.95596 73.1606 28.1212C78.4135 62.967 47.9525 77.9223 27.1408 69.308C6.32914 60.6639 7.7851 28.6895 -31.7828 27.7024C-72.2071 26.7154 -80.7145 -13.5443 -80.7145 -13.5443" stroke="white" stroke-opacity="0.2" stroke-width="2" stroke-miterlimit="10"/>
<path d="M64.3677 -24.8806C64.3677 -24.8806 52.9484 1.68003 57.0308 28.0911C61.1418 54.5021 42.671 57.6128 35.3341 54.5021C20.0894 48.1013 17.1489 13.8237 -7.4597 11.6103C-25.959 9.93534 -50.853 23.1857 -64.0423 -6.8744" fill="#002D7A"/>
<path d="M64.3677 -24.8806C64.3677 -24.8806 52.9484 1.68003 57.0308 28.0911C61.1418 54.5021 42.671 57.6128 35.3341 54.5021C20.0894 48.1013 17.1489 13.8237 -7.4597 11.6103C-25.959 9.93534 -50.853 23.1857 -64.0423 -6.8744" stroke="white" stroke-opacity="0.2" stroke-width="2" stroke-miterlimit="10"/>
<path d="M52.0634 -13.0358C52.0634 -13.0358 56.1743 14.0931 37.9891 9.24755C17.1489 3.68419 17.4629 -9.35682 -8.91566 2.96633C-18.308 7.36319 -56.1059 8.64934 -48.4835 -15.5184" fill="#002D7A"/>
<path d="M52.0634 -13.0358C52.0634 -13.0358 56.1743 14.0931 37.9891 9.24755C17.1489 3.68419 17.4629 -9.35682 -8.91566 2.96633C-18.308 7.36319 -56.1059 8.64934 -48.4835 -15.5184" stroke="#FBF6F6" stroke-opacity="0.2" stroke-width="2" stroke-miterlimit="10"/>
<path d="M38.8741 45.1403C43.2415 45.1403 46.782 39.6766 46.782 32.9368C46.782 26.197 43.2415 20.7333 38.8741 20.7333C34.5067 20.7333 30.9663 26.197 30.9663 32.9368C30.9663 39.6766 34.5067 45.1403 38.8741 45.1403Z" fill="#002D7A" stroke="white" stroke-opacity="0.2" stroke-width="2" stroke-miterlimit="10"/>
</g>
<path d="M59.0419 40.4367C52.5363 41.5986 52.089 39.6917 52.089 39.6917C58.9577 30.8682 61.8292 19.668 59.3515 16.9268C52.5912 9.44931 40.8892 12.9857 40.6938 13.0774L40.6311 13.0872C39.3457 12.8562 37.9074 12.7187 36.2906 12.6958C33.3471 12.6541 31.1141 13.3639 29.4197 14.4763C29.4197 14.4763 8.54437 7.03118 9.5154 23.8397C9.7219 27.4155 15.4356 50.8963 22.2506 43.804C24.7415 41.2105 27.1484 39.0178 27.1484 39.0178C28.3436 39.7052 29.7747 40.0559 31.2749 39.93L31.3915 39.8444C31.3552 40.1663 31.3718 40.4812 31.4381 40.8541C31.0673 41.2127 30.7979 41.5089 30.5704 41.7589C29.7208 42.6927 29.4573 42.9824 26.6888 43.4758C23.1374 44.1095 25.2236 45.2374 26.5858 45.5324C28.2371 45.8898 32.0574 46.3962 34.6386 43.2679L34.5358 43.6249C35.2236 44.1019 35.7066 46.7274 35.6256 49.1077C35.5447 51.4877 35.4906 53.1218 36.0325 54.3982C36.0864 54.5251 36.1403 54.6677 36.1981 54.8208C36.7224 56.2086 37.5734 58.4614 41.7287 57.6907C45.5838 56.9754 47.5816 55.122 47.8596 52.0303C47.954 50.9786 48.1054 50.5045 48.2407 50.0808C48.3882 49.619 48.5166 49.217 48.5312 48.1922L48.8893 47.262C48.9543 46.7929 49.0005 46.3738 49.0414 46.0024C49.2603 44.0148 49.3289 43.3917 51.3299 43.7684L51.9074 43.8123C53.6552 43.8811 55.9433 43.5688 57.2862 43.0285C60.1777 41.8669 61.8927 39.9271 59.0415 40.4367H59.0419Z" fill="#2C7FC1"/>
<path d="M59.0419 40.4367C52.5363 41.5986 52.089 39.6917 52.089 39.6917C58.9577 30.8682 61.8292 19.668 59.3515 16.9268C52.5912 9.44931 40.8892 12.9857 40.6938 13.0774L40.6311 13.0872C39.3457 12.8562 37.9074 12.7187 36.2906 12.6958C33.3471 12.6541 31.1141 13.3639 29.4197 14.4763C29.4197 14.4763 8.54437 7.03118 9.5154 23.8397C9.7219 27.4155 15.4356 50.8963 22.2506 43.804C24.7415 41.2105 27.1484 39.0178 27.1484 39.0178C28.3436 39.7052 29.7747 40.0559 31.2749 39.93L31.3915 39.8444C31.3552 40.1663 31.3718 40.4812 31.4381 40.8541C31.0673 41.2127 30.7979 41.5089 30.5704 41.7589C29.7208 42.6927 29.4573 42.9824 26.6888 43.4758C23.1374 44.1095 25.2236 45.2374 26.5858 45.5324C28.2371 45.8898 32.0574 46.3962 34.6386 43.2679L34.5358 43.6249C35.2236 44.1019 35.7066 46.7274 35.6256 49.1077C35.5447 51.4877 35.4906 53.1218 36.0325 54.3982C36.0864 54.5251 36.1403 54.6677 36.1981 54.8208C36.7224 56.2086 37.5734 58.4614 41.7287 57.6907C45.5838 56.9754 47.5816 55.122 47.8596 52.0303C47.954 50.9786 48.1054 50.5045 48.2407 50.0808C48.3882 49.619 48.5166 49.217 48.5312 48.1922L48.8893 47.262C48.9543 46.7929 49.0005 46.3738 49.0414 46.0024C49.2603 44.0148 49.3289 43.3917 51.3299 43.7684L51.9074 43.8123C53.6552 43.8811 55.9433 43.5688 57.2862 43.0285C60.1777 41.8669 61.8927 39.9271 59.0415 40.4367H59.0419Z" stroke="black"/>
<path d="M30.6416 25.4388C30.0553 25.3681 29.5244 25.4335 29.2558 25.6096C29.1049 25.7086 29.0581 25.8234 29.0454 25.9024C29.0117 26.1116 29.181 26.343 29.2851 26.4623C29.5796 26.8002 30.0096 27.0324 30.4353 27.0835C30.497 27.0911 30.5585 27.0945 30.6195 27.0945C31.3293 27.0945 31.9749 26.6159 32.0318 26.2627C32.1028 25.8204 31.3611 25.5253 30.6416 25.4388ZM50.0631 25.4528C50.0071 25.106 49.2944 25.0072 48.618 25.0886C47.9425 25.1701 47.2876 25.434 47.3423 25.7815C47.386 26.0518 47.9498 26.5131 48.6169 26.5131C48.6734 26.5131 48.7303 26.5099 48.7876 26.5029C49.2329 26.4495 49.5598 26.2046 49.7151 26.0635C49.9513 25.8484 50.0883 25.6086 50.0631 25.4528Z" fill="white" fill-opacity="0.72"/>
<path d="M61.2067 40.3047C60.9586 39.6554 60.1602 39.4465 58.8337 39.6836C54.8951 40.3873 53.4846 39.8998 53.0215 39.6046C56.0829 35.5671 58.6014 30.6866 59.96 26.133C60.6036 23.9761 60.9591 21.9728 60.9881 20.3401C61.0203 18.548 60.6677 17.2311 59.9406 16.4266C57.0089 13.1836 52.7061 11.444 47.4976 11.3963C43.9169 11.3614 40.8916 12.1547 40.3051 12.3778C39.0701 12.1119 37.7236 11.9487 36.2578 11.9278C33.5698 11.8901 31.2462 12.4473 29.3225 13.583C28.4869 13.3137 26.3274 12.6719 23.6865 12.3036C19.1207 11.6673 15.4925 12.1494 12.9034 13.7373C9.81399 15.6322 8.38774 19.0194 8.66402 23.8045C8.75699 25.4144 9.81661 30.3669 11.4887 35.1098C13.6898 41.3523 16.0825 44.8863 18.5999 45.6133C18.8945 45.6983 19.2342 45.7578 19.609 45.7578C20.5273 45.7578 21.6532 45.3995 22.8246 44.1803C24.2534 42.6964 25.7313 41.2486 27.2567 39.8387C28.2463 40.2985 29.3335 40.5553 30.4454 40.581C30.4476 40.6062 30.4504 40.6314 30.4531 40.6564C30.2616 40.854 30.0742 41.0544 29.8909 41.2577C29.1204 42.1044 28.9601 42.2807 26.4801 42.7227C25.7746 42.8488 23.9011 43.183 23.8735 44.32C23.8437 45.5623 26.0883 46.0841 26.3441 46.1394C27.2352 46.3325 28.0938 46.4278 28.9126 46.4278C30.9039 46.4278 32.6563 45.8612 34.0567 44.7649C34.0136 49.1936 34.2269 53.5576 34.8412 54.8872C35.3443 55.9757 36.5732 58.6358 40.4552 58.6357C41.0248 58.6357 41.6517 58.5783 42.3415 58.4503C46.3929 57.6984 48.1523 56.1482 48.8329 52.7306C49.1971 50.904 49.8221 46.5425 50.1161 44.203C50.7364 44.3706 51.5351 44.4473 52.3985 44.4471C54.1992 44.4471 56.2771 44.1159 57.5802 43.5923C59.0441 43.0037 61.6857 41.5595 61.2067 40.3047ZM51.5585 24.4957C51.5451 25.1864 51.4353 25.8134 51.319 26.4679C51.1936 27.1718 51.0641 27.8995 51.0315 28.783C50.9994 29.6427 51.1234 30.5366 51.2433 31.4011C51.4856 33.1471 51.7344 34.9447 50.7716 36.7183C50.6117 36.473 50.4693 36.2195 50.3451 35.9591C50.2254 35.708 49.9656 35.3047 49.6057 34.7464C48.2059 32.5731 44.928 27.4838 46.606 25.4072C47.1058 24.789 48.3744 24.1535 51.5585 24.4957ZM47.6989 12.7948C52.3657 12.884 56.0573 14.3954 58.6709 17.2868C60.6756 19.5045 58.4681 29.5958 52.0778 38.3015C52.0135 38.2308 51.9489 38.1603 51.884 38.09L51.8031 38.0025C53.4544 35.6416 53.1315 33.3056 52.8441 31.2346C52.726 30.3847 52.6144 29.5819 52.6428 28.8278C52.6721 28.0287 52.7942 27.3431 52.9123 26.6803C53.0574 25.8636 53.205 25.0184 53.1643 24.0221C53.1947 23.9175 53.207 23.7941 53.191 23.6475C53.0871 22.6921 51.8271 19.8327 49.259 17.2447C47.8542 15.8291 45.8056 14.245 43.0084 13.1766C44.2116 12.9607 45.8568 12.7594 47.6989 12.7948ZM21.5849 43.288C20.2943 44.6314 19.4031 44.3738 19.11 44.2894C17.2003 43.7379 14.9844 40.2436 13.0307 34.7024C11.3402 29.9078 10.3523 25.0866 10.274 23.7346C10.0273 19.4589 11.2245 16.4791 13.8326 14.8777C18.0773 12.2719 25.0558 13.8316 27.86 14.6226C27.8197 14.6571 27.7777 14.6893 27.7379 14.7243C23.1363 18.7474 23.2455 25.621 23.2568 26.0412C23.2564 26.2033 23.2721 26.4328 23.2936 26.7485C23.3728 27.9046 23.5202 30.0563 23.1265 32.493C22.7607 34.7574 23.567 36.9736 25.3382 38.5737C25.52 38.7375 25.7111 38.8935 25.9107 39.041C25.1223 39.772 23.4089 41.3885 21.5849 43.288ZM26.5022 37.608C25.0746 36.3184 24.4263 34.5246 24.7231 32.6862C25.1387 30.1122 24.9854 27.8704 24.9029 26.6659C24.8913 26.4974 24.881 26.3497 24.8751 26.2332C25.5474 25.7172 28.6626 24.2722 30.8842 24.7129C31.8979 24.9138 32.5156 25.5115 32.7725 26.5394C34.1016 31.8614 32.9483 34.0796 32.0217 35.8622C31.8307 36.2294 31.6503 36.5765 31.4963 36.9356L31.3768 37.2132C31.0745 37.915 30.7932 38.5676 30.6189 39.1872C29.1012 39.1834 27.6248 38.6221 26.5022 37.6078V37.608ZM26.7352 44.7853C26.292 44.6895 25.8934 44.5231 25.6596 44.385C25.8549 44.3055 26.2025 44.1971 26.8054 44.0896C29.7229 43.5697 30.1735 43.2027 31.1574 42.1212C31.383 41.8731 31.6387 41.5921 31.9928 41.2497L31.9933 41.2493C32.5207 40.738 32.762 40.8247 33.1995 40.9819C33.5541 41.1088 33.8995 41.4936 34.0395 41.9171C34.1057 42.117 34.1801 42.4966 33.9366 42.792C31.8813 45.2834 28.8861 45.2514 26.7352 44.7853ZM42.0037 57.0856C38.4346 57.7477 37.1709 56.1711 36.3381 54.3689C35.8006 53.2053 35.5364 47.9585 35.7238 42.1642C35.7262 42.0871 35.7135 42.0127 35.689 41.9426C35.6671 41.8043 35.6338 41.6674 35.5893 41.5332C35.3106 40.6901 34.6314 39.9849 33.8165 39.6925C33.4928 39.5764 32.8987 39.3633 32.1847 39.5215C32.3369 38.9783 32.601 38.365 32.8873 37.7008L33.0074 37.4215C33.1426 37.1066 33.3123 36.7803 33.4917 36.4348C34.4614 34.5699 35.7895 32.0154 34.3481 26.2446C33.8082 24.0831 32.0053 23.0275 29.2722 23.2727C27.6338 23.4195 26.1347 23.9918 25.387 24.32C25.2262 24.3904 25.0792 24.4586 24.9419 24.5249C25.1505 22.3471 25.9389 18.277 28.8881 15.7019C30.7451 14.0808 33.2181 13.2802 36.2311 13.3233C42.168 13.4074 45.9751 16.045 48.1237 18.2431C49.9752 20.137 50.9777 22.045 51.3778 23.0741C48.3689 22.8091 46.3225 23.3233 45.2852 24.6072C43.0283 27.4001 46.5198 32.8208 48.1978 35.426C48.5056 35.9035 48.7712 36.3161 48.8547 36.4915C49.4012 37.6379 50.1086 38.4034 50.6251 38.9621C50.7835 39.1333 50.937 39.2993 51.0538 39.4444C50.1425 39.6718 48.5056 40.1973 48.6548 42.8242C48.5345 44.1422 47.679 50.3132 47.2443 52.4935C46.6705 55.3739 45.4462 56.4467 42.0037 57.0858V57.0856ZM56.9015 42.3265C55.9696 42.7009 54.4101 42.9817 52.9287 43.0421C51.2925 43.1084 50.4595 42.8834 50.2635 42.745C50.1716 41.1081 50.8753 40.9371 51.6202 40.756C51.7372 40.7276 51.8514 40.6998 51.9616 40.6664C52.0301 40.7147 52.1051 40.7626 52.1874 40.8096C53.5025 41.561 55.8482 41.6421 59.1598 41.0503L59.1961 41.044C58.7495 41.4056 57.9851 41.8907 56.9015 42.3265Z" fill="white" fill-opacity="0.71"/>
</g>
<defs>
<clipPath id="clip0_5_405">
<rect width="70" height="70" fill="white"/>
</clipPath>
</defs>
</svg>
