<svg width="70" height="70" viewBox="0 0 70 70" fill="none" xmlns="http://www.w3.org/2000/svg">
<g clip-path="url(#clip0_4_280)">
<mask id="mask0_4_280" style="mask-type:luminance" maskUnits="userSpaceOnUse" x="0" y="0" width="70" height="70">
<path d="M60 0H10C4.47715 0 0 4.47715 0 10V60C0 65.5229 4.47715 70 10 70H60C65.5229 70 70 65.5229 70 60V10C70 4.47715 65.5229 0 60 0Z" fill="white"/>
</mask>
<g mask="url(#mask0_4_280)">
<path d="M60 0H10C4.47715 0 0 4.47715 0 10V60C0 65.5229 4.47715 70 10 70H60C65.5229 70 70 65.5229 70 60V10C70 4.47715 65.5229 0 60 0Z" fill="#225568"/>
<path d="M94.8573 -15.5184C94.8573 -15.5184 68.4787 -2.95596 73.1606 28.1212C78.4135 62.967 47.9525 77.9223 27.1408 69.308C6.32911 60.6639 7.78507 28.6895 -31.7828 27.7024C-72.2071 26.7154 -80.7145 -13.5443 -80.7145 -13.5443" fill="#225568"/>
<path d="M94.8573 -15.5184C94.8573 -15.5184 68.4787 -2.95596 73.1606 28.1212C78.4135 62.967 47.9525 77.9223 27.1408 69.308C6.32911 60.6639 7.78507 28.6895 -31.7828 27.7024C-72.2071 26.7154 -80.7145 -13.5443 -80.7145 -13.5443" stroke="white" stroke-opacity="0.2" stroke-width="2" stroke-miterlimit="10"/>
<path d="M64.3677 -24.8806C64.3677 -24.8806 52.9484 1.68003 57.0308 28.0911C61.1418 54.5021 42.671 57.6128 35.3341 54.5021C20.0894 48.1013 17.1489 13.8237 -7.4597 11.6103C-25.959 9.93534 -50.853 23.1857 -64.0423 -6.8744" fill="#225568"/>
<path d="M64.3677 -24.8806C64.3677 -24.8806 52.9484 1.68003 57.0308 28.0911C61.1418 54.5021 42.671 57.6128 35.3341 54.5021C20.0894 48.1013 17.1489 13.8237 -7.4597 11.6103C-25.959 9.93534 -50.853 23.1857 -64.0423 -6.8744" stroke="white" stroke-opacity="0.2" stroke-width="2" stroke-miterlimit="10"/>
<path d="M52.0634 -13.0358C52.0634 -13.0358 56.1743 14.0931 37.9891 9.24755C17.1489 3.68419 17.4629 -9.35682 -8.91566 2.96633C-18.308 7.36319 -56.1059 8.64934 -48.4835 -15.5184" fill="#225568"/>
<path d="M52.0634 -13.0358C52.0634 -13.0358 56.1743 14.0931 37.9891 9.24755C17.1489 3.68419 17.4629 -9.35682 -8.91566 2.96633C-18.308 7.36319 -56.1059 8.64934 -48.4835 -15.5184" stroke="#FBF6F6" stroke-opacity="0.2" stroke-width="2" stroke-miterlimit="10"/>
<path d="M38.8741 45.1403C43.2415 45.1403 46.782 39.6766 46.782 32.9368C46.782 26.197 43.2415 20.7333 38.8741 20.7333C34.5067 20.7333 30.9663 26.197 30.9663 32.9368C30.9663 39.6766 34.5067 45.1403 38.8741 45.1403Z" fill="#225568" stroke="white" stroke-opacity="0.2" stroke-width="2" stroke-miterlimit="10"/>
</g>
<g clip-path="url(#clip1_4_280)">
<path d="M34.2902 11.0132C21.8821 11.0132 22.6569 16.1952 22.6569 16.1952L22.6707 21.5639H34.5115V23.1757H17.9677C17.9677 23.1757 10.0277 22.3085 10.0277 34.3654C10.0277 46.4227 16.9579 45.9951 16.9579 45.9951H21.0938V40.4C21.0938 40.4 20.8708 33.726 27.9134 33.726H39.6573C39.6573 33.726 46.2554 33.8287 46.2554 27.5849V17.2611C46.2554 17.2611 47.2575 11.0132 34.2902 11.0132ZM27.7612 14.6236C28.041 14.6233 28.3181 14.6762 28.5767 14.7792C28.8352 14.8822 29.0702 15.0333 29.268 15.2239C29.4659 15.4144 29.6228 15.6407 29.7297 15.8897C29.8367 16.1387 29.8916 16.4055 29.8914 16.675C29.8916 16.9445 29.8367 17.2113 29.7297 17.4603C29.6228 17.7093 29.4659 17.9356 29.268 18.1261C29.0702 18.3166 28.8352 18.4677 28.5767 18.5707C28.3181 18.6738 28.041 18.7266 27.7612 18.7264C27.4814 18.7266 27.2043 18.6738 26.9457 18.5707C26.6872 18.4677 26.4522 18.3166 26.2544 18.1261C26.0565 17.9356 25.8996 17.7093 25.7927 17.4603C25.6857 17.2113 25.6308 16.9445 25.631 16.675C25.6308 16.4055 25.6857 16.1387 25.7927 15.8897C25.8996 15.6407 26.0565 15.4144 26.2544 15.2239C26.4522 15.0333 26.6872 14.8822 26.9457 14.7792C27.2043 14.6762 27.4814 14.6233 27.7612 14.6236Z" fill="url(#paint0_linear_4_280)"/>
<path d="M34.6426 57.8389C47.0506 57.8389 46.2759 52.6569 46.2759 52.6569L46.2621 47.2884H34.4211V45.6766H50.9649C50.9649 45.6766 58.9048 46.5438 58.9048 34.4866C58.9048 22.4295 51.9747 22.8571 51.9747 22.8571H47.8388V28.4519C47.8388 28.4519 48.0617 35.1259 41.0192 35.1259H29.2753C29.2753 35.1259 22.6772 35.0233 22.6772 41.2673V51.5912C22.6772 51.5912 21.6754 57.8389 34.6426 57.8389ZM41.1716 54.229C40.8918 54.2292 40.6147 54.1763 40.3561 54.0733C40.0976 53.9703 39.8626 53.8192 39.6648 53.6287C39.4669 53.4381 39.31 53.2119 39.2031 52.9629C39.0961 52.7139 39.0412 52.447 39.0414 52.1775C39.0412 51.9081 39.0961 51.6412 39.203 51.3922C39.31 51.1431 39.4669 50.9169 39.6647 50.7263C39.8626 50.5358 40.0975 50.3846 40.3561 50.2816C40.6146 50.1786 40.8918 50.1257 41.1716 50.1259C41.4514 50.1257 41.7285 50.1786 41.9871 50.2816C42.2456 50.3846 42.4805 50.5357 42.6784 50.7262C42.8762 50.9168 43.0331 51.143 43.1401 51.392C43.2471 51.641 43.302 51.9079 43.3017 52.1774C43.302 52.4468 43.2471 52.7137 43.1401 52.9627C43.0331 53.2117 42.8762 53.4379 42.6784 53.6285C42.4805 53.819 42.2456 53.9701 41.9871 54.0731C41.7285 54.1761 41.4514 54.2292 41.1716 54.229Z" fill="url(#paint1_linear_4_280)"/>
</g>
</g>
<defs>
<linearGradient id="paint0_linear_4_280" x1="479.735" y1="432.182" x2="2811.63" y2="2829.42" gradientUnits="userSpaceOnUse">
<stop stop-color="#387EB8"/>
<stop offset="1" stop-color="#366994"/>
</linearGradient>
<linearGradient id="paint1_linear_4_280" x1="715.966" y1="742.785" x2="3224.51" y2="3205.21" gradientUnits="userSpaceOnUse">
<stop stop-color="#FFE052"/>
<stop offset="1" stop-color="#FFC331"/>
</linearGradient>
<clipPath id="clip0_4_280">
<rect width="70" height="70" fill="white"/>
</clipPath>
<clipPath id="clip1_4_280">
<rect width="49" height="47" fill="white" transform="translate(10 11)"/>
</clipPath>
</defs>
</svg>
