<svg width="70" height="70" viewBox="0 0 70 70" fill="none" xmlns="http://www.w3.org/2000/svg">
<g clip-path="url(#clip0_4_221)">
<mask id="mask0_4_221" style="mask-type:luminance" maskUnits="userSpaceOnUse" x="0" y="0" width="70" height="70">
<path d="M60 0H10C4.47715 0 0 4.47715 0 10V60C0 65.5229 4.47715 70 10 70H60C65.5229 70 70 65.5229 70 60V10C70 4.47715 65.5229 0 60 0Z" fill="white"/>
</mask>
<g mask="url(#mask0_4_221)">
<path d="M60 0H10C4.47715 0 0 4.47715 0 10V60C0 65.5229 4.47715 70 10 70H60C65.5229 70 70 65.5229 70 60V10C70 4.47715 65.5229 0 60 0Z" fill="#701F04"/>
<path d="M94.8573 -15.5184C94.8573 -15.5184 68.4787 -2.95596 73.1606 28.1212C78.4135 62.967 47.9525 77.9223 27.1408 69.308C6.32912 60.6639 7.78508 28.6895 -31.7828 27.7024C-72.2071 26.7154 -80.7145 -13.5443 -80.7145 -13.5443" fill="#701F04"/>
<path d="M94.8573 -15.5184C94.8573 -15.5184 68.4787 -2.95596 73.1606 28.1212C78.4135 62.967 47.9525 77.9223 27.1408 69.308C6.32912 60.6639 7.78508 28.6895 -31.7828 27.7024C-72.2071 26.7154 -80.7145 -13.5443 -80.7145 -13.5443" stroke="white" stroke-opacity="0.2" stroke-width="2" stroke-miterlimit="10"/>
<path d="M64.3677 -24.8806C64.3677 -24.8806 52.9484 1.68003 57.0308 28.0911C61.1418 54.5021 42.671 57.6128 35.3341 54.5021C20.0894 48.1013 17.1489 13.8237 -7.4597 11.6103C-25.959 9.93534 -50.853 23.1857 -64.0423 -6.8744" fill="#701F04"/>
<path d="M64.3677 -24.8806C64.3677 -24.8806 52.9484 1.68003 57.0308 28.0911C61.1418 54.5021 42.671 57.6128 35.3341 54.5021C20.0894 48.1013 17.1489 13.8237 -7.4597 11.6103C-25.959 9.93534 -50.853 23.1857 -64.0423 -6.8744" stroke="white" stroke-opacity="0.2" stroke-width="2" stroke-miterlimit="10"/>
<path d="M52.0634 -13.0358C52.0634 -13.0358 56.1743 14.0931 37.9891 9.24755C17.1489 3.68419 17.4629 -9.35682 -8.91566 2.96633C-18.308 7.36319 -56.1059 8.64934 -48.4835 -15.5184" fill="#701F04"/>
<path d="M52.0634 -13.0358C52.0634 -13.0358 56.1743 14.0931 37.9891 9.24755C17.1489 3.68419 17.4629 -9.35682 -8.91566 2.96633C-18.308 7.36319 -56.1059 8.64934 -48.4835 -15.5184" stroke="#FBF6F6" stroke-opacity="0.2" stroke-width="2" stroke-miterlimit="10"/>
<path d="M38.8741 45.1403C43.2415 45.1403 46.782 39.6766 46.782 32.9368C46.782 26.197 43.2415 20.7333 38.8741 20.7333C34.5067 20.7333 30.9663 26.197 30.9663 32.9368C30.9663 39.6766 34.5067 45.1403 38.8741 45.1403Z" fill="#701F04" stroke="white" stroke-opacity="0.2" stroke-width="2" stroke-miterlimit="10"/>
</g>
<path d="M40.381 40.3702L39.4466 42.139C39.3082 42.4007 39.109 42.6181 38.8691 42.7692C38.6291 42.9204 38.3568 43 38.0797 43H30.9203C30.6432 43 30.3709 42.9204 30.1309 42.7692C29.891 42.6181 29.6918 42.4007 29.5534 42.139L28.6188 40.3702H40.381ZM42.9973 35.4189L41.3496 38.5374H27.6504L26.0027 35.4189H42.9973ZM41.4101 30.5771L43 33.5861H26L27.5899 30.5771H41.4101ZM38.0795 26C38.3567 26 38.629 26.0796 38.869 26.2307C39.109 26.3819 39.3082 26.5993 39.4466 26.861L40.4416 28.7443H28.5585L29.5536 26.861C29.692 26.5993 29.8912 26.3819 30.1311 26.2308C30.3711 26.0796 30.6433 26 30.9205 26H38.0795Z" fill="#00435B"/>
<path d="M19.6628 25.195C18.8326 21.0533 18.6543 17.8766 19.191 15.57C19.5102 14.1981 20.0935 13.0789 20.9808 12.2713C21.9175 11.4188 23.1017 11.0005 24.4325 11.0005C26.6275 11.0005 28.9352 12.0305 31.4012 13.987C32.4072 14.7851 33.4511 15.7471 34.5353 16.8734C34.6217 16.7593 34.7191 16.6514 34.8279 16.5516C37.8931 13.7414 40.4738 11.995 42.6811 11.3219C43.9936 10.9213 45.2257 10.8832 46.3477 11.2718C47.5323 11.6818 48.476 12.5298 49.142 13.7172C50.2409 15.677 50.5305 18.2521 50.1209 21.4319C49.954 22.7279 49.6685 24.1396 49.2651 25.6693C49.4173 25.6882 49.5699 25.723 49.7209 25.7745C53.6099 27.1007 56.3639 28.5265 58.0311 30.1563C59.0232 31.1258 59.6709 32.2052 59.9052 33.4002C60.1522 34.6614 59.9111 35.9263 59.2461 37.1129C58.1492 39.07 56.1324 40.6133 53.2592 41.8358C52.1058 42.3267 50.8003 42.7713 49.3418 43.1712C49.4083 43.3257 49.4601 43.4899 49.4946 43.6621C50.3247 47.8038 50.5028 50.9806 49.9663 53.2871C49.6472 54.6591 49.0637 55.7782 48.1764 56.5858C47.2398 57.4383 46.0555 57.8567 44.7249 57.8567C42.5297 57.8567 40.2222 56.8267 37.7562 54.8702C36.7394 54.0634 35.684 53.0896 34.5873 51.9476C34.4719 52.1333 34.3322 52.3018 34.1721 52.4482C31.1069 55.2588 28.5262 57.0048 26.3189 57.6781C25.0064 58.0787 23.7743 58.1168 22.6523 57.7282C21.4677 57.3182 20.524 56.4702 19.858 55.2828C18.7591 53.323 18.4695 50.7479 18.8791 47.5681C19.0522 46.2253 19.3524 44.7581 19.7791 43.1642C19.609 43.1465 19.4413 43.1096 19.2791 43.0542C15.3901 41.728 12.6361 40.3021 10.9689 38.6724C9.97678 37.7028 9.32912 36.6234 9.09484 35.4284C8.84781 34.1672 9.08886 32.9021 9.75385 31.7155C10.8508 29.7586 12.8676 28.2151 15.7408 26.9929C16.9287 26.4872 18.2776 26.0309 19.7889 25.6218C19.7344 25.4838 19.6922 25.3409 19.6628 25.195Z" fill="#002B3B"/>
<path d="M47.0763 43.4891C47.2588 43.4557 47.4468 43.4961 47.6013 43.6019C47.7557 43.7077 47.8648 43.8708 47.9059 44.0574L47.9104 44.0801L47.951 44.2975C49.2654 51.4325 48.3395 55 45.1732 55C42.0755 55 38.132 51.9558 33.3427 45.8674C33.2576 45.7592 33.2037 45.6285 33.1869 45.4902C33.1702 45.3519 33.1913 45.2115 33.248 45.085C33.3047 44.9585 33.3945 44.851 33.5075 44.7746C33.6204 44.6982 33.7518 44.656 33.8867 44.6529H33.9091L34.1614 44.6547C36.1767 44.666 38.1359 44.5935 40.039 44.437C42.2853 44.2523 44.631 43.9363 47.0763 43.4891ZM25.3318 38.0956L25.344 38.1169L25.4705 38.3448C26.4846 40.1651 27.5411 41.8929 28.6401 43.5281C29.9346 45.4536 31.3901 47.403 33.0066 49.3762C33.1266 49.5226 33.1872 49.7112 33.176 49.9027C33.1647 50.0941 33.0823 50.2737 32.946 50.4041L32.9278 50.4209L32.7652 50.5655C27.416 55.2978 23.9393 56.2425 22.335 53.3995C20.7646 50.617 21.3339 45.5574 24.043 38.2206C24.091 38.0906 24.1732 37.9771 24.2805 37.8929C24.3877 37.8087 24.5156 37.7572 24.6498 37.7442C24.7839 37.7312 24.9189 37.7572 25.0394 37.8193C25.16 37.8814 25.2612 37.9771 25.3318 38.0956ZM49.7906 27.5673L49.8126 27.5748L50.014 27.6464C56.6165 30.0179 59.125 32.624 57.5395 35.4647C55.9887 38.243 51.4805 40.2659 44.0147 41.5332C43.8794 41.5562 43.7405 41.5389 43.6144 41.4834C43.4883 41.4278 43.3801 41.3363 43.3025 41.2195C43.2249 41.1028 43.1812 40.9656 43.1764 40.8241C43.1717 40.6826 43.2061 40.5426 43.2756 40.4206C44.3449 38.5426 45.308 36.6739 46.1648 34.8146C47.1365 32.706 48.0484 30.4427 48.9005 28.0248C48.9624 27.849 49.086 27.7038 49.2469 27.6178C49.4077 27.5318 49.594 27.5114 49.7687 27.5606L49.7906 27.5673ZM26.468 26.3733C26.5497 26.4229 26.6212 26.4886 26.6783 26.5666C26.7354 26.6447 26.7771 26.7336 26.8009 26.8283C26.8248 26.923 26.8303 27.0217 26.8172 27.1186C26.8041 27.2155 26.7726 27.3088 26.7246 27.3931C25.655 29.271 24.6919 31.1397 23.8352 32.9991C22.8635 35.1076 21.9516 37.3709 21.0995 39.7889C21.0362 39.9685 20.9086 40.1161 20.7429 40.2012C20.5773 40.2864 20.3863 40.3026 20.2094 40.2465L20.1874 40.239L19.986 40.1672C13.3835 37.7958 10.875 35.1897 12.4606 32.3491C14.0113 29.5707 18.5195 27.5478 25.9853 26.2803C26.1518 26.252 26.3226 26.2849 26.468 26.3733ZM47.665 14.6931C49.2354 17.4758 48.6661 22.5355 45.957 29.8722C45.909 30.0022 45.8268 30.1157 45.7195 30.1999C45.6123 30.2841 45.4844 30.3356 45.3502 30.3487C45.2161 30.3617 45.0811 30.3356 44.9606 30.2735C44.84 30.2114 44.7388 30.1157 44.6682 29.9972L44.656 29.976L44.5295 29.748C43.5154 27.9277 42.4589 26.1999 41.3599 24.5647C40.0654 22.6392 38.6099 20.6899 36.9934 18.7166C36.8734 18.5702 36.8128 18.3816 36.824 18.1902C36.8353 17.9987 36.9177 17.8191 37.054 17.6888L37.0722 17.672L37.2348 17.5274C42.584 12.7952 46.0607 11.8504 47.665 14.6931ZM25.0975 13C28.1954 13 32.1389 16.0441 36.928 22.1324C37.0131 22.2406 37.0671 22.3713 37.0838 22.5096C37.1006 22.6479 37.0794 22.7883 37.0227 22.9148C36.9661 23.0413 36.8762 23.1488 36.7633 23.2252C36.6504 23.3016 36.519 23.3438 36.384 23.3469H36.3617L36.1093 23.3453C34.0941 23.334 32.135 23.4065 30.2319 23.563C27.9854 23.7477 25.6396 24.0637 23.1944 24.5109C23.0119 24.5443 22.824 24.5039 22.6696 24.398C22.5152 24.2922 22.4061 24.1292 22.365 23.9426L22.3603 23.9197L22.3197 23.7025C21.0052 16.5675 21.9311 13 25.0975 13Z" fill="#FF4154"/>
<path d="M31.736 26H37.6321C38.0557 26 38.4719 26.1256 38.8385 26.3641C39.2051 26.6026 39.5091 26.9455 39.7199 27.3583L42.6805 33.1538C42.8899 33.5635 43 34.0276 43 34.5C43 34.9724 42.8899 35.4365 42.6805 35.8462L39.7199 41.6417C39.5091 42.0545 39.2051 42.3974 38.8385 42.6359C38.4719 42.8744 38.0557 43 37.6321 43H31.736C30.8736 43 30.0772 42.4818 29.6479 41.6417L26.6877 35.8462C26.4784 35.4365 26.3683 34.9724 26.3683 34.5C26.3683 34.0276 26.4784 33.5635 26.6877 33.1538L29.6481 27.3583C29.859 26.9455 30.1631 26.6025 30.5297 26.364C30.8963 26.1255 31.3123 25.9999 31.736 26ZM36.7336 27.7492C37.5963 27.7492 38.3932 28.268 38.8222 29.1088L40.8866 33.1551C41.0955 33.5645 41.2054 34.0281 41.2054 34.5C41.2054 34.9719 41.0955 35.4355 40.8866 35.8449L38.8222 39.8912C38.6114 40.3043 38.3072 40.6476 37.9405 40.8863C37.5738 41.125 37.1574 41.2507 36.7336 41.2506H32.6349C31.7722 41.2506 30.9752 40.732 30.5463 39.8912L28.4818 35.8449C28.2729 35.4355 28.163 34.9719 28.163 34.5C28.163 34.0281 28.2729 33.5645 28.4818 33.1551L30.5463 29.1088C30.7571 28.6957 31.0612 28.3524 31.4279 28.1137C31.7946 27.875 32.2109 27.7494 32.6347 27.7494L36.7336 27.7492ZM35.765 29.6624H33.6034C33.18 29.6623 32.764 29.7878 32.3975 30.0261C32.031 30.2644 31.7269 30.6072 31.516 31.0197L30.4251 33.1526C30.2154 33.5625 30.105 34.0271 30.105 34.5C30.105 34.9729 30.2154 35.4375 30.4251 35.8474L31.516 37.9805C31.7269 38.3931 32.031 38.7358 32.3975 38.9741C32.764 39.2124 33.18 39.3379 33.6034 39.3378H35.765C36.627 39.3378 37.4232 38.8201 37.8525 37.9805L38.9433 35.8474C39.1531 35.4375 39.2634 34.9729 39.2634 34.5C39.2634 34.0271 39.1531 33.5625 38.9433 33.1526L37.8525 31.0195C37.6416 30.6069 37.3375 30.2642 36.971 30.0259C36.6045 29.7876 36.1885 29.6623 35.765 29.6624ZM34.8325 31.4934C35.6937 31.4934 36.4893 32.0103 36.9188 32.8486L37.0736 33.1507C37.2839 33.5611 37.3946 34.0263 37.3946 34.4998C37.3946 34.9733 37.2839 35.4385 37.0736 35.8489L36.9188 36.151C36.7078 36.563 36.4038 36.9052 36.0375 37.1431C35.6712 37.381 35.2556 37.5062 34.8325 37.5062H34.536C34.1129 37.5062 33.6972 37.381 33.331 37.1431C32.9647 36.9052 32.6607 36.563 32.4496 36.151L32.2948 35.8489C32.0846 35.4385 31.9739 34.9733 31.9739 34.4998C31.9739 34.0263 32.0846 33.5611 32.2948 33.1507L32.4496 32.8486C32.6607 32.4366 32.9647 32.0944 33.331 31.8565C33.6972 31.6186 34.1129 31.4933 34.536 31.4934H34.8325ZM34.6846 33.2973C34.4966 33.2973 34.3118 33.3528 34.1489 33.4583C33.986 33.5639 33.8507 33.7157 33.7566 33.8986C33.6626 34.0813 33.6131 34.2887 33.6131 34.4998C33.6131 34.7109 33.6626 34.9182 33.7566 35.101C33.8506 35.2839 33.9859 35.4358 34.1487 35.5414C34.3116 35.647 34.4963 35.7026 34.6843 35.7026C34.8724 35.7026 35.0571 35.647 35.2199 35.5414C35.3828 35.4358 35.518 35.2839 35.6121 35.101C35.7061 34.9182 35.7555 34.7109 35.7555 34.4998C35.7555 34.2887 35.7061 34.0813 35.6121 33.8986C35.518 33.7158 35.3828 33.564 35.22 33.4585C35.0572 33.353 34.8725 33.2974 34.6846 33.2973ZM26 34.4998H27.927Z" fill="#FFD94C"/>
</g>
<defs>
<clipPath id="clip0_4_221">
<rect width="70" height="70" fill="white"/>
</clipPath>
</defs>
</svg>
