<svg width="70" height="70" viewBox="0 0 70 70" fill="none" xmlns="http://www.w3.org/2000/svg">
<g clip-path="url(#clip0_4_254)">
<mask id="mask0_4_254" style="mask-type:luminance" maskUnits="userSpaceOnUse" x="0" y="0" width="70" height="70">
<path d="M60 0H10C4.47715 0 0 4.47715 0 10V60C0 65.5229 4.47715 70 10 70H60C65.5229 70 70 65.5229 70 60V10C70 4.47715 65.5229 0 60 0Z" fill="white"/>
</mask>
<g mask="url(#mask0_4_254)">
<path d="M60 0H10C4.47715 0 0 4.47715 0 10V60C0 65.5229 4.47715 70 10 70H60C65.5229 70 70 65.5229 70 60V10C70 4.47715 65.5229 0 60 0Z" fill="#682222"/>
<path d="M94.8573 -15.5184C94.8573 -15.5184 68.4787 -2.95596 73.1606 28.1212C78.4135 62.967 47.9525 77.9223 27.1408 69.308C6.32911 60.6639 7.78507 28.6895 -31.7828 27.7024C-72.2071 26.7154 -80.7145 -13.5443 -80.7145 -13.5443" fill="#682222"/>
<path d="M94.8573 -15.5184C94.8573 -15.5184 68.4787 -2.95596 73.1606 28.1212C78.4135 62.967 47.9525 77.9223 27.1408 69.308C6.32911 60.6639 7.78507 28.6895 -31.7828 27.7024C-72.2071 26.7154 -80.7145 -13.5443 -80.7145 -13.5443" stroke="white" stroke-opacity="0.2" stroke-width="2" stroke-miterlimit="10"/>
<path d="M64.3677 -24.8806C64.3677 -24.8806 52.9484 1.68003 57.0308 28.0911C61.1418 54.5021 42.671 57.6128 35.3341 54.5021C20.0894 48.1013 17.1489 13.8237 -7.4597 11.6103C-25.959 9.93534 -50.853 23.1857 -64.0423 -6.8744" fill="#682222"/>
<path d="M64.3677 -24.8806C64.3677 -24.8806 52.9484 1.68003 57.0308 28.0911C61.1418 54.5021 42.671 57.6128 35.3341 54.5021C20.0894 48.1013 17.1489 13.8237 -7.4597 11.6103C-25.959 9.93534 -50.853 23.1857 -64.0423 -6.8744" stroke="white" stroke-opacity="0.2" stroke-width="2" stroke-miterlimit="10"/>
<path d="M52.0634 -13.0358C52.0634 -13.0358 56.1743 14.0931 37.9891 9.24755C17.1489 3.68419 17.4629 -9.35682 -8.91566 2.96633C-18.308 7.36319 -56.1059 8.64934 -48.4835 -15.5184" fill="#682222"/>
<path d="M52.0634 -13.0358C52.0634 -13.0358 56.1743 14.0931 37.9891 9.24755C17.1489 3.68419 17.4629 -9.35682 -8.91566 2.96633C-18.308 7.36319 -56.1059 8.64934 -48.4835 -15.5184" stroke="#FBF6F6" stroke-opacity="0.2" stroke-width="2" stroke-miterlimit="10"/>
<path d="M38.8741 45.1403C43.2415 45.1403 46.782 39.6766 46.782 32.9368C46.782 26.197 43.2415 20.7333 38.8741 20.7333C34.5067 20.7333 30.9663 26.197 30.9663 32.9368C30.9663 39.6766 34.5067 45.1403 38.8741 45.1403Z" fill="#682222" stroke="white" stroke-opacity="0.2" stroke-width="2" stroke-miterlimit="10"/>
</g>
<g clip-path="url(#clip1_4_254)">
<path d="M61.7162 46.0207C58.6216 47.4125 42.5905 53.1 39.1776 54.6353C35.7647 56.1708 33.8688 56.156 31.1725 55.0438C28.4765 53.9317 11.4167 47.9856 8.34354 46.7181C6.80776 46.0848 6 45.55 6 45.045V39.9874C6 39.9874 28.2099 35.8154 31.7955 34.7054C35.3808 33.5954 36.6248 33.5554 39.676 34.5197C42.7276 35.4845 60.9726 38.3249 63.9882 39.2779L63.9868 44.2639C63.9873 44.7639 63.2914 45.3124 61.7162 46.0207Z" fill="#912626"/>
<path d="M61.7151 40.993C58.6207 42.3842 42.5901 48.072 39.1772 49.6071C35.7645 51.1427 33.8685 51.1277 31.1725 50.0156C28.4763 48.9042 11.4171 42.9571 8.34423 41.6904C5.27131 40.4228 5.20698 39.5505 8.22553 38.5306C11.2441 37.5104 28.2097 31.7669 31.7957 30.657C35.381 29.5474 36.6248 29.5069 39.676 30.4717C42.7274 31.436 58.6623 36.909 61.6775 37.8618C64.6938 38.8158 64.8095 39.6013 61.7151 40.993Z" fill="#C6302B"/>
<path d="M61.7162 37.8372C58.6216 39.2292 42.5905 44.9166 39.1776 46.4525C35.7647 47.9874 33.8688 47.9725 31.1725 46.8604C28.4763 45.7488 11.4167 39.8021 8.34354 38.5346C6.80776 37.9013 6 37.3673 6 36.8621V31.8039C6 31.8039 28.2099 27.6321 31.7955 26.5222C35.3808 25.4122 36.6248 25.3719 39.676 26.3365C42.7278 27.301 60.9728 30.1408 63.9882 31.094L63.9868 36.0807C63.9873 36.5804 63.2914 37.1289 61.7162 37.8372Z" fill="#912626"/>
<path d="M61.7151 32.8095C58.6207 34.2012 42.5901 39.8885 39.1772 41.4242C35.7645 42.9593 33.8685 42.9442 31.1725 41.8321C28.4763 40.7208 11.4171 34.7739 8.34423 33.5069C5.27131 32.2398 5.20698 31.3673 8.22553 30.347C11.2441 29.3273 28.2099 23.5835 31.7957 22.4737C35.381 21.3639 36.6248 21.3236 39.676 22.2882C42.7274 23.2526 58.6623 28.7251 61.6775 29.6784C64.6938 30.6322 64.8095 31.4179 61.7151 32.8095Z" fill="#C6302B"/>
<path d="M61.7162 29.3504C58.6216 30.742 42.5905 36.4297 39.1776 37.9656C35.7647 39.5007 33.8688 39.4857 31.1725 38.3735C28.4763 37.262 11.4167 31.3151 8.34354 30.0481C6.80776 29.4143 6 28.8801 6 28.3754V23.3171C6 23.3171 28.2099 19.1455 31.7955 18.0357C35.3808 16.9255 36.6248 16.8856 39.676 17.85C42.7278 18.8146 60.9728 21.6543 63.9882 22.6076L63.9868 27.594C63.9873 28.0934 63.2914 28.6418 61.7162 29.3504Z" fill="#912626"/>
<path d="M61.7151 24.3227C58.6207 25.7143 42.5901 31.402 39.1772 32.9371C35.7645 34.4722 33.8686 34.4572 31.1726 33.3456C28.4766 32.2335 11.4172 26.287 8.34446 25.0199C5.27132 23.7529 5.20721 22.8802 8.22554 21.8601C11.2441 20.8403 28.2099 15.0972 31.7957 13.987C35.381 12.877 36.6248 12.8372 39.676 13.8017C42.7274 14.7663 58.6624 20.2388 61.6775 21.1921C64.6938 22.1451 64.8096 22.931 61.7151 24.3227Z" fill="#C6302B"/>
<path d="M42.0802 19.4025L37.0946 19.8491L35.9785 22.1664L34.1759 19.5806L28.419 19.1341L32.7147 17.7974L31.4258 15.7455L35.4476 17.1028L39.239 16.0317L38.2142 18.1533L42.0802 19.4025ZM35.6809 30.6447L26.3763 27.3147L39.709 25.5488L35.6809 30.6447ZM22.7808 20.6905C26.7165 20.6905 29.907 21.7577 29.907 23.0739C29.907 24.3905 26.7165 25.4575 22.7808 25.4575C18.8451 25.4575 15.6546 24.3903 15.6546 23.0739C15.6546 21.7577 18.8451 20.6905 22.7808 20.6905Z" fill="white"/>
<path d="M47.9724 20.036L55.8633 22.7266L47.9791 25.4147L47.9724 20.036Z" fill="#621B1C"/>
<path d="M39.2424 23.0157L47.9723 20.0359L47.9791 25.4147L47.1231 25.7035L39.2424 23.0157Z" fill="#9A2928"/>
</g>
</g>
<defs>
<clipPath id="clip0_4_254">
<rect width="70" height="70" fill="white"/>
</clipPath>
<clipPath id="clip1_4_254">
<rect width="58" height="43" fill="white" transform="translate(6 13)"/>
</clipPath>
</defs>
</svg>
