<svg width="70" height="70" viewBox="0 0 70 70" fill="none" xmlns="http://www.w3.org/2000/svg">
<g clip-path="url(#clip0_7_61)">
<mask id="mask0_7_61" style="mask-type:luminance" maskUnits="userSpaceOnUse" x="0" y="0" width="70" height="70">
<path d="M60 0H10C4.47715 0 0 4.47715 0 10V60C0 65.5229 4.47715 70 10 70H60C65.5229 70 70 65.5229 70 60V10C70 4.47715 65.5229 0 60 0Z" fill="white"/>
</mask>
<g mask="url(#mask0_7_61)">
<path d="M60 0H10C4.47715 0 0 4.47715 0 10V60C0 65.5229 4.47715 70 10 70H60C65.5229 70 70 65.5229 70 60V10C70 4.47715 65.5229 0 60 0Z" fill="#002426"/>
<path d="M94.8573 -15.5184C94.8573 -15.5184 68.4787 -2.95596 73.1606 28.1212C78.4135 62.967 47.9525 77.9223 27.1408 69.308C6.32914 60.6639 7.7851 28.6895 -31.7828 27.7024C-72.2071 26.7154 -80.7145 -13.5443 -80.7145 -13.5443" stroke="white" stroke-opacity="0.2" stroke-width="2" stroke-miterlimit="10"/>
<path d="M64.3677 -24.8806C64.3677 -24.8806 52.9484 1.68003 57.0308 28.0911C61.1418 54.5021 42.671 57.6128 35.3341 54.5021C20.0894 48.1013 17.1489 13.8237 -7.4597 11.6103C-25.959 9.93534 -50.853 23.1857 -64.0423 -6.8744" stroke="white" stroke-opacity="0.2" stroke-width="2" stroke-miterlimit="10"/>
<path d="M52.0634 -13.0358C52.0634 -13.0358 56.1743 14.0931 37.9891 9.24755C17.1489 3.68419 17.4629 -9.35682 -8.91566 2.96633C-18.308 7.36319 -56.1059 8.64934 -48.4835 -15.5184" stroke="white" stroke-opacity="0.2" stroke-width="2" stroke-miterlimit="10"/>
<path d="M38.8741 45.1403C43.2415 45.1403 46.782 39.6766 46.782 32.9368C46.782 26.197 43.2415 20.7333 38.8741 20.7333C34.5067 20.7333 30.9663 26.197 30.9663 32.9368C30.9663 39.6766 34.5067 45.1403 38.8741 45.1403Z" stroke="white" stroke-opacity="0.2" stroke-width="2" stroke-miterlimit="10"/>
</g>
<path d="M16.7969 37.5938H54.2031C54.4393 37.5938 54.6659 37.4933 54.8329 37.3146C54.9999 37.1358 55.0938 36.8934 55.0938 36.6406V29.9688C55.0939 29.7183 55.048 29.4704 54.9586 29.2389C54.8692 29.0075 54.7381 28.7972 54.5727 28.6201L42.104 15.2763C41.9384 15.0994 41.7419 14.959 41.5257 14.8634C41.3095 14.7677 41.0777 14.7186 40.8438 14.7188H19.4688C18.5239 14.7188 17.6178 15.1204 16.9497 15.8354C16.2816 16.5504 15.9063 17.5201 15.9062 18.5313V36.6406C15.9062 36.8934 16.0001 37.1358 16.1671 37.3146C16.3341 37.4933 16.5607 37.5938 16.7969 37.5938ZM40.8438 19.4844L50.6406 29.9688H40.8438V19.4844ZM57.7656 58.6888C57.7258 59.1788 57.5143 59.6345 57.1736 59.9646C56.833 60.2947 56.3883 60.4748 55.9287 60.4688H49.75C49.2776 60.4688 48.8245 60.2679 48.4905 59.9104C48.1564 59.5529 47.9688 59.0681 47.9688 58.5625V45.2831C47.9631 44.7913 48.1314 44.3154 48.4398 43.9508C48.7483 43.5862 49.1741 43.3599 49.632 43.3173C49.8756 43.3 50.12 43.3364 50.3499 43.4245C50.5799 43.5125 50.7904 43.6501 50.9685 43.8289C51.1466 44.0077 51.2885 44.2237 51.3853 44.4636C51.4821 44.7035 51.5318 44.9622 51.5312 45.2235V56.661H55.9844C56.2282 56.6605 56.4695 56.7135 56.6933 56.8168C56.9172 56.9201 57.1188 57.0715 57.2858 57.2616C57.4528 57.4517 57.5815 57.6764 57.6641 57.9219C57.7466 58.1674 57.7812 58.4284 57.7656 58.6888ZM27.4443 55.777C27.3749 56.5061 27.1554 57.2097 26.8016 57.8371C26.4478 58.4646 25.9685 59.0004 25.3981 59.406C24.2425 60.2305 22.8086 60.4688 21.5038 60.4688C20.3659 60.4624 19.2333 60.3023 18.1328 59.9922C17.6832 59.8513 17.3036 59.5265 17.0762 59.0882C16.8488 58.6499 16.7919 58.1333 16.9178 57.6504C17.0437 57.1675 17.3423 56.7572 17.7489 56.5082C18.1555 56.2592 18.6374 56.1917 19.0902 56.3203C20.0655 56.6062 22.4189 56.9636 23.4432 56.2345C23.6413 56.0939 23.8506 55.8723 23.9196 55.298C23.9976 54.6618 23.7616 54.3211 21.0741 53.4895C18.9923 52.8461 15.5077 51.7667 15.953 47.9828C16.0223 47.2681 16.2378 46.5784 16.5841 45.9627C16.9304 45.3471 17.3991 44.8206 17.9569 44.4205C20.5932 42.5143 24.7969 43.6318 25.2667 43.7629C25.493 43.8267 25.7054 43.9376 25.8916 44.0893C26.0779 44.2409 26.2344 44.4304 26.3523 44.6468C26.4701 44.8631 26.547 45.1023 26.5785 45.3505C26.61 45.5986 26.5955 45.851 26.5359 46.0932C26.4762 46.3354 26.3726 46.5627 26.2309 46.762C26.0891 46.9614 25.9121 47.1289 25.7099 47.255C25.5077 47.3811 25.2843 47.4634 25.0524 47.4971C24.8204 47.5308 24.5846 47.5153 24.3583 47.4514C23.3586 47.1727 20.9695 46.8414 19.9452 47.5849C19.811 47.6818 19.7004 47.8118 19.623 47.964C19.5455 48.1162 19.5033 48.2861 19.4999 48.4594C19.4732 48.6738 19.4687 48.7167 19.7493 48.9121C20.2636 49.2671 21.1832 49.5507 22.0761 49.8271C24.2559 50.5014 27.943 51.6523 27.4443 55.777ZM43.2529 56.5466C44.0126 55.1299 44.4103 53.5241 44.4062 51.8906C44.4062 47.1607 41.2111 43.3125 37.2812 43.3125C33.3514 43.3125 30.1562 47.1607 30.1562 51.8906C30.1562 56.6205 33.3514 60.4688 37.2812 60.4688C38.5395 60.4637 39.7692 60.068 40.8215 59.3298L41.3648 59.9112C41.5379 60.0964 41.7449 60.2414 41.9728 60.3372C42.2007 60.4329 42.4446 60.4774 42.6893 60.4678C42.9339 60.4582 43.1741 60.3947 43.3948 60.2813C43.6156 60.1679 43.8121 60.007 43.9721 59.8087C44.2643 59.4308 44.4127 58.9488 44.3875 58.459C44.3623 57.9692 44.1655 57.5075 43.8363 57.1662L43.2529 56.5466ZM37.2812 56.6562C35.3174 56.6562 33.7188 54.5117 33.7188 51.8906C33.7188 49.2695 35.3174 47.125 37.2812 47.125C39.2451 47.125 40.8438 49.2695 40.8438 51.8906C40.8441 52.4981 40.7554 53.102 40.581 53.6801L40.3739 53.4585C40.0452 53.096 39.5982 52.8834 39.1265 52.8652C38.6547 52.847 38.1947 53.0246 37.8423 53.3608C37.6684 53.5356 37.529 53.7461 37.4325 53.9797C37.336 54.2133 37.2843 54.4653 37.2806 54.7207C37.2768 54.976 37.3211 55.2296 37.4107 55.4663C37.5003 55.7031 37.6335 55.9181 37.8023 56.0987L38.1763 56.4966C37.8877 56.5998 37.5856 56.6537 37.2812 56.6562Z" fill="#D0F2F4"/>
</g>
<defs>
<clipPath id="clip0_7_61">
<rect width="70" height="70" fill="white"/>
</clipPath>
</defs>
</svg>
