<svg width="70" height="70" viewBox="0 0 70 70" fill="none" xmlns="http://www.w3.org/2000/svg">
<g clip-path="url(#clip0_2_99)">
<mask id="mask0_2_99" style="mask-type:luminance" maskUnits="userSpaceOnUse" x="0" y="0" width="70" height="70">
<path d="M60 0H10C4.47715 0 0 4.47715 0 10V60C0 65.5229 4.47715 70 10 70H60C65.5229 70 70 65.5229 70 60V10C70 4.47715 65.5229 0 60 0Z" fill="white"/>
</mask>
<g mask="url(#mask0_2_99)">
<path d="M60 0H10C4.47715 0 0 4.47715 0 10V60C0 65.5229 4.47715 70 10 70H60C65.5229 70 70 65.5229 70 60V10C70 4.47715 65.5229 0 60 0Z" fill="#002E46"/>
<path d="M94.8573 -15.5184C94.8573 -15.5184 68.4787 -2.95596 73.1606 28.1212C78.4135 62.967 47.9525 77.9223 27.1408 69.308C6.32914 60.6639 7.7851 28.6895 -31.7828 27.7024C-72.2071 26.7154 -80.7145 -13.5443 -80.7145 -13.5443" stroke="white" stroke-opacity="0.2" stroke-width="2" stroke-miterlimit="10"/>
<path d="M64.3677 -24.8806C64.3677 -24.8806 52.9484 1.68003 57.0308 28.0911C61.1418 54.5021 42.671 57.6128 35.3341 54.5021C20.0894 48.1013 17.1489 13.8237 -7.4597 11.6103C-25.959 9.93534 -50.853 23.1857 -64.0423 -6.8744" stroke="white" stroke-opacity="0.2" stroke-width="2" stroke-miterlimit="10"/>
<path d="M52.0634 -13.0358C52.0634 -13.0358 56.1743 14.0931 37.9891 9.24755C17.1489 3.68419 17.4629 -9.35682 -8.91566 2.96633C-18.308 7.36319 -56.1059 8.64934 -48.4835 -15.5184" stroke="#FBF6F6" stroke-opacity="0.2" stroke-width="2" stroke-miterlimit="10"/>
<path d="M38.8741 45.1403C43.2415 45.1403 46.782 39.6766 46.782 32.9368C46.782 26.197 43.2415 20.7333 38.8741 20.7333C34.5067 20.7333 30.9663 26.197 30.9663 32.9368C30.9663 39.6766 34.5067 45.1403 38.8741 45.1403Z" stroke="white" stroke-opacity="0.2" stroke-width="2" stroke-miterlimit="10"/>
</g>
<path d="M10 35V10H60V60H10" fill="#007ACC"/>
<path d="M20.9625 35.0875V37.125H27.4625V55.625H32.075V37.125H38.575V35.125C38.575 34 38.575 33.0875 38.525 33.0625C38.525 33.025 34.5625 33.0125 29.75 33.0125L21 33.05V35.1L20.9625 35.0875ZM50.175 33C51.45 33.3 52.425 33.875 53.3 34.7875C53.7625 35.2875 54.45 36.1625 54.5 36.3875C54.5 36.4625 52.3375 37.925 51.025 38.7375C50.975 38.775 50.775 38.5625 50.575 38.2375C49.925 37.3125 49.2625 36.9125 48.225 36.8375C46.725 36.7375 45.725 37.525 45.725 38.8375C45.725 39.2375 45.8 39.4625 45.95 39.7875C46.2875 40.475 46.9125 40.8875 48.85 41.7375C52.425 43.275 53.975 44.2875 54.9125 45.7375C55.975 47.3625 56.2125 49.9125 55.5 51.825C54.7 53.9125 52.75 55.325 49.9625 55.7875C49.0875 55.9375 47.0875 55.9125 46.15 55.75C44.15 55.375 42.2375 54.375 41.0625 53.0875C40.6 52.5875 39.7125 51.25 39.7625 51.1625L40.2375 50.8625L42.1125 49.775L43.525 48.95L43.85 49.3875C44.2625 50.0375 45.1875 50.9125 45.725 51.2125C47.35 52.05 49.525 51.9375 50.6 50.9625C51.0625 50.5375 51.2625 50.0875 51.2625 49.4625C51.2625 48.8875 51.175 48.625 50.8875 48.1875C50.4875 47.6375 49.6875 47.1875 47.4375 46.1875C44.85 45.0875 43.75 44.3875 42.725 43.3125C42.1375 42.6625 41.6 41.65 41.35 40.8125C41.1625 40.0875 41.1 38.3125 41.275 37.6C41.8125 35.1 43.7 33.35 46.4 32.85C47.275 32.675 49.3375 32.75 50.2 32.975L50.175 33Z" fill="white"/>
</g>
<defs>
<clipPath id="clip0_2_99">
<rect width="70" height="70" fill="white"/>
</clipPath>
</defs>
</svg>
